<svg id="Layer_1" data-name="Layer 1" xmlns="http://www.w3.org/2000/svg" width="453.4" height="191.8" viewBox="0 0 453.4 191.8"><title>alternate-logo</title><path d="M0,128.7H31c13.9,0,21.5,9.4,21.5,20.6S44.9,169.7,31,169.7H16v20.9H0Zm28.9,13.5H16v13.9H28.9c4.2,0,7.4-2.7,7.4-6.9S33.1,142.2,28.9,142.2Z" fill="#56e19d"/><path d="M87.8,185.4a17.2,17.2,0,0,1-13.3,6.4c-11,0-19.8-8.4-19.8-23.6s8.6-23.5,19.8-23.5a16.6,16.6,0,0,1,13.3,6.4v-5.3H102v44.8H87.8Zm0-24a11.9,11.9,0,0,0-8.6-4c-5.7,0-9.9,4.1-9.9,10.8s4.2,10.9,9.9,10.9a11.9,11.9,0,0,0,8.6-4Z" fill="#56e19d"/><path d="M115.5,178.6V158.3H108V145.8h7.5V133.6h14.2v12.2h9.1v12.5h-9.1v16.3c0,2.6,1.4,4.5,4,4.5a5.5,5.5,0,0,0,3.6-1.1l2.8,10.8c-1.8,1.7-5.3,3-10.6,3C120.4,191.8,115.5,187.2,115.5,178.6Z" fill="#56e19d"/><path d="M176.3,164.6c0-5.5-2.8-7.3-7.4-7.3a10.8,10.8,0,0,0-8.6,4.4v28.9H146V128.7h14.3v22.6c2.7-3.2,8-6.6,15.5-6.6,10.2,0,14.8,5.8,14.8,14v31.9H176.3Z" fill="#56e19d"/><rect x="234.9" y="164.1" width="16.7" height="2.95" fill="#f7247e"/><rect x="203.9" y="170" width="16.7" height="2.95" fill="#f7247e"/><rect x="234.9" y="170" width="16.7" height="2.95" fill="#f7247e"/><rect x="203.9" y="175.9" width="16.7" height="2.95" fill="#f7247e"/><rect x="234.9" y="175.9" width="16.7" height="2.95" fill="#f7247e"/><rect x="203.9" y="158.2" width="16.7" height="2.95" fill="#f7247e"/><rect x="203.9" y="164.1" width="16.7" height="2.95" fill="#f7247e"/><rect x="234.9" y="187.7" width="16.7" height="2.95" fill="#f7247e"/><path d="M229.7,155.3v-9.5h-9.1v-2a3.7,3.7,0,0,1,4-3.6,5.8,5.8,0,0,1,3.7,1.2l3.1-11.4a22.7,22.7,0,0,0-10.4-2.2c-9.9,0-17.1,6.7-17.1,16v2h-7.4v9.5Z" fill="#f7247e"/><rect x="203.9" y="187.7" width="16.7" height="2.95" fill="#f7247e"/><rect x="203.9" y="181.8" width="16.7" height="2.95" fill="#f7247e"/><rect x="234.9" y="181.8" width="16.7" height="2.95" fill="#f7247e"/><rect x="234.9" y="145.8" width="16.7" height="9.45" fill="#f7247e"/><rect x="234.9" y="158.2" width="16.7" height="2.95" fill="#f7247e"/><rect x="260.9" y="170" width="16.7" height="2.95" fill="#f7247e"/><path d="M308,167.1v-3H291a7.8,7.8,0,0,1,.3,2.2v.8Z" fill="#f7247e"/><rect x="260.9" y="175.9" width="16.7" height="2.95" fill="#f7247e"/><rect x="260.9" y="164.1" width="16.7" height="2.95" fill="#f7247e"/><rect x="291.3" y="175.9" width="16.7" height="2.95" fill="#f7247e"/><path d="M307.6,155.3c-1.2-6.1-5.8-10.6-14.6-10.6s-12.8,3.3-15.4,6.2v-5.1H260.9v9.5Z" fill="#f7247e"/><rect x="260.9" y="187.7" width="16.7" height="2.95" fill="#f7247e"/><polygon points="304.4 187.7 304.4 187.7 291.3 187.7 291.3 190.6 308 190.6 308 187.7 304.4 187.7" fill="#f7247e"/><path d="M260.9,161.2h19.7a7.8,7.8,0,0,1,8.6,0H308v-2.4a1.3,1.3,0,0,0-.1-.6h-47Z" fill="#f7247e"/><rect x="260.9" y="181.8" width="16.7" height="2.95" fill="#f7247e"/><rect x="291.3" y="181.8" width="16.7" height="2.95" fill="#f7247e"/><polygon points="304.4 170 291.3 170 291.3 173 308 173 308 170 304.4 170 304.4 170" fill="#f7247e"/><rect x="346.6" y="164.1" width="16.7" height="2.95" fill="#f7247e"/><path d="M331.4,170H314.2l.3,3h17.9A9.6,9.6,0,0,1,331.4,170Z" fill="#f7247e"/><path d="M314.2,167.1h17.1a9.5,9.5,0,0,1,.8-3H314.4A28.3,28.3,0,0,0,314.2,167.1Z" fill="#f7247e"/><path d="M363.3,155.3V128.7H346.6v21.8a16.1,16.1,0,0,0-12.7-5.8A18.5,18.5,0,0,0,317,155.3Z" fill="#f7247e"/><path d="M363.3,181.8H317.2a14.9,14.9,0,0,0,2,2.9h44.1Z" fill="#f7247e"/><rect x="346.6" y="170" width="16.7" height="2.95" fill="#f7247e"/><path d="M363.3,178.9v-3H343.4a7.8,7.8,0,0,1-8,0H315l.9,3Z" fill="#f7247e"/><path d="M314.9,161.2h19.5a7.9,7.9,0,0,1,5.2-1.7,9,9,0,0,1,4.6,1.7h19.1v-3H315.7A21.7,21.7,0,0,0,314.9,161.2Z" fill="#f7247e"/><path d="M322,187.7a18.9,18.9,0,0,0,11.9,4.1,16.2,16.2,0,0,0,10.9-4.1Z" fill="#f7247e"/><rect x="346.6" y="187.7" width="16.7" height="2.95" fill="#f7247e"/><path d="M410.7,181.8H373.5a16.8,16.8,0,0,0,2.4,2.9h36.7Z" fill="#f7247e"/><path d="M408.7,178.9l-1.8-2.7a19.5,19.5,0,0,1-5.6,2.7Z" fill="#f7247e"/><path d="M371.8,178.9H392a9.3,9.3,0,0,1-3.9-3H370.6A18.8,18.8,0,0,0,371.8,178.9Z" fill="#f7247e"/><path d="M413.4,155.3c-4.1-6.8-11.2-10.6-19.5-10.6s-16.5,4.2-20.6,10.6Z" fill="#f7247e"/><path d="M379.6,187.7a27.7,27.7,0,0,0,14.9,4.1c5.7,0,12.4-1.3,17-4.1Z" fill="#f7247e"/><path d="M417.1,167.1a27.2,27.2,0,0,0-.4-3H369.8l-.3,3Z" fill="#f7247e"/><path d="M369.9,173h47.3v-3H369.6A15.3,15.3,0,0,0,369.9,173Z" fill="#f7247e"/><path d="M400.6,161.2H416a21.1,21.1,0,0,0-1-3H397.6A6.2,6.2,0,0,1,400.6,161.2Z" fill="#f7247e"/><path d="M371.6,158.2a26.5,26.5,0,0,0-1.1,3h16.8a6.2,6.2,0,0,1,3-3Z" fill="#f7247e"/><rect x="423" y="175.9" width="16.7" height="2.95" fill="#f7247e"/><path d="M453.4,155.3V144.7a20,20,0,0,0-13.7,6.2v-5.1H423v9.5Z" fill="#f7247e"/><rect x="423" y="181.8" width="16.7" height="2.95" fill="#f7247e"/><rect x="423" y="187.7" width="16.7" height="2.95" fill="#f7247e"/><path d="M423,161.2h19.7a17.1,17.1,0,0,1,6.9-1.7,15.9,15.9,0,0,1,3.8.5v-1.8H423Z" fill="#f7247e"/><rect x="423" y="170" width="16.7" height="2.95" fill="#f7247e"/><rect x="423" y="164.1" width="16.7" height="2.95" fill="#f7247e"/><polygon points="214.8 41.3 214.8 41.3 202.9 20.6 179 20.6 190.9 41.3 214.8 41.3 214.8 41.3" fill="none"/><polygon points="225 67.8 225 64.9 204.6 64.9 206.3 67.8 225 67.8" fill="#56e19d"/><polygon points="221.6 73.7 221.6 70.8 208 70.8 209.7 73.7 221.6 73.7" fill="#56e19d"/><rect x="238.6" width="71.5" height="2.95" fill="#56e19d"/><polygon points="218.2 79.6 218.2 76.7 211.4 76.7 213.1 79.6 218.2 79.6" fill="#56e19d"/><polygon points="248.8 26.5 248.8 23.6 228.4 23.6 230.1 26.5 248.8 26.5" fill="#56e19d"/><polygon points="242 38.3 242 35.4 235.2 35.4 236.9 38.3 242 38.3" fill="#56e19d"/><polygon points="245.4 32.4 245.4 29.5 231.8 29.5 233.5 32.4 245.4 32.4" fill="#56e19d"/><polygon points="276.1 61.9 276.1 59 248.8 59 250.5 61.9 276.1 61.9" fill="#56e19d"/><rect x="231.8" y="11.8" width="71.5" height="2.95" fill="#56e19d"/><polygon points="228.4 17.7 228.4 20.6 252.2 20.6 252.2 20.6 299.9 20.6 299.9 17.7 228.4 17.7" fill="#56e19d"/><rect x="235.2" y="5.9" width="71.5" height="2.95" fill="#56e19d"/><polygon points="240.3 44.2 286.3 44.2 286.3 41.3 238.6 41.3 240.3 44.2" fill="#56e19d"/><polygon points="282.9 50.1 282.9 47.2 242 47.2 243.7 50.1 282.9 50.1" fill="#56e19d"/><polygon points="279.5 56 279.5 53.1 245.4 53.1 247.1 56 279.5 56" fill="#56e19d"/><path d="M236.9,38.3l-1.7-2.9-1.7-3-1.7-2.9-1.7-3-1.7-2.9L214.8,0H143.3L179,61.9l11.9,20.7h23.9l-1.7-3-1.7-2.9-1.7-3L208,70.8l-1.7-3-1.7-2.9-1.7-3h47.6L248.8,59l-1.7-3-1.7-2.9-1.7-3L242,47.2l-1.7-3-1.7-2.9Zm-46,3L179,20.6h23.9l11.9,20.7H190.9Z" fill="#f7247e"/></svg>