<svg id="Layer_1" data-name="Layer 1" xmlns="http://www.w3.org/2000/svg" width="64" height="64" viewBox="0 0 64 64"><title>favicon</title><path d="M26.3,45.5l-.7-1.1L25,43.3,23.7,41,23,39.9H41.2l-.6-1.1-.7-1.2-.6-1.1-.7-1.1L38,34.3l-.7-1.2L36.7,32,36,30.9l-.6-1.2-.7-1.1-.6-1.1-.7-1.1-.6-1.2-5.2-9H.2L13.9,39.9l4.5,7.9h9.2l-.7-1.1ZM13.9,24.1H23L27.6,32H18.4Z" fill="#f7247e"/><polygon points="24.3 42.1 30.8 42.1 31.4 41 23.7 41 24.3 42.1" fill="#56e19d"/><polygon points="25.6 44.4 29.4 44.4 30.1 43.3 25 43.3 25.6 44.4" fill="#56e19d"/><polygon points="26.9 46.7 28 46.7 28.7 45.5 26.3 45.5 26.9 46.7" fill="#56e19d"/><polygon points="32.8 25.2 33.4 26.4 40.5 26.4 41.2 25.2 32.8 25.2" fill="#56e19d"/><polygon points="36 30.9 37.7 30.9 38.4 29.7 35.4 29.7 36 30.9" fill="#56e19d"/><polygon points="34.7 28.6 39.1 28.6 39.8 27.5 34.1 27.5 34.7 28.6" fill="#56e19d"/><polygon points="41.2 39.9 49.2 39.9 49.9 38.8 40.6 38.8 41.2 39.9" fill="#56e19d"/><polygon points="63.8 16.2 37.5 16.2 36.8 17.3 63.1 17.3 63.8 16.2" fill="#56e19d"/><polygon points="34.1 21.9 60.3 21.9 61 20.7 34.7 20.7 34.1 21.8 34.1 21.9" fill="#56e19d"/><polygon points="32.6 24.1 41.9 24.1 58.9 24.1 59.6 23 33.3 23 32.8 23.9 32.6 24.1" fill="#56e19d"/><polygon points="61.7 19.6 62.4 18.5 36.1 18.5 35.4 19.6 61.7 19.6" fill="#56e19d"/><polygon points="37.3 33.1 53.4 33.1 54.1 32 36.7 32 37.3 33.1" fill="#56e19d"/><polygon points="38.6 35.4 52 35.4 52.7 34.3 38 34.3 38.6 35.4" fill="#56e19d"/><polygon points="39.9 37.6 50.6 37.6 51.3 36.5 39.3 36.5 39.9 37.6" fill="#56e19d"/></svg>