<svg id="Layer_1" data-name="Layer 1" xmlns="http://www.w3.org/2000/svg" width="8.1in" height="1.1in" viewBox="0 0 586.6 77"><title>logo</title><path d="M192.8,13.6H163.9V71.3h14.9V51.8h14c13,0,20.1-8.6,20.1-19S205.8,13.6,192.8,13.6Zm-2,25.6h-12v-13h12c4,0,6.9,2.6,6.9,6.6S194.8,39.2,190.8,39.2Z" fill="#fff"/><path d="M245.8,29.6v4.9a15.3,15.3,0,0,0-12.4-6c-10.5,0-18.5,8.2-18.5,21.9s8.2,22,18.5,22a16,16,0,0,0,12.4-5.9v4.8H259V29.6Zm0,27.2a10.9,10.9,0,0,1-8.1,3.8c-5.3,0-9.2-4-9.2-10.2s3.9-10,9.2-10a10.8,10.8,0,0,1,8.1,3.7Z" fill="#fff"/><path d="M291.9,59.6a5.5,5.5,0,0,1-3.4,1c-2.3,0-3.7-1.8-3.7-4.2V41.2h8.5V29.6h-8.5V18.1H271.5V29.6h-6.9V41.2h6.9V60.1c0,8,4.6,12.3,13.1,12.3,4.9,0,8.2-1.2,9.9-2.8Z" fill="#fff"/><path d="M327.8,28.5a18.8,18.8,0,0,0-14.5,6.2V13.6H300V71.3h13.3V44.4a10.2,10.2,0,0,1,8.1-4.1c4.2,0,6.9,1.6,6.9,6.7V71.3h13.3V41.6C341.6,33.9,337.3,28.5,327.8,28.5Z" fill="#fff"/><rect x="382.9" y="46.6" width="15.6" height="2.75" fill="#fff"/><rect x="354" y="52.1" width="15.6" height="2.75" fill="#fff"/><rect x="382.9" y="52.1" width="15.6" height="2.75" fill="#fff"/><rect x="354" y="57.6" width="15.6" height="2.75" fill="#fff"/><rect x="382.9" y="57.6" width="15.6" height="2.75" fill="#fff"/><rect x="354" y="41.1" width="15.6" height="2.75" fill="#fff"/><rect x="354" y="46.6" width="15.6" height="2.75" fill="#fff"/><rect x="382.9" y="68.6" width="15.6" height="2.75" fill="#fff"/><path d="M378.1,38.4V29.6h-8.5V27.7a3.5,3.5,0,0,1,3.7-3.4,6.1,6.1,0,0,1,3.5,1.1l2.8-10.5c-2.2-1.3-5.7-2.1-9.7-2.1-9.2,0-15.9,6.2-15.9,14.9v1.9h-6.9v8.8Z" fill="#fff"/><rect x="354" y="68.6" width="15.6" height="2.75" fill="#fff"/><rect x="354" y="63.1" width="15.6" height="2.75" fill="#fff"/><rect x="382.9" y="63.1" width="15.6" height="2.75" fill="#fff"/><rect x="382.9" y="29.6" width="15.6" height="8.81" fill="#fff"/><rect x="382.9" y="41.1" width="15.6" height="2.75" fill="#fff"/><rect x="407.1" y="52.1" width="15.6" height="2.75" fill="#fff"/><path d="M451,49.4V46.6H435.2a12.5,12.5,0,0,1,.2,2.1v.7Z" fill="#fff"/><rect x="407.1" y="57.6" width="15.6" height="2.75" fill="#fff"/><rect x="407.1" y="46.6" width="15.6" height="2.75" fill="#fff"/><rect x="435.4" y="57.6" width="15.6" height="2.75" fill="#fff"/><path d="M450.7,38.4c-1.2-5.7-5.5-9.9-13.6-9.9s-12,3-14.4,5.8V29.6H407.1v8.8Z" fill="#fff"/><rect x="407.1" y="68.6" width="15.6" height="2.75" fill="#fff"/><polygon points="447.7 68.6 447.7 68.6 435.4 68.6 435.4 71.3 451 71.3 451 68.6 447.7 68.6" fill="#fff"/><path d="M407.1,43.9h18.4a7.3,7.3,0,0,1,8,0H451V41.1H407.1Z" fill="#fff"/><rect x="407.1" y="63.1" width="15.6" height="2.75" fill="#fff"/><rect x="435.4" y="63.1" width="15.6" height="2.75" fill="#fff"/><polygon points="447.7 52.1 435.4 52.1 435.4 54.9 451 54.9 451 52.1 447.7 52.1 447.7 52.1" fill="#fff"/><rect x="487" y="46.6" width="15.6" height="2.75" fill="#fff"/><path d="M472.8,52.1h-16l.3,2.8h16.7A8.5,8.5,0,0,1,472.8,52.1Z" fill="#fff"/><path d="M456.8,49.4h16a7.7,7.7,0,0,1,.7-2.8H457A24.6,24.6,0,0,0,456.8,49.4Z" fill="#fff"/><path d="M502.6,38.4V13.6H487V34a14.8,14.8,0,0,0-11.8-5.5,17.2,17.2,0,0,0-15.8,9.9Z" fill="#fff"/><path d="M502.6,63.1h-43l1.8,2.8h41.2Z" fill="#fff"/><rect x="487" y="52.1" width="15.6" height="2.75" fill="#fff"/><path d="M502.6,60.4V57.6H484a8.5,8.5,0,0,1-3.5,1,7.7,7.7,0,0,1-4-1H457.6a22.9,22.9,0,0,0,.8,2.8Z" fill="#fff"/><path d="M457.5,43.9h18.1a7.8,7.8,0,0,1,4.9-1.6,7.9,7.9,0,0,1,4.3,1.6h17.8V41.1H458.2A22.9,22.9,0,0,0,457.5,43.9Z" fill="#fff"/><path d="M464.1,68.6a17.6,17.6,0,0,0,11.1,3.8,14.9,14.9,0,0,0,10.1-3.8Z" fill="#fff"/><rect x="487" y="68.6" width="15.6" height="2.75" fill="#fff"/><path d="M546.7,63.1H512.1a19.3,19.3,0,0,0,2.2,2.8h34.2Z" fill="#fff"/><path d="M544.9,60.4l-1.7-2.6a16.8,16.8,0,0,1-5.2,2.6Z" fill="#fff"/><path d="M510.5,60.4h18.8a8.7,8.7,0,0,1-3.6-2.8H509.4A23.3,23.3,0,0,0,510.5,60.4Z" fill="#fff"/><path d="M549.3,38.4c-3.8-6.3-10.4-9.9-18.2-9.9s-15.4,3.9-19.2,9.9Z" fill="#fff"/><path d="M517.8,68.6a25,25,0,0,0,13.8,3.8c5.4,0,11.6-1.2,15.9-3.8Z" fill="#fff"/><path d="M552.7,49.4a23.6,23.6,0,0,0-.4-2.8H508.7a12.7,12.7,0,0,0-.3,2.8Z" fill="#fff"/><path d="M508.7,54.9h44.1V52.1H508.4Z" fill="#fff"/><path d="M537.3,43.9h14.4a23.1,23.1,0,0,0-1-2.8H534.6A6.1,6.1,0,0,1,537.3,43.9Z" fill="#fff"/><path d="M510.3,41.1a23.1,23.1,0,0,0-1,2.8h15.6a6.9,6.9,0,0,1,2.8-2.8Z" fill="#fff"/><rect x="558.2" y="57.6" width="15.6" height="2.75" fill="#fff"/><path d="M586.6,38.4V28.5a18.7,18.7,0,0,0-12.8,5.8V29.6H558.2v8.8Z" fill="#fff"/><rect x="558.2" y="63.1" width="15.6" height="2.75" fill="#fff"/><rect x="558.2" y="68.6" width="15.6" height="2.75" fill="#fff"/><path d="M558.2,43.9h18.4a15.1,15.1,0,0,1,6.4-1.6,14.7,14.7,0,0,1,3.6.5V41.1H558.2Z" fill="#fff"/><rect x="558.2" y="52.1" width="15.6" height="2.75" fill="#fff"/><rect x="558.2" y="46.6" width="15.6" height="2.75" fill="#fff"/><polygon points="76.2 63.2 76.2 60.5 57.1 60.5 58.7 63.2 76.2 63.2" fill="#fff"/><polygon points="73 68.7 73 66 60.3 66 61.9 68.7 73 68.7" fill="#fff"/><rect x="88.9" width="66.7" height="2.75" fill="#fff"/><polygon points="69.8 74.2 69.8 71.5 63.5 71.5 65.1 74.2 69.8 74.2" fill="#fff"/><polygon points="98.4 24.7 98.4 22 79.3 22 80.9 24.7 98.4 24.7" fill="#fff"/><polygon points="92 35.7 92 33 85.7 33 87.3 35.7 92 35.7" fill="#fff"/><polygon points="95.2 30.2 95.2 27.5 82.5 27.5 84.1 30.2 95.2 30.2" fill="#fff"/><polygon points="123.8 57.7 123.8 55 98.4 55 100 57.7 123.8 57.7" fill="#fff"/><rect x="82.5" y="11" width="66.7" height="2.75" fill="#fff"/><polygon points="79.3 16.5 79.3 19.2 101.6 19.2 101.6 19.2 146 19.2 146 16.5 79.3 16.5" fill="#fff"/><rect x="85.7" y="5.5" width="66.7" height="2.75" fill="#fff"/><rect x="66.7" y="38.5" fill="#fff"/><polygon points="90.5 41.2 133.3 41.2 133.3 38.5 88.9 38.5 90.5 41.2" fill="#fff"/><polygon points="130.1 46.7 130.1 44 92 44 93.6 46.7 130.1 46.7" fill="#fff"/><polygon points="127 52.2 127 49.5 95.2 49.5 96.8 52.2 127 52.2" fill="#fff"/><path d="M63.5,71.5l-1.6-2.8L60.3,66l-1.6-2.8-1.6-2.7-1.6-2.8H100L98.4,55l-1.6-2.8-1.6-2.7-1.6-2.8L92,44l-1.5-2.8-1.6-2.7-1.6-2.8L85.7,33l-1.6-2.8-1.6-2.7-1.6-2.8L79.3,22,66.6,0H0L33.3,57.7,44.4,77H66.6l-1.5-2.8ZM33.3,19.2H55.5L66.6,38.5H44.4Z" fill="#fff"/></svg>