<svg height="1080" viewBox="0 0 1920 1080" width="1920" xmlns="http://www.w3.org/2000/svg"><g fill="#330947"><g opacity=".2"><path d="m170 1040.1c.5-3.1.8-6.3 1.5-9.3 2.9-12.5 5.9-24.9 9.1-37.3a305 305 0 0 0 8.5-47.5c1.2-11.7 2.8-23.5 4.4-35.2 3.6-26.7 3.7-53.6 3.5-80.4-.2-16-.8-31.9-1.8-47.8-1-13.8-3-27.5-4.5-41.3-.1-.5-.4-1-1.5-1.4-.1 1.4-.3 2.8-.3 4.2.8 37.8 0 75.5-2.9 113.2-.7 10.1-2.3 20.1-3.7 30.1s-2.7 18.9-4.4 28.2c-3 15.5-6 31-9.5 46.4a274.2 274.2 0 0 1 -8.3 28.5c-5.4 15.7-10.9 31.5-17.4 46.8-5 11.4-11.6 22.2-17.7 33.1a19.6 19.6 0 0 1 -6.5 6.9c1.5-4.4 3.1-8.7 4.5-13.1 2.7-8.4 5.6-16.7 8.1-25.1q5-17.7 9.3-35.4c3.3-13.4 6.4-26.7 9.5-40.1s5.7-26 8.5-39c1.5-7 3.1-14.1 4.4-21.1 3-16.1 5.8-32.3 8.7-48.4 1.5-8.9 3.1-17.8 4.5-26.7 1.7-11.2 3.1-22.5 4.8-33.8 1.2-8.3 2.4-16.7 3.7-25s2.6-17.2 4-25.9l-1.2-.6c-2.2 2.8-4.6 5.5-6.6 8.4-7.3 10.4-12.2 21.9-15.8 34.1-3 10.3-6.3 20.6-9.5 30.9s-5.7 18.6-8.2 28c-3.3 12.4-6.3 24.9-9.4 37.4s-5.7 23.4-8.3 35.1c-2.9 13.2-5.5 26.4-8.3 39.5s-5.4 24.3-8.9 36.3c1.3-7.7 2.7-15.3 3.7-23s1.6-16.3 2.8-24.4c1.9-13 4.3-25.9 6.4-38.9 1-6.2 1.4-12.6 2.5-18.8 2.6-15.3 5.5-30.5 8.4-45.7.7-3.7 2.1-7.2 3.2-10.8l-1.2-.5c-2 3.7-4.2 7.4-5.9 11.3-3.7 8.5-7.2 17.1-10.6 25.7q-9.1 23.1-18.1 46.2l-9 23.8c-3.4 8.9-7 17.7-10.2 26.6-2.3 6.3-4 12.7-6.9 18.9.7-3.4 1.3-6.8 2.2-10.2s1.8-5.7 2.7-8.6c3.4-11.8 6.6-23.7 10.1-35.6 2.8-9.7 5.7-19.5 8.8-29.2s7-20 10.4-30.1c2.4-7.2 4.2-14.7 6.8-21.8 3.5-9.7 7.3-19.3 11.1-28.8 3-7.4 6-14.9 9.6-22.1 4.7-9.4 9.9-18.6 15.1-27.7s10.2-17.8 16-26.3c4.6-6.6 10.2-12.5 15.3-18.7.9-1.1 2.3-2.4 2.3-3.6a172.1 172.1 0 0 0 -.7-23.8c-45.9 64.3-95.1 125.7-143 188.1l-1-.7c2.6-5.5 5-11.2 7.9-16.6 5.4-9.8 11.1-19.5 16.8-29.1 3.4-5.7 6.9-11.4 10.8-16.9 6.7-9.6 13.5-19 20.5-28.4 5.4-7.4 10.9-14.7 16.7-21.8s14.2-17.1 21.5-25.4q14.1-16 28.5-31.6c5.1-5.5 10.6-10.5 15.7-16 2.7-2.9 4.8-6.4 7.1-9.7.1 6.5.8 13 .2 19.4-.8 10 2.4 19 4.8 28.3s5.7 21.2 7.9 31.9 5 24.3 6.5 36.6a254.6 254.6 0 0 1 2.1 33.8c-.2 21.2-.7 42.3-1.9 63.5-.6 10.8-2.8 21.6-4.6 32.4a212.8 212.8 0 0 1 -4.2 21.1c-3.2 12.4-6.7 24.7-10.2 37-1.5 5.4-3.1 10.8-4.9 16.1-3.2 9.5-6.7 19-10.1 28.4z"/><path d="m645.8 344.8 1.7-1.7c1.5 1.9 2.7 4.2 4.4 5.8 12.5 12 25.2 23.7 37.6 35.8 8.2 8.1 16 16.8 24 25.1 5 5.2 10.3 10.1 15.1 15.4s11.9 13.5 17.6 20.4c8.8 10.5 17.8 21 26.2 31.9 6.5 8.2 12.3 16.8 18.4 25.3s11.1 15.6 16.4 23.7c3.8 5.6 7.1 11.6 10.4 17.5 5.3 9.8 10.8 19.5 15.5 29.6 3.2 6.6 5.3 13.8 7.8 20.7l-1.4.7c-4.4-6.2-8.8-12.4-13.3-18.5l-15.3-20.7c-3.6-4.8-7-9.8-10.6-14.6-5.3-6.9-10.8-13.6-16.1-20.6-3.7-4.9-7.1-10.1-10.8-14.9-5.2-6.6-10.6-13-15.8-19.6s-9.4-12.4-14-18.6-7.2-9.7-11-14.4c-5.3-6.7-10.9-13.3-16.3-19.9-6.9-8.5-13.8-17-20.6-25.6s-11.9-15.1-17.9-22.5c-1.1-1.4-2.8-2.2-4.2-3.2l-.6-2.1a5.7 5.7 0 0 0 -.7-2.2c-8.8-11-17.6-21.9-26.5-32.8z"/><path d="m599.7 267.5-8.9-8.7c7.6-.2 15.2-.9 22.9-.7 12.3.3 24.8.1 36.9 2 15.9 2.6 31.6 6.9 47.2 10.8a204.9 204.9 0 0 1 20.6 6.4c9.7 3.6 19.3 7.6 29 11.4 4 1.6 8 3 11.8 4.8 8 3.8 15.9 7.9 23.8 11.8s13.2 6.1 19.5 9.6c12.3 6.8 24.4 14 36.6 21.1a46.6 46.6 0 0 1 9.5 6.4c-5.3-2.3-10.7-4.5-15.9-6.9-8-3.6-15.8-7.5-23.8-11-10.4-4.5-20.9-9-31.5-12.9-13.9-5.1-27.9-9.8-41.9-14.4-9.3-3-18.5-5.9-27.9-8.3-13.6-3.5-27.3-6.6-41-9.6-7.6-1.6-15.4-2.6-23-3.9l-33.3-6z"/><path d="m190.7 686.3 1.4-1.3c2.7 7.6 5.6 15.1 8.1 22.7s5.4 17.1 8 25.7c1.4 4.9 2.8 9.7 3.9 14.7 2.6 11.8 5.1 23.7 7.5 35.6 1.7 8 2.8 16 4.8 23.9 4.6 19.2 6.9 38.7 8.3 58.3 1.2 16.6 3.4 33.2 3.5 49.8.2 25.6-.8 51.3-1.9 76.9-.4 9.7-2.7 19.4-3.6 25.4 0-9.9.2-23.5 0-37.1s-.4-25-1.2-37.5-2.1-26.7-3.5-40-3.1-27.9-4.8-41.8c-1.4-11.6-2.8-23.2-4.7-34.7s-4.5-25.6-6.8-38.4-3.9-23.7-6-35.4c-2.7-14.2-5.6-28.3-8.3-42.5-1.6-8.1-3.1-16.2-4.7-24.3z"/><path d="m200.7 676.1 4.3-4c4.5 7.3 9.2 14.4 13.3 22s7.8 15.9 11.2 24.1c2.7 6.5 4.7 13.2 7 19.9 3.6 10.7 7.2 21.5 10.6 32.3a74.5 74.5 0 0 1 1.7 8.2c2 9.9 3.7 19.9 6.2 29.6 4.5 17.5 6.9 35.2 8.4 53.2s3.2 35.5 4.6 53.3c.9 11.5 1.4 23 2 34.5.1 1.6-.6 3.2-1 4.7l-2.2-1.2c-.3-4.5-.6-8.9-1.1-13.4-1.7-16.1-3.1-32.2-5.4-48.2s-5.5-32.3-8.4-48.4c-1.2-6.8-2.7-13.5-4.4-20.2-3.2-12.5-6.7-25-10-37.5-2.3-8.4-4.2-17-6.8-25.3-3.3-10.2-7.1-20.3-10.6-30.4-2-5.8-3.9-11.6-6.2-17.3-3.9-9.9-8.1-19.6-12-29.4a27.7 27.7 0 0 1 -1.2-6.5z"/><path d="m576.3 244.5-6.7-6.9a50.2 50.2 0 0 1 6.7-.4c12.7.4 25.4.6 38.1 1.5s25.7 2.3 38.6 3.8c10 1.2 20.1 2.7 30 4.5 15.4 2.9 30.7 5.9 46 9.3 9.8 2.2 19.5 4.9 29.1 8 14 4.7 27.9 10 41.8 15l11.9 4.7 13.6 5.8-.4 1.3c-5.3-1.7-10.5-3.6-15.9-5-9-2.4-18.2-4.6-27.3-6.6-13.4-3-26.9-5.9-40.3-8.6-6.9-1.5-13.9-2.7-20.8-3.9-14.3-2.6-28.6-5.3-43-7.5s-30.1-4.1-45.2-6.2c-11.5-1.5-23-3-34.5-4.7-7.3-1.1-14.5-2.7-21.7-4.1z"/><path d="m682.8 352.1c-2.3-2.7-4.5-5.6-7-8.2-4.4-4.6-9-9-13.6-13.6 1.5.1 3.1-.2 4.3.4 11.9 6.7 23.8 13.3 35.5 20.5 15.2 9.4 30.2 19.2 45.2 29 9.8 6.4 19.7 12.8 29.1 19.8s16.3 13.1 24.4 19.6c6.4 5.1 13.1 9.8 19.2 15.1s13.8 13.1 20.7 19.6c4.7 4.6 9.5 9.1 14.1 13.7a59.8 59.8 0 0 1 4 4.8l-.8 1c-1.7-1.4-3.3-2.9-5.1-4.3-6.9-5.6-13.7-11.2-20.7-16.7s-15.6-11.8-23.5-17.5-14.4-9.8-21.5-14.7-15.4-11-23.2-16.3c-4.7-3.2-9.8-6-14.6-9.1-10.7-7-21.4-14.1-32.2-21-8-5.1-16.2-10-24.2-15-3.5-2.2-6.7-4.7-10.1-7.1z"/><path d="m580.5 627.8 5.1-4.9c6.7 8.8 13.5 17.5 19.9 26.5 4.2 6 7.7 12.6 11.6 18.8 5.2 8.1 10.5 16 15.7 24.1a8.8 8.8 0 0 1 1.3 4.7c-6.1-8.3-12.1-16.8-18.5-24.9-7.8-9.8-16.1-19.3-24.2-28.9-3.7-4.4-7.3-8.9-10.8-13.4-.3-.4-.1-1.3-.1-2z"/><path d="m632.7 575.7 3.8-3.8 27.2 28.8-.7 1a12.8 12.8 0 0 1 -2.5-1.5l-21.5-18.2c-2.3-2-4.2-4.2-6.3-6.3z"/><path d="m266.8 952.7 2.2 1.2c.3.4.8.7.8 1.1.1 10.8.1 21.6.1 32.5h-1.5z"/><path d="m170 1040.1 4.2-3c-2 5.7-3.8 11.6-6.1 17.2a45.8 45.8 0 0 1 -7.4 12.4z"/><path d="m682.8 352.1-20.9-12.8-17.4-10.7-23.9-15.5a43.7 43.7 0 0 0 -9.3-4.3c2.5 2.5 5 4.9 7.3 7.5 5.7 6.7 14.1 9 21.3 13.3s13 6.3 18 11c9.1 8.7 20.8 13 30.6 20.2 12.5 9 24.7 18.5 36.8 28.1a262.3 262.3 0 0 1 20.2 17.8c7.1 6.8 13.7 14.2 20.4 21.4s14.9 16.2 22.2 24.4c2.5 2.8 4.8 5.8 7.1 8.7 8.5 11.4 17.1 22.6 25.3 34.2 5.4 7.7 10.1 15.8 15.1 23.7s10.1 16 14.9 24.1a50 50 0 0 1 5.5 12.8c-2.5-3.3-5.1-6.5-7.5-9.9-6.4-8.8-12.7-17.6-19.2-26.3-5-6.7-10.2-13.4-15.5-19.8-6.6-8-13.4-15.8-20.1-23.7-3.5-4.1-6.9-8.4-10.6-12.3-8.5-9-17.3-17.7-25.9-26.7-4.8-5-9.3-10.3-14.3-15.3s-9.8-9.1-14.8-13.6l-17.8-15.2c-7.9-6.8-15.7-13.8-23.9-20.4-12.1-9.8-24.5-19.3-36.8-28.9a7.6 7.6 0 0 0 -2.1-.8l-1.7 1.7c.8 6.5 1.5 13.1 2.4 19.6a4.3 4.3 0 0 0 2 2.6c5.6 3.2 11.2 6.2 16.8 9.2l6 3.5.6 2.1-21-5.3c4.6 9.3 8.7 17.7 13.1 26.1a98.1 98.1 0 0 0 6.6 10.6c1 1.5 2.7 2.6 3.9 4s4.2 1.5 1 3.8c-.2.1.3 1.6.7 2.3 3.6 6 7.1 11.9 10.8 17.8s7.3 11.4 11.2 16.9 9.7 13.7 14.7 20.5c3.4 4.8 6.9 9.5 10.4 14.1 6.6 8.6 13.1 17.3 19.8 25.8s13.3 16.2 20 24.3a9 9 0 0 1 1.6 3.9c-33.8-34.9-65.9-71-94.8-110.2 2.5 6.3 4.8 12.6 7.6 18.8s6.7 13.5 10.1 20.2c4.7 9.5 9.1 19 14.1 28.3s11.1 20 16.8 29.9 9.8 17.4 14.8 26c1.9 3.1 4.2 5.9 6.2 8.9a9.8 9.8 0 0 1 1.6 4.6c-6.7-8.9-13.6-17.7-20-26.8s-9.9-15.8-14.9-23.7c-8.2-12.8-16.7-25.4-24.7-38.3-3.6-5.8-6.3-12.1-9.8-17.9a13.2 13.2 0 0 0 -5.5-5c-7.8-3.6-15.8-6.9-23.6-10.4-3.3-1.4-6.5-3.1-11.1-5.3l2.3 14.5c.2.9 1 1.8.9 2.5-2.1 13.9 9.3 17.4 17.6 23.5s15 11.4 22.6 17.1l-.7.9-35.5-19-1 .9c.6 2.4 1.3 4.7 1.8 7.1 1.9 10.6 3.5 21.2 5.7 31.7.4 1.9 2.5 3.6 4.1 5 4.7 4.2 9.7 8.1 14.5 12.1a10.5 10.5 0 0 0 -.8 1.1l-15.9-9.7v5.6l-1-.2c-2.2-7.5-8.1-11-14.7-14.1-9.4-4.4-18.3-9.8-27.5-14.6-4-2.1-8.2-3.8-12.4-5.6l-35.9-15.3-30.5-12.8c-11.8-5-23.6-10-35.5-14.8-8.7-3.5-17.6-6.4-26.3-9.8-6.5-2.6-12.7-5.6-19.2-8.1s-11-3.7-16.4-5.7-8.6-3.6-12.9-5.5l-.6 1.2 2.6 3.7c-10.4-9.9-23.9-12.8-36.5-17.6a59.7 59.7 0 0 0 -11.8-3.6l12.5 22.2a6 6 0 0 1 .9 1.5c1.1 6.9 5.6 7.9 11.8 7.7a143.4 143.4 0 0 1 21.7 1c10.1 1.2 20.2 2.3 30 4.7 13.9 3.6 27.8 7.8 41.3 12.7a249.8 249.8 0 0 1 28.8 13.2c8.6 4.5 16.8 9.9 25 15.1s15.3 9.6 22.6 14.9 17.2 13 25.4 20q16.8 14.1 33 28.8c4.7 4.3 8.9 9.3 13.3 14l-3.8 3.7c-3.9-2.8-7.9-5.5-11.8-8.4-6.5-4.9-13-10-19.6-14.9-5.1-3.9-10.4-7.7-15.7-11.3s-10.6-7-16-10.4c-11.1-6.9-22.2-13.9-33.5-20.6-3.2-2-6.7-3.4-10.1-5.1-11.4-5.8-22.6-12-34.2-17.4-8.6-4.1-17.7-7.2-26.5-10.9s-16.9-7.3-25.5-10.4-16.5-5.3-24.8-7.8l-20.7-6.1a39.3 39.3 0 0 0 -4.8-.6c1.7 3.2 3.2 5.9 4.5 8.6 3.3 7 6.9 12.8 15.8 14.1 6.1 1 11.9 4.3 17.6 7.1 11.8 6 23.8 11.7 35 18.6a254.9 254.9 0 0 1 30.6 22c12.6 10.6 24.6 22 36.2 33.6 9.5 9.6 18.3 20 27.2 30.2 6.5 7.4 13 14.9 19.2 22.5 3.6 4.6 6.7 9.6 10 14.4l-5.1 4.9c-2.5-2.1-5.2-3.9-7.4-6.2-6.1-6.6-11.8-13.5-18-20s-13.4-13.2-20.1-19.9c-5.1-5-9.9-10.3-15.1-15.3s-10.2-9.3-15.3-13.9c-3.4-3.1-6.9-6.1-10.5-9.1-6.9-5.8-13.8-11.6-20.8-17.2q-13.4-10.7-27-21c-4.4-3.3-9-6.4-13.5-9.6-7.8-5.4-15.5-10.8-23.4-16.1-1.8-1.3-4.1-1.9-6.2-2.8l-.8.9 10.5 11.6c5.3 5.7 10.6 11.4 16.1 17s13.3 13.2 19.9 19.9c5.2 5.2 10.2 10.5 15.4 15.6s9.9 9.1 14.5 14c6.6 6.7 12.9 13.7 19.2 20.6s13.9 15.3 20.5 23.2 10.4 13.2 15.6 19.9 10.4 13.2 15.4 19.9c3.5 4.8 6.8 9.8 10 14.8 5 7.7 10.1 15.4 14.8 23.3s8 13.9 11.9 21 7.5 13.7 11 20.7a112.6 112.6 0 0 1 4.8 11.3 115.3 115.3 0 0 1 6.3 17.9c-4.7-8.1-9.1-16.5-14.1-24.4s-10.8-15.6-16.3-23.3-9.2-13.1-14-19.5c-6.3-8.5-12.9-16.7-19.3-25.1l-11-14.2c-5.4-6.7-10.9-13.2-16.3-19.8s-9.7-12-14.6-17.9l-18.6-22c-4.3-5.1-8.5-10.4-12.9-15.6s-9.9-11.7-14.8-17.4l-18.6-21.4c-5.6-6.5-11.4-12.9-17-19.4-1.2-1.4-2.2-3-4.1-4 1.6 4 3 8 4.8 11.9s4.3 9 6.8 13.3a29.2 29.2 0 0 0 5.4 7.6c7.4 7.1 15.3 13.6 22.5 20.8s10.7 12.1 15.8 18.3 10.8 12.9 15.8 19.7a143.5 143.5 0 0 1 9.7 14.7c7.2 12.8 14.6 25.6 21.2 38.8a211.6 211.6 0 0 1 10.9 27c5 15.1 9.8 30.3 13.9 45.7 3.5 13.2 6.1 26.6 8.5 40 2.1 11.8 3.4 23.7 4.9 35.6 1.2 10.2 2.3 20.4 3.4 30.5l-1.6.2c-1.6-7.9-2.8-15.9-4.7-23.7-3.2-12.9-6.8-25.6-10.3-38.4-1.9-6.8-3.5-13.6-5.8-20.3-3.7-11.2-7.9-22.2-11.9-33.3-1.7-4.9-3.3-9.8-5.3-14.6-4.1-9.7-8.4-19.3-12.6-28.9-3.1-7-6.1-14.1-9.6-21-5-9.8-10.5-19.4-15.7-29.1-3.9-7.3-7.6-14.9-11.9-22.1s-10.5-15.8-15.7-23.7-10.4-15.8-15.7-23.8a10 10 0 0 0 -1.5-1.3c0 1.4-.2 2.4.1 3q6.3 12.9 12.9 25.8c3.5 6.9 7.3 13.6 10.6 20.5s7 16.5 10.5 24.8c4.1 10 8.2 19.9 12.1 29.8 2.1 5.3 3.8 10.7 5.7 16 3.5 10 7.1 20 10.5 30.1a69.7 69.7 0 0 1 1.8 7.6c3.7 14.8 7.2 29.6 11.1 44.3 4.3 16.7 6.4 33.7 8.5 50.8a253.6 253.6 0 0 1 1.4 48.5 44.7 44.7 0 0 1 -3.3 13.3c-1.6-7.9-3.2-15.9-4.9-23.8-3.1-13.7-6.2-27.4-9.5-41-2.3-9.6-5-19.2-7.5-28.8-3.3-12.4-6.4-24.9-9.7-37.3-2.7-10-5.6-20-8.4-30-3.2-11.6-6.3-23.3-9.6-34.9-2.6-9.3-5.5-18.4-8.1-27.6-4.5-15.6-8.8-31.1-13.3-46.7-3-10.7-6.1-21.4-9.2-32-.8-2.9-1.9-5.7-3.2-9.4-1.3 3.3-2.3 6-3.4 8.7-8 20.6-5.3 41.9-4.1 63.1a401.5 401.5 0 0 0 4.8 40.8c2.5 15.8 5.5 31.4 8.8 47 2.7 12.2 5.8 24.3 9.2 36.2s7.3 20.7 9.8 31.3a138.4 138.4 0 0 0 8.6 24.9c.1.4-.3 1-.6 2.3-1.9-4.3-3.4-7.9-4.9-11.4-4.2-9.9-8.7-19.7-12.6-29.7-2.9-7.2-5-14.7-7.6-22.1-3.4-9.5-7.2-19-10.3-28.6s-5.1-17.9-7.4-27c-2.8-10.7-5.3-21.5-8-32.3a12.5 12.5 0 0 0 -1.7-2.3 27.4 27.4 0 0 0 -.5 2.8c0 26.8-.3 53.6.2 80.3.3 14.8 1.9 29.5 3.4 44.3 1.2 11.4 3.1 22.9 4.8 34.3a47.7 47.7 0 0 0 1.7 6.5l-1.4.4c-1.9-8.4-3.8-16.8-5.6-25.2-2.6-13.1-5.3-26.1-7.6-39.2-1.4-8.4-2.1-16.8-3.1-25.3-1.3-11.9-2.4-23.9-4.1-35.8a56.3 56.3 0 0 0 -4.2-16.1c-1.9-4.1-5.6-7.3-8.6-10.9l-19.1-23.4c-2 6.1-4.2 11.6-5.7 17.3-.4 1.7.7 4.2 1.7 5.9 3.6 6.1 7.6 12 11.2 18.1 5.3 9 10.5 18.2 15.6 27.4a66.3 66.3 0 0 1 4.3 9.4c2.2 5.5 4.3 11 6.4 16.5l-1.1.5c-2.6-3.9-5.2-7.9-7.9-11.7s-6.5-9.5-9.9-14.1c-5-6.7-10.2-13.3-15.3-20-3-3.8-6-7.5-9.1-11.2-1.7-2.1-2.8-1.1-3.5 1-1.7 5.8-3.9 11.6-5.1 17.6-.5 2.6.7 5.8 1.9 8.4 3 6.4 6.6 12.5 9.7 18.9 4.1 8.4 8.1 16.9 11.9 25.4a131.2 131.2 0 0 1 4.9 12.3 147 147 0 0 1 5.2 17.5c-10.8-22.9-24.1-44.2-38.7-66.5-2.1 7.7-4.5 13.9-5.1 20.3-.4 4.4 1.3 9.3 3 13.6 3.5 8.8 7.8 17.3 11.5 26s7.4 18.3 10.7 27.6a119.9 119.9 0 0 1 5.4 21.2c-2.8-6.6-5.3-13.3-8.4-19.7s-7.5-14.9-11.4-22.3-6.5-12.2-9.8-18.3a74.4 74.4 0 0 0 -4.4-7.8c-.5-.7-2.1-.6-3.5-.9.3-10-7.8-16.5-12.3-24.7a114.3 114.3 0 0 0 -10.8-16.8c-4.2-5.3-5.8-12.6-12.3-16a2 2 0 0 1 -.6-1.1c-1.4-7.7-7.9-12.3-11.4-18.7s-7.4-10.9-11.3-16.2-9.4-12.8-14.2-19.2c-3.7-4.9-7.6-9.7-11.4-14.5l-20.4-25.8-11.1-14.2a26.8 26.8 0 0 0 -2.5-2.8c-.6 4.7-1.2 8.7-1.7 13-.3-.6-.5-.8-.5-1 4-13.1-4.4-21.2-11.8-29.8-.8-.9-1.6-1.8-3-3.6-.6 4.2-1.1 7.5-1.7 10.9h-.4a44.2 44.2 0 0 1 .1-6.3c1.1-6.1-2.1-10-6.1-14.1-5.8-6-10.8-12.7-16-19.2-.7-.8-.7-2.3-.9-3.5l-1.8 1.8c1.5 11.6 2.9 23.2 4.4 34.7a4.7 4.7 0 0 0 1.1 2.5c7.7 7.8 15.7 15.3 23.4 23.2 4.9 5.1 9.4 10.7 14.1 16.1s10.5 11.7 15.4 17.8 10.5 13.2 15.7 20 10.4 13.4 15.3 20.4c3.7 5.1 7 10.6 10.4 15.9 5 7.7 10.1 15.3 14.9 23.1s7.6 13 11.3 19.6 7.6 13.8 11.3 20.7c1.8 3.3 3.5 6.7 5 10.2 3.6 8.2 7.2 16.4 10.6 24.7 4.1 9.9 8.4 19.7 12 29.8s6.7 21.9 10.1 32.8c.7 2.4 1.6 4.8 2.4 7.2l-1.1.6c-.5-.5-1.1-.9-1.3-1.4-3.6-8.9-6.8-18-10.7-26.7-4.7-10.3-10.1-20.4-15.2-30.6s-9.4-18.7-14.5-27.9-10.4-17-15.5-25.5c-3.6-6-6.7-12.2-10.4-18.1-5.2-8.3-10.7-16.3-16-24.5-3.3-5-6.2-10.3-9.6-15.2-8.4-12.5-17.1-24.7-25.6-37.1-5.1-7.4-10-14.9-15.3-22.2-7.8-10.7-15.8-21.1-23.6-31.7-3.5-4.7-6.7-9.6-10.1-14.4l-3.1-3.6c0 2.9-.2 4.6 0 6.4 1.1 9.3 2.8 18.5 3.2 27.9.1 5.1 2.7 7.5 6.1 10 8.9 6.7 18.4 12.8 26.4 20.4s16.4 17.8 24 27.2 13.2 17.4 19.2 26.5a163.1 163.1 0 0 1 10.9 20.1c7 14.5 13.8 29.2 20.3 43.9a122.6 122.6 0 0 1 5.2 15.1c3.7 11.8 7.5 23.6 10.8 35.5s6.5 24.5 9.2 36.8c3.1 14.2 5.8 28.5 8.5 42.7 1.6 8.5 2.9 17.1 4.3 25.6l-1.3.2c-1.9-9.1-3.6-18.3-6-27.3-3.5-13-7.4-25.9-11.6-38.8s-9.1-28.1-14.2-41.9c-3.8-10.4-8.1-20.5-12.6-30.6s-10.3-21.4-15.5-32.1c-3.2-6.4-6.1-12.9-9.7-19-8.3-14.1-16.9-28.1-25.6-42-4.9-7.8-9.8-15.6-15.2-23s-10.5-13.1-15.9-19.5a177.6 177.6 0 0 0 -15.4-17c.5 7.4.3 15 1.8 22.2.8 3.8 4.7 6.8 7 10.3 3.5 5.5 6.9 11.1 10.3 16.7l-4.3 4c-2.5-4.3-5.1-8.6-7.5-13s-3.2-6.5-5.4-11.1c-.4 11.4.2 21.1 4.1 30.4a7.8 7.8 0 0 1 .2 2.6l-1.4 1.3-2.1 2.3h.1c-.6-1.2-1.5-2.3-1.6-3.5-.5-7.6-.8-15.3-1.7-23.1-49.5 57.9-93.7 119.4-131.1 185.8l-1.2-.6 14.7-29.1c5.1-10.2 10.1-20.5 15.3-30.6s10.5-19.7 15.8-29.6l-1.1-.7c-9.1 13.6-18.7 26.8-27.3 40.7s-16.3 28.8-25 43c3-7.9 6-15.7 9.1-23.6 1.6-4 3.4-8 5.1-12 3.5-8.1 6.7-16.2 10.5-24.1s7.1-12.5 10.7-18.8 6.8-12.5 10.6-18.4c6.7-10.4 13.5-20.6 20.7-30.7s14.8-20.1 22.5-29.9 14.5-17.3 22.1-25.6 15.9-17.2 24.2-25.5c3.4-3.5 1.4-7.3 1.1-10.8-.4-6.5-1.8-12.9-3-20.4-7.8 8.3-15.2 16.2-22.5 24.2-5.6 6.1-11.2 12.2-16.4 18.6s-10 13.6-14.9 20.4-9 13.1-13.5 19.7c-3.2 4.7-6.7 9.3-9.6 14.2-6.6 10.9-13.1 22-19.3 33.2s-11.3 20.3-16.6 30.6c-3.9 7.4-7.3 15.1-10.9 22.7a269.7 269.7 0 0 1 -13.3 25.6c2.4-7.2 4.9-14.5 7.4-21.7.5-1.4 1.3-2.7 1.8-4.1 4.1-10.4 8.1-20.9 12.2-31.3 2-5.2 3.7-10.6 6-15.7 3.7-8.5 7.7-16.7 11.6-25.1 2-4.3 3.6-8.8 5.8-13 5.3-10.2 10.9-20.3 16.5-30.4 3.4-6.1 7-12 10.5-18l23.5-26.9c11.3-13 25.8-21.4 42-28.7-1.8-12.7-3.6-25.5-5.4-38.5-1 .5-2 .7-2.3 1.3l-14 23.1c-5.1 8.5-10.2 17.1-15.5 25.5s-11.5 17.3-17.3 25.9c-1.5 2.3-3.5 4.4-5 6.7s-4.3 7.5-6.4 11.3c-4.1 5.7-8.3 11.3-12.2 17.2-5.8 8.4-11.5 17-17 25.6-3.7 5.9-6.8 12.1-10.3 18-5 8.6-10.3 17-15.2 25.6-2.6 4.6-4.7 9.5-7.1 14.2a56.5 56.5 0 0 1 -6.2 10.6c1.1-4.3 1.9-8.7 3.3-12.8 2.3-6.7 4.7-13.4 7.5-20 3.7-8.7 7.7-17.3 11.6-25.9 3.2-6.8 6.2-13.5 9.8-20.1 5.4-10 11-19.9 17-29.7s11.3-18 17.5-26.7c9-12.8 18.1-25.6 27.9-37.8 7.6-9.7 16.3-18.6 24.6-27.7 3.8-4.2 7.9-8 6.8-14.8s-1.9-16.4-2.9-25.3c-7.5 6.3-9.7 13.9-11.1 22v-7.9c-20.8 27.5-39.9 54.6-57 83s-33.6 57.7-50.4 86.8c2.9-7.3 5.6-14.5 8.6-21.5 1.5-3.6 3.5-7 5-10.5 3.8-8.7 7-17.5 11.1-26 6.3-13 12.9-25.8 19.7-38.6q6.4-12.4 14.1-24.3c8.9-13 17.7-26.2 29.1-37.4 6.2-6.1 11.7-13 18.1-18.9 4-3.8 2.4-8.7 3.8-12.9s.9-9.7.4-15.1l-3.6 4.1c-8.9 11.1-18.1 22-26.6 33.4-6.3 8.5-12 17.4-17.6 26.3-7.4 11.9-14.6 23.9-21.5 36-4.8 8.3-9.1 16.7-13.6 25.1-6.4 12.3-12.9 24.6-19.2 37-3.7 7.3-6.9 14.8-10.4 22.1s-5.5 11.7-8.3 17.6l-1.5-.6 43.9-107.7c-20.2 34.9-35.9 72-50.6 109.5l-1.3-.5c2.5-8.1 5-16.1 7.4-24.3.8-2.5 1.1-5.1 1.9-7.6 3.7-11.4 7.6-22.7 11.5-34.1 1.7-5 3.2-10.1 5.1-15.1 3.5-9.3 6.6-18.8 10.8-27.8 6.9-14.9 13.9-29.8 22.1-44a191.1 191.1 0 0 1 21.3-30.7c8.7-10.2 18.7-19.3 28.7-28.4 5.3-4.8 11.8-8.4 17.5-12.9a6.2 6.2 0 0 0 1.8-4.8q-2.4-12.9-6-25.5c-7.2 12.7-19.1 22.5-21.8 38.3-.5-1.3-.9-2.2-1.5-3.6-2 2.9-3.8 5.2-5.4 7.7-8.1 13-16.3 26-24.2 39.1-8.8 14.6-17.3 29.4-25.9 44.1-6.6 11.5-13.3 22.9-19.5 34.5s-10.4 20.9-15.6 31.3-10.8 21.1-16.1 31.7c-1.4 2.6-2.5 5.4-4.7 7.7 2-5.5 3.8-11 5.9-16.4s4.5-10.2 6.5-15.4c4.9-12.3 9.4-24.7 14.5-36.9 4.3-10.7 9-21.3 13.8-31.7s10-20.4 15.2-30.4 9.1-17.8 14.4-26.3c6.2-10.1 13-19.8 19.8-29.5 4.3-6.1 9.1-11.9 13.7-17.9a3.3 3.3 0 0 0 .4-1.7c.2-5.7.4-11.5.5-17.2 0-.8-.5-1.6-1.1-3.2-2.4 3.6-4.4 6.5-6.2 9.5-4.7 8-9.2 16.1-14 24s-10.7 16.9-15.9 25.4c-2.6 4.3-4.6 8.9-7.1 13.3-5.2 9.4-10.5 18.7-15.7 28-3.3 6.1-6.5 12.3-9.7 18.5-5.6 10.5-11.2 20.9-16.6 31.5-1.8 3.5-3.2 7.1-4.9 10.7-5.1 11.1-10.2 22.3-15.4 33.4a25.4 25.4 0 0 1 -3.6 5.4 43.7 43.7 0 0 1 1.7-6.2c3.1-8.5 6.2-16.9 9.4-25.2 4.3-11.3 8.4-22.7 13-33.9 7.1-17.2 14.4-34.4 22.1-51.3 5.2-11.4 10.7-22.5 16.8-33.3s12.5-20 18.9-29.8c5.1-7.7 10.3-15.2 15.7-22.6 3.6-4.8 7.7-9.1 11.5-13.8a6 6 0 0 0 1.2-3.2c.1-7.1.1-14.2-.5-21.7-6.1 10.7-17.3 18.4-18.8 32.8l-1.2-4.3a71.1 71.1 0 0 0 -4.9 6c-6.5 10.4-12.9 20.9-19.4 31.4l-17.1 28-20.6 34.9c-5.5 9.6-10.9 19.2-16.2 28.9-3.8 7.1-7.3 14.5-11 21.6s-8.4 16.4-12.7 24.6v-3.7c1.3-2.7 2.8-5.3 3.9-8 2.3-5.6 4.3-11.4 6.6-17 3.8-9.2 7.8-18.4 11.7-27.6l13.8-31.7c1.7-3.9 3.4-7.8 5.4-11.6 5-10 10.2-19.9 15.4-29.8 3.4-6.4 6.5-12.9 10.3-19 5.2-8 10.8-15.8 16.5-23.5s10.9-14 16.2-21.1a13.7 13.7 0 0 0 2.5-5.8c.8-5.1 1.2-10.3 1.7-15.5.1-1.1-.3-2.2-.6-4.7-1.7 2.6-2.6 4-3.4 5.4-3.2 5.3-6.2 10.6-9.5 15.8s-8.6 12.9-12.5 19.6-9.2 16.6-13.9 24.8-10.6 18.5-15.7 27.8c-3.5 6.4-6.7 13-10 19.4-5.6 10.5-11.3 20.9-16.7 31.5-4.5 8.7-8.7 17.6-13.1 26.4-2.8 5.6-5.7 11.2-8.6 16.7v-7.4c2.5-5.8 5.2-11.6 7.5-17.5 4.4-11.2 8.5-22.4 13-33.5 6.6-16.3 13.5-32.6 20.3-48.8a73.6 73.6 0 0 1 4.2-9c4-7.5 8-14.9 12.2-22.2s7.7-12.8 11.5-19.3c1.9-3.3 5-6.7 5.3-10.3.8-8 .3-16.2.3-24.9-1.1 1.6-2.2 2.9-3.1 4.4-4.1 6.8-8.2 13.6-12.2 20.5-1.8 3.3-4.1 6.5-4.9 10-1.2 5.2-1.3 10.6-1.8 15.9h.3c-.2-3.3-.4-6.7-.7-10.2-1.1.2-2 .1-2.2.4-4.8 8-9.5 16.1-14.2 24.1-3.4 5.9-6.6 11.9-10.1 17.7-5.9 10-11.7 20-17.8 29.8-2.3 3.7-5 7.1-7.6 10.6v-20.3a48.2 48.2 0 0 0 3.1-7c2.6-8.7 4.7-17.4 7.3-26.1 1.4-4.7 3.7-9.2 5.2-14s3-10.5 4.4-15.7c-4 7.8-7.4 15.9-10.7 24l-9.3 23v-23.2a48.4 48.4 0 0 0 3.4-7.3c2.4-7.8 4.5-15.8 6.7-23.7a20 20 0 0 1 1-2.1c1.5-4.7 4.2-9.4 4.3-14.2s-2.1-12.2-3.3-18.6a43.1 43.1 0 0 0 -2.6 4.7l-9.5 24v-26c5.3-7.7 2.8-15.5 0-23.2v-197.8c3-5.6 5.9-11.2 8.9-16.7s4.3-8.3 6.8-12.2 3.4-9.8-.1-14.9c-1-1.4-1.9-3-3-4.4l-5.8-7.7-6.8 15v-39c1.2-.7 2.7-1.3 3.4-2.3l20.5-30.6c2.3-3.4 5-6.7 7.6-10l-1.1-1c-.8.4-1.9.6-2.4 1.3-4.9 6.2-9.6 12.6-14.4 18.9s-9.1 11.5-13.6 17.2v-11.1c5.9-10.7 11.9-21.3 17.7-32a3.1 3.1 0 0 0 -.4-3.1c-5.7-3.6-11.5-7-17.3-10.4v-7.4c3.7 1.6 7.5 3 11 4.8s7.8 4.4 12.2 6.9c3.5-4.8 7.2-10 11.1-15s8.1-9.6 12.1-14.4h19.5a15.2 15.2 0 0 1 -1.8 3.6c-8.5 10-16.5 20.4-25.7 29.6-4.6 4.6-1.4 4.9 1.5 6.6s8.6 5.5 13.1 8.3c4.7-10.3 8.9-20.2 13.6-29.7 3.1-6.3 7-12.3 10.5-18.4h14.8l-12 16.7c-4.7 6.4-9.3 12.9-13.8 19.4a74.9 74.9 0 0 0 -4.2 7.2c2.1-.8 3-2.5 4.4-3.7 10.7-9.3 21.6-18.5 32.2-27.9 3.4-3.1 9.5-4.9 7.4-11.7h90.1l-8 8.9c1.5.4 2 .7 2.4.6 6.8-2.1 13.6-4.3 20.3-6.7.9-.3 1.3-1.8 2-2.8h36.2l-11.2 23.5a7.3 7.3 0 0 0 2.4-.7c5.9-4 11.7-8.3 17.9-12.1 4.4-2.8 9.5-4.5 10.4-10.7h36.2c-6.2 4.2-12.5 8.2-18.5 12.6s-9.5 6.9-13.3 11.2-6.7 9.7-9.8 14.8-2.2 8.1 3.8 9.3c1.8.3 4.1-.6 5.9-1.6 4.8-2.5 9.2-5.6 14.1-8.1s10.7-6.7 11.4-14a6.9 6.9 0 0 1 1-2.5l11-21.7h23.2c-2.4 3.2-4.9 6.4-7.3 9.7s-5 7.2-8.1 11.4a15.9 15.9 0 0 0 3.9-.8l23.8-12.2c4.9-2.6 9.7-5.4 14.6-8.1h34.4c-.4.9-.5 1.9-1.2 2.5l-16.3 14.1c-9.9 8.5-19.8 17-29.6 25.6s-17.9 16.2-26.8 24.4l.4 1c7.4-3 15.2-5.1 22-9.1s11.1-9.6 17-14c10-7.3 20-14.9 30.8-21.1s22-10.6 33.1-15.7c5.9-2.7 12-5.1 17.9-7.7h73.4c-6.7 1.8-13.4 3.5-20 5.5-12 3.8-24 7.6-35.9 11.8s-25.4 9.2-37.9 14.3c-8.1 3.3-15.8 7.5-23.6 11.4-.2.1-.3.4-.9 1.3 8.6-1.7 16.7-3.5 24.9-4.7 16.9-2.3 33.9-4.5 50.9-6.2 15.2-1.6 30.4-2.3 45.6-3.7 13.4-1.3 26.9-2.7 40.3-4.9 25.4-4 51.1-2.9 76.7-3.6 15-.4 30 0 46 0-9.3.7-17.7 1.1-26 2-14.3 1.5-28.7 3.1-43.1 4.9-7.6.9-15.1 2.2-22.7 3.6-16.1 3-32.2 6-48.3 9.4-11.3 2.3-22.5 5.3-33.7 8.2s-21.9 5.8-32.8 8.9c-4.9 1.4-9.7 3.1-14.6 4.6a10.3 10.3 0 0 1 .4 1.4c7.5-1.8 15-4.1 22.6-5.3a210 210 0 0 1 24.9-2.5 168.5 168.5 0 0 1 24.6.7c-10 3.3-20 6.3-29.9 9.8s-20.9 7.8-31.4 11.9l-40.2 15.7c-6.4 2.4-13 4.6-19.3 7.2-9.1 3.7-18 7.7-27 11.5-2.4 1-4.9 1.7-7.6 2.7 2.9 3.9 6.3 4.8 10.5 2.9l29.4-12.7c3.9-1.7 8-3.1 12-4.5l17.3-5.8c10.3-3.7 20.4-7.6 30.7-11.1 6-2 12-3.6 18.1-5.1 9.1-2.2 18.3-4 27.4-6.3a322.6 322.6 0 0 1 53.4-9.3c13.5-1.2 27-2.7 40.5-3.7 11.2-.9 22.5-2 33.7-1.6a378.6 378.6 0 0 1 46.3 4.9c-1.3.1-2.5.4-3.8.4-17.6 1-35.2 1.6-52.8 3.1-10.4.8-20.7 2.9-31 4.6-6.7 1-13.3 2.4-19.9 3.6s-15.6 2.9-23.4 4.6c-14.5 3-29 6.2-43.5 9.4a39.9 39.9 0 0 0 -8.9 3.4l20.9-2.3c2-.3 3.9-1.1 5.9-1.1 17.7-.1 35.5-.5 53.3.1 11.8.4 23.6 2.2 35.4 3.7 9.3 1.1 18.6 2.6 27.8 4.4 14 2.6 27.9 5.3 41.8 8.5 11.6 2.7 23 6 34.5 9.1a19.9 19.9 0 0 1 5.6 2.9c-3.5-.3-7-.6-10.5-1.1-9.6-1.4-19.2-3-28.7-4.3-37.6-5.4-75.4-5.5-113.3-4.7-16.3.4-32.7 1.5-49.1 2.9-10.8.9-21.6 2.8-32.4 4.5-7.1 1.2-14.2 2.4-21.1 4.2-15.2 3.7-30.4 7.7-45.4 11.9-8.8 2.5-17.3 5.8-27.1 9.1 2.5 1.2 3.9 2.4 5.3 2.4 16.5.1 33 .7 49.5-.1 11.6-.6 23.1-3 34.7-4.6l29.2-3.7c45.9-5.9 91.9-5 137.9-3.4a274.9 274.9 0 0 1 28.7 2.1c14.3 2.1 28.4 4.6 42.5 7.6 10.1 2.1 19.9 5.3 29.7 8.3-83.1-1.7-166.1-.5-249.1.6a5.1 5.1 0 0 0 -.2 1.3c5.9 1 11.9 1.8 17.8 3.1 8.8 1.8 17.5 4 26.3 6a8.8 8.8 0 0 0 2.8.2l73.6-1.9h1.4c24 1.7 48.1 2.8 72 5.3 15.4 1.7 30.6 5 45.7 8.3 9 2 17.7 5.4 26.5 8.2a5.1 5.1 0 0 1 2.3 1.5c-28.7-1.1-58.3-2.5-87.9-3.3q-69-1.8-138.1-2.9c-32.3-.6-64.6-.5-97-.8h-6.5c3.2 3 5.4 5.4 7.9 7.5a146.9 146.9 0 0 0 11.8 9 12 12 0 0 0 6.9 1.6c21.9-1.8 43.9-4.5 65.9-5.5 37.8-1.8 75.8-1.7 113.6 1.8 14.2 1.3 28.5 2.9 42.6 5.1s27 5.2 40.3 8.4c9.7 2.2 19.2 5.1 28.6 8.1a251.6 251.6 0 0 1 29.3 11 19.3 19.3 0 0 1 -3.4.1c-6.3-1.4-12.4-3.3-18.7-4.4-10.7-1.8-21.5-3.3-32.3-4.9-9.1-1.3-18.2-2.7-27.3-3.6-19.6-1.8-39.3-3.6-59-4.7-32.8-1.9-65.7-3.2-98.6-4.7l-51.2-2.6a16.7 16.7 0 0 0 -6.6.8c9.4 1.4 18.9 2.5 28.2 4.2 11.4 2.1 22.7 4.6 34.1 6.8a40.3 40.3 0 0 0 6 .4c18.9.6 37.8.8 56.6 2 15.4.9 30.7 2.8 45.9 4.6 9.5 1.1 18.9 2.6 28.3 4.4 13.1 2.6 26.3 5.3 39.3 8.5a305.5 305.5 0 0 1 29.7 8.6c14.4 4.9 28.6 10.5 42.9 15.9-.2.5-.3 1-.5 1.5l-8.6-2.1c-3.6-.9-7.2-2.3-10.9-3-10.4-2.2-20.8-3.8-31.1-6.2-18-4.2-36.2-6.6-54.5-8.5-12.9-1.3-25.6-3.1-38.5-4.6-11.1-1.3-22.2-2.6-33.4-3.6-17.8-1.7-35.6-3.2-53.5-4.8l-50.1-4.6c-8.7-.9-17.4-1.9-26.1-2.7a33 33 0 0 0 -4.8-.1l9.8 8.5c4.4 3.9 8.6 7.9 13.2 11.5a11.4 11.4 0 0 0 6.4 1.7c9.4.2 18.9 0 28.3 0a33.1 33.1 0 0 1 5.5.7l6.7 6.9a108 108 0 0 1 -11.3-.5c-8.3-1-16.6-2.4-24.9-3.7l-4.7-.7c4.7 4.5 7.8 8.9 14.1 9.9 11.8 1.7 23.5 4.1 35.2 6.4 2.1.4 4.1 1.9 6.1 2.9l8.9 8.7-14.9.4h-18.2c8.1 5.4 12.2 14.1 23.2 14.6s20.6 3.9 30.9 6.2c7.5 1.7 15.2 3.2 22.5 5.6 9.9 3.3 19.6 7.3 29.4 11.1 3.4 1.3 6.6 2.9 9.9 4.5 9.7 4.6 19.4 9 29 13.9 7.2 3.6 14.2 7.8 21.3 11.8s11.6 6.6 17.2 10.2c10.6 6.8 21.2 13.8 31.7 20.8 7.2 4.8 14.5 9.6 21.5 14.7 9.1 6.6 17.9 13.6 26.9 20.4 6.7 5.1 13.4 10.2 20 15.4 2.9 2.3 5.6 4.8 8.5 7.2l-.8 1c-6-4.1-11.9-8.3-17.9-12.3s-10.9-7.1-16.4-10.6c-7.3-4.7-14.5-9.6-21.8-14.2s-17.6-10.8-26.4-16.1c-11.4-6.7-22.8-13.5-34.3-20.1-6.3-3.5-12.9-6.5-19.3-9.8-10.6-5.5-21.1-11.2-31.8-16.3-8.1-3.9-16.5-7.1-24.8-10.6s-18-7.9-27-11.7c-3.4-1.4-6.7-2.8-10.1-4l-32.1-10.9c-2.8-.9-5.5-2.1-8.7-3.4 4.2 4.4 7.6 8.6 11.5 12 2.4 2.1 5.6 3.1 8.4 4.4 9.9 4.7 19.9 9 29.6 14s17 9.8 25.5 14.6c4.6 4.6 9.2 9 13.6 13.6 2.5 2.6 4.7 5.5 7 8.2zm-397.1-31.7c.6.8 1.1 2.1 1.8 2.4s3.2.6 3.7 0a41 41 0 0 0 4.9-7.6 3.5 3.5 0 0 0 -.2-3.3c-4.1-5.7-8.4-11.4-12.6-16.9-3.6 3.5-4.2 7.4-2.4 11.8s2.9 8 4.4 12l-8.9-12.1c-.7 3.6-2.4 7.9-1.4 8.8 3 2.3 7.1 3.3 10.7 4.9zm142.6 67.1c-3-7.1-10.3-6.9-16.3-9.2.8 3.5 1.5 6.8 2.2 10.1-1.4-3-2.7-6-4.2-8.9a5.5 5.5 0 0 0 -2.7-2.5l-25.3-7.4c-10.9-3-21.8-5.8-32.7-8.6l-8.1-1.8-.6 1.2c4.2 3.2 9 5.8 12.4 9.7a39.3 39.3 0 0 0 24.1 14.2l34.5 6.2c1.8.4 3.1.3 2.6-2.1 3.6 4.4 9 4.4 14.5 5.8l-.7-3.9c1.1 3.7 3.7 5.2 7.4 5.3.6 0 1.2.8 1.9 1l21 5 1-.7c-2.3-3.8-3.7-8.9-7.1-11.1s-10.1-3.1-15.3-4.6c-3-.8-6-1.8-9.8-3zm-176.6 209.9c-.5-.6-1.4-1.3-1.3-1.9.6-5.1-1.6-8.6-5.8-11.2-2 10-1.6 11.5 4.9 18.8.7-1.9 1.5-3.8 2.2-5.8a8.6 8.6 0 0 1 .5 2.7c-1.3 6.2 2.3 9.8 6 14 5.9 6.4 11.2 13.5 16.7 20.4 2.4 2.9 4.7 5.9 7.8 9.9 0-5 .2-8.8-.1-12.6a10.9 10.9 0 0 0 -2.1-5.5c-4.2-5.6-8.5-11-13-16.4s-9-10.2-13.5-15.3zm125-207.1a2.9 2.9 0 0 0 -.2.9c1.8 2.2 3.5 4.5 5.5 6.5 5.2 5.2 10.7 10.1 15.6 15.6 3.4 3.9 6.6 7.3 12.3 8.1s11.6 2.6 17.3 4.3c14.1 4.1 28.2 8.4 42.3 12.7 6.1 1.9 12.3 3.6 18.3 5.8 9.8 3.7 19.4 7.7 29.1 11.5 5.1 2 10.4 3.6 15.4 5.9 9 3.9 17.8 8.1 26.7 12.3 4.4 2.1 8.8 4.5 13.2 6.8l18.9 9.8a15.8 15.8 0 0 0 -1.1-3.7c-4-7.7-9.1-15.1-11.8-23.3s-12-6.6-17.5-10.4l3.6 9.4c-4.5-5.5-7.3-12.1-15-14.5-12.1-3.7-24-8.3-36.1-12.4-9.9-3.5-19.9-7-29.9-10.2l-47.4-15c-.4-.2-.9-.1-1.4-.3l-33-11.4-7.8-2.6zm102.3-351.9c-.1-.6-.3-1.1-.4-1.7l-7.5 2.4c-12.6 3.1-25.2 6-37.7 9.2-7.7 1.9-15.4 3.9-22.9 6.5-14 4.8-28 9.9-41.8 15-9 3.4-17.8 6.9-26.6 10.6-4 1.6-7.7 3.9-12.1 6.1l20.1 13.3c6.1-4.3 12.1-8.6 18.3-12.7s10.1-6.5 15.4-9.4c11.6-6.5 23.3-13.1 35.2-19.1a174 174 0 0 1 21-8.5c10.8-3.6 21.7-6.8 32.5-10.2zm-75.2 325c-1.8-4.4-3.6-8-4.6-11.7s-3.2-4.7-6.5-5.2-6.1-1.1-9.1-1.7l-15.3-3.8-.2 5c-1.9-3.9-3.5-7.7-9.5-6.9l4 8.7a11.6 11.6 0 0 1 -4.2-6c-.7-3.2-2.7-4-5.4-4.6-6.9-1.4-13.7-3-20.6-4.6l-14.7-3.7a17 17 0 0 0 1 3.2c3.4 5.6 6.3 11.5 10.5 16.4 1.8 2.1 2.2 6 6.9 6.3 14.7 1.2 29.3 3.1 44 4.9 7.5 1 15 2.3 23.7 3.7zm.3 257.3c1.7-8.3 3.3-15.8 4.9-23.4 2.3-11.4 4.8-22.7 7-34.2a9.6 9.6 0 0 0 -1.8-6.2c-2.2-3.1-5-5.9-8.3-9.7-3.1 8.9-5.6 16.3-8.2 23.6s-4.6 12.6-6.9 18.8c-1 3-1.6 5.8.4 8.8s4.9 8.3 7.3 12.5zm-105.8-322.4-1.3 1.1c5.8 8.4 11.5 16.9 17.3 25.2a4.2 4.2 0 0 0 2.8 1.1c9.2 1 18.4 1.8 27.6 2.6 2.5.2 5 .1 7.4.1-2.6-6-5.3-11.4-7.4-17-1.1-3.3-3.2-4.5-6.3-5l-12.1-1.8 1.2 6.5c-2.3-3.2-3.6-7.2-5.9-7.9-7.6-2.3-15.5-3.4-23.3-4.9zm329.3 107.2c.9 7.7 2.4 14.2 2.2 20.6-.3 8 4.1 11.9 10.3 15.3 9.7 5.4 19.1 11.3 29.9 17.7-2.1-3.6-4-6.1-5.2-8.9-4.9-10.7-9.5-21.6-14.4-32.3-1.1-2.5-2.4-5.9-4.5-6.8-5.5-2.3-11.5-3.6-18.3-5.6zm-520.5-75.8-.6-.4-5.7 10.3c-3.9 7-8.3 13.7-11.6 20.9s-7.7 11.1-7.5 18.4c.1 3.1-1.3 6.2-1.7 9.4-1 6.4-1.7 12.8-2.6 20l1.9-1.3c8-10 15.9-20 23.8-30.1a4.9 4.9 0 0 0 .6-1.7c1.1-15.1 2.3-30.3 3.4-45.5zm294.7 337.4h1.6c0-12.7 0-25.3-.1-37.9a4.8 4.8 0 0 0 -.7-2.6c-3.8-5.8-7.7-11.4-11.5-17.1l-4.3-6.1c-2.5 7.5-4.5 14.2-7 20.7-1.5 3.7-.8 6.8 1.1 9.9.7 1.1 2.1 1.8 2.7 3 6.1 9.9 12.2 20 18.2 30.1zm-362.7-537.9 1.2.7c4.2-4.9 8.2-9.9 12.7-14.5 9.2-9.4 18.7-18.5 27.9-27.9.7-.7.6-3.4-.1-4-4-3.6-8.3-7-12.5-10.4-1.6-1.3-3.4-2.8-5.1.3s-4 5.2-5.2 8.2c-4 9.5-7.7 19.1-11.5 28.7-2.5 6.3-5 12.6-7.4 18.9zm326.6 325.5c-4.6 9.6-8.9 18.4-13 27.3a5.4 5.4 0 0 0 .9 4.6c3.8 4 8.2 7.5 12 11.5 2.3 2.5 3.2 2.3 4.7-.8s5.1-8.6 7.4-13 4.7-9.8 7-14.7zm-331.6-406.4c-4.8 10.5-9.2 20.4-13.7 30.3-2.2 4.9-4.6 9.6-6.8 14.4-1.3 3-3.7 6.3-3.3 9.1s3.7 5.8 6.2 9.3c2.2-4.4 3.8-8 5.7-11.5 2.9-5.2 5.7-10.6 9-15.5 5.1-7.6 10.7-14.9 15.9-22.4.7-1.1 1.2-3.5.7-3.9-4.3-3.3-8.7-6.3-13.7-9.8zm-21.4 182.7 1.5.3c5.5-8.8 10.9-17.6 16.6-26.3 4.4-6.7 8.9-13.5 14.2-19.5 3.3-3.7 2.6-6.4.5-9.7-.6-1-1.4-1.9-2-2.9-2.9-5-5.8-10-9.4-16zm464.3-129.2v-.6l-2.7.4c-8 2.2-16 4.7-24 6.8s-13.3 3.2-19.9 4.7l-27.9 6.3-15.8 4a28 28 0 0 0 2.8 3.1c4.7 3.3 9.2 6.8 14.2 9.7a7.2 7.2 0 0 0 6.1-.2 180.8 180.8 0 0 0 15.6-10.1c10.2-7.5 21.7-12.3 33.4-16.7 6.1-2.4 12.1-4.9 18.2-7.4zm-74 384.1-.8.8c-4 8.8-8.1 17.6-11.6 26.6-1.5 3.6-4 7.6-.3 11.5l12 12.7c1.6-3 3.1-6 4.8-9s4.6-8 6.8-12.1 3.1-6 .9-9.8c-3.7-6.3-6.7-13-10.1-19.5-.3-.6-1.2-.8-1.7-1.2zm-350.6-191.3-1-.4c-2.9 6.1-5.8 12.1-8.6 18.3-3.4 7.8-5.9 16.1-10.1 23.4-5.6 9.6-7.3 20.2-9.9 30.6-1.9 8-3.1 16.2-4.6 24.4a21.6 21.6 0 0 0 0 4.4l1.4-.5c4.9-13 9.8-26 14.9-38.8 2.1-5.1 5.1-9.9 7.5-14.9s5.4-9.2 6.3-14.1c2-10.7 2.8-21.6 4.1-32.4zm329.8 287.6c1.6-4.5 2.5-8 4-11.3 4-8.6 8.2-17 12.4-25.5 1.5-3.2-.3-5.1-2.4-7s-5.2-4.8-7.9-7.1a27.1 27.1 0 0 0 -3.7-2.1c-1.8 4.4-3.4 8.1-5 11.9-2.2 5.5-4.6 10.8-6.4 16.4-.9 2.7-1.9 6.3-.9 8.6 2.5 5.3 6.1 10.1 9.9 16.1zm-334.5-421.8c2.8-2.6 5.3-4.4 7.2-6.7a47.9 47.9 0 0 0 6.4-9.7c1.8-3.7 2.7-7.7 4.2-11.6s3.7-8.9 5.7-13.4c1-2.4 2.2-4.8 3.3-7.2l-1.2-.7-37.6 29.4zm293.1 259.8c4-6.5 8-12.4 11.4-18.7a7.1 7.1 0 0 0 -.1-5.9 126.1 126.1 0 0 0 -8-12.5c-1.7-2.5-3.7-4.8-5.8-7.5a10.9 10.9 0 0 0 -1.3 1.7c-4.1 8.9-8.3 17.7-12.2 26.7-.4.9.3 2.9 1.1 3.6 4.8 4.3 9.8 8.3 14.9 12.6zm-276.4-210.4h-2.1c-2.9 6.3-6.9 12.3-8.6 18.9-4.3 16.4-7.6 33.1-11.4 49.6-.6 2.8-1.5 5.5-2.3 8.3 1.6 0 2.2-.5 2.5-1 2.8-4.5 5.4-9.1 8.3-13.5 3.8-6 7.5-12 8.9-19.1 2.2-10.8 4.6-21.6 6.3-32.5.5-3.4-1-7.1-1.6-10.7zm257.1 250.4 13.2-27.5c-4.6-3.3-9.4-6.9-14.4-10.2-2-1.4-3.4-1-4.3 1.8-2.2 6.9-4 14.2-7.5 20.5-2.5 4.4-.9 5.4 2.3 7.4s7.1 5.3 10.7 8zm-182.5-450.6c-1.6 1.5-2.3 2.1-3 2.9-4.3 4.7-8.7 9.3-12.7 14.2s-11.1 9.9-8.4 18.6c.9 3 1.5 6 2.3 9.6 4.4-2.9 8.5-5.3 12.4-8.2 2.1-1.5 5.1-3.4 5.4-5.6 1.7-9.9 2.6-20 4-31.5zm206.5 487.7c-2.7 6.1-5.2 11.7-7.6 17.4-.3.8-.7 2.1-.3 2.6 4.6 6.3 9.3 12.4 14.2 18.8a8.6 8.6 0 0 0 1.4-1.8c3-6.5 6.1-13.1 8.8-19.7.6-1.6.8-4.5-.2-5.2-5.1-4.2-10.6-8-16.3-12.1zm222.9-202.2c2.8-12.6 2.5-23.6-9.8-30.5a91.7 91.7 0 0 0 -8.7-3.6c-.8 8-1.5 14.6-2.3 21.3-.4 2.9.5 5.2 3.2 6.3 5.7 2.3 11.6 4.3 17.6 6.5zm-231.3 280.4a47.8 47.8 0 0 0 2.3-4.5c1.6-4.2 3.2-8.5 4.5-12.8s3.2-6.4.5-9.5c-4.1-4.6-8.4-9-13-14-2.4 6.9-4.7 12.9-6.5 19.1-.7 2.8-1.2 6.7.1 8.6 3.4 4.8 7.9 8.7 12.1 13.1zm211.6-271.3c.5 8.3.9 16.5 1.6 24.7 0 .7 1.3 1.5 2.2 1.8l16.3 5.2c0-7.4-.1-14.8.1-22.1.1-3.5-1.3-5.2-4.8-5.9s-9.7-2.3-15.4-3.7zm-407.8 392.7-.5-.6c4.1-3.4 8.3-6.7 12.3-10.2l28.9-25.9c1.2-1.1 3-2.7 3-4.1-.1-6.8-.7-13.6-1.2-21.8l-21.7 31.9zm179.4-332.3-13.3 24.7c-1.3 2.3-1.8 4.2 1.5 5.4 1 .3 1.6 2.2 2.6 2.4 2.6.4 4.6 5.9 7.9.9 5-7.5 10.2-14.8 15.1-22.3.4-.5-.3-2.4-1.1-3-3.9-2.7-8.1-5.2-12.7-8.1zm53.2 67.2-18-30-8.4 23.3c5.4 5.1 10.9 10.4 16.6 15.6.4.4 2.3 0 2.9-.6 2.4-2.5 4.5-5.3 6.9-8.3zm-315.7-43.4h.8c5.1-7.2 10.4-14.3 15-21.8 1.8-2.8 2.2-6.5 2.8-9.8a65.2 65.2 0 0 0 .7-8.8c.5-5.8.9-11.7 1.3-17.5-6.2 8.6-12.8 17.1-16 26.7s-3.2 20.8-4.6 31.2zm308.6-266.9c-7.6 3-14.1 5.8-20.7 8.2-4.7 1.7-4.9 4.9-4.1 9a56.9 56.9 0 0 1 .7 8.3c.1 2.6 1.3 3.5 3.8 3.2l13.8-1.9c1-.2 2.4-1.2 2.5-2 1.4-7.8 2.6-15.6 4-24.8zm148.6 123.3c0-6 .8-11.1-.3-15.7-.7-2.6-4.7-4.3-7.2-6.4-.3-.3-.4-.9-.7-1.1l-12.6-9.3v29.5zm-427.9 99.9 1.1.4a42.5 42.5 0 0 0 3.5-3.9q7.8-10.1 15.3-20.1a11.3 11.3 0 0 0 2-4.5c1.7-8.2-3.7-14.3-6-22-2.7 3.9-5.7 6.7-6.9 10-2 5.8-3 11.8-4.3 17.8s-3.1 14.9-4.7 22.3zm330.5 168.4c-3.6 10.1-7 19.6-10.3 29.1a3.6 3.6 0 0 0 .1 2.7c3.2 4.2 6.5 8.4 10.3 13.1.6-1.9 1-3.2 1.5-4.4 2.1-4.7 3.8-9.7 6.6-13.8s2.9-5.8 1.3-9.1-2.9-6-4.5-8.9zm-311-101.4c1.5-1.7 2.8-2.9 3.8-4.3 4.8-6.4 13.5-9.6 13.5-19.8s1.8-18.3 2.8-27.4c-12.4 17.4-19.8 18.7-20.1 51.5zm73.5 101.6c-1.5 5.7-3.1 10.3-3.9 15-.2 1.5 1 3.8 2.2 5.1 3.1 3.3 6.6 6.1 10 9.1l12.5 10.8c.4-5.6.8-10 .9-14.4a5.8 5.8 0 0 0 -1.2-3.8c-6.6-7.2-13.4-14.3-20.5-21.8zm412.7-196c.5 8.5 1 16.3 1.7 24.1.1 1.2.9 3 1.9 3.4 4.9 1.9 9.9 3.4 15.5 5.2 0-8.5 0-16.5-.1-24.5a3.2 3.2 0 0 0 -1.7-2.2zm-556.6-100.8-.9-.4c-3 6.4-6.1 12.8-8.9 19.2-3.8 8.6-6.7 17.8-11.4 25.8-6.1 10.4-8 21.6-9.7 33a18.4 18.4 0 0 0 .3 3.3 21.7 21.7 0 0 0 3.2-5.7c3.1-6.9 6.3-13.7 9.7-20.5s7.5-12.1 8.2-19.5a29.9 29.9 0 0 1 1.1-5zm395.1-24.4c.9-8.1 1.9-15.9 2.6-23.7.2-2.6-1-4.9-4.2-4.8s-9.1.5-14.4.9c.8 9.5 1.6 18.5 2.3 27.6zm182.6 311.4c-2-3.9-4-7.1-5.4-10.4-3.7-8.3-7.2-16.7-10.8-25a3.7 3.7 0 0 0 -1.5-2c-4.3-1.7-8.7-3.2-13.4-4.9a9.6 9.6 0 0 0 0 2.4c2.5 6.2 4.9 12.5 7.5 18.7 1.7 3.9 2.7 8.8 5.6 11.2 5 4 11.3 6.4 18 10zm-410.5 21.8c.5-6.1 1.1-11.4 1.3-16.7a5.8 5.8 0 0 0 -1.5-3.6c-5-5.8-10.2-11.5-15.8-17.8-1.7 2.7-2.7 3.7-3 4.9-1.3 4.4-2.5 8.8-3.5 13.2a3 3 0 0 0 1 2.5c6.8 5.7 13.8 11.3 21.5 17.5zm237.8-362.2c6.6 6.1 11.5 11 20.6 9 12.6-2.7 25.6-3.6 38.4-5.3 4.6-.6 9.2-1.4 13.8-2.2-.1-.5-.1-1-.2-1.5zm44.6 78.1 4.1-29.5c-4.6 0-8.3.2-12-.1s-4.5 1.5-4.5 4.3c-.1 4.8-.2 9.6-.1 14.4.1 11.5.1 11.5 12.5 10.9zm-122.9 70.3c1.2 6.3 2.2 11.8 3.3 17.3a3 3 0 0 0 2 1.4c4.1.8 8.1 1.5 12.2 2s7.8.6 11.7.9c-1.6-5.2-3-9.8-4.5-14.4-.3-.9-1.1-2.1-1.9-2.3-7.3-1.7-14.5-3.2-22.8-4.9zm-246.1-84 1 .4c4.4-2.8 8.6-6 13.3-8.3s8.4-4.6 9.4-10c.3-1.6 2-3.4 1.6-4.7a39.9 39.9 0 0 0 -4.1-8.6 2.8 2.8 0 0 0 -2.7-1c-4.8 2.2-11.2 2.9-10.7 10.5 0 .2-.5.4-.6.7l-7.2 20.9zm49.6 149.6 13.8 4.9c1.6-5.1 2.8-9.5 4.2-13.9s3.1-8.7 4.6-13.3l-12.8-5.4c-3.4 9.5-6.5 18.3-9.8 27.7zm-88.2-247.5c2.1-1.1 3.5-1.6 4.4-2.4 3.4-3 6.9-5.9 10-9.2s7.5-8.4 11-12.8c.6-.7.6-2.8 0-3.3s-4.4-3-6.4-4.8-3.6-1.3-5.7-.1c-5 2.7-8 6.3-8.8 12.2s-2.8 12.9-4.5 20.4zm57.6 134.1c3.1-.6 5.1-1.2 7.3-1.5a9.9 9.9 0 0 0 8.3-6.1 138.8 138.8 0 0 0 6.4-16.6c1.6-5.2-2.2-8.3-7.4-7.2s-7 2.9-7.3 7.7c-.1 1.9-1.6 3.5-2.1 5.4-1.7 5.9-3.3 11.8-5.2 18.3zm-32.4 10.8c4.2-1.3 7.7-2.2 11-3.6 1.7-.6 3.9-1.8 4.4-3.3 2.9-8 5.4-16.1 8-24.2a8.8 8.8 0 0 0 -.2-2.8c-3.3 1.6-6 3.6-9 4.1-6.1 1.1-8 4.9-9.1 10.3s-3.3 12.8-5.1 19.5zm271.9 4.4-13.2-1.1c-2.6-.2-3.8.7-3.4 3.5.5 4.4.5 9 1.4 13.3.3 1.7 2.2 4.1 3.7 4.3 5.6.9 11.3 1 17.6 1.4-2.1-7.4-4-14.2-6.1-21.4zm26 204.3-13-10.8c-3.5 11.4-6.3 21.7-10.1 31.5-1.6 4.2-.9 6.5 2.5 9.3zm-69.4-442.6-.7-.8-39.4 23.9c5.5 3.1 10 5.9 14.7 8.2.8.4 3-.7 3.9-1.7 2.3-2.9 4.2-6.2 6.4-9.3zm6.3 432.7 18.8-23a2.3 2.3 0 0 0 .1-2.1l-14.4-10c-2.8 9-5.2 17.4-8 25.6-1.9 5.9-1.8 6.8 3.6 9.5zm-46.6 22.1c-2.1 5.7-4.3 10.8-5.8 16.2s-3.6 9.2 1.9 13c2.8 2 5.3 4.5 8.1 6.9l7.8-24.8zm-225.3-318.3c16.2-9.1 20.6-24.7 25.3-41.9l-6.1 4.6c-5.5 3.7-12.2 5.5-13.2 14.1s-3.9 15.2-6 23.2zm231.7 69.5-4.9-12.8c-1.5-4.2-3.1-8.4-4.5-12.1l-14.7 2.1 6.5 21.8zm317.7 78.4c.8 6.7 1.3 12.6 2.1 18.6 1.2 9.7 4.9 13.2 14.7 14.6-.5-8.8-.9-17.5-1.4-26.3a2.9 2.9 0 0 0 -1.7-1.9zm-247.3 289.5 9.5-23.9-10.8-13.8c-2.7 7-5.2 13-7.1 19.1-.8 2.6-1.3 6.1-.1 8.3s4.9 6.2 8.5 10.3zm253.2-246.5c1.1 7.7 2.1 14.3 3.1 20.9a2.5 2.5 0 0 0 1 1.5l17.6 8.3c-1.8-8.7-3.4-16.6-5.1-24.5a3 3 0 0 0 -1.5-2zm-122-75.1c1.2 8.8 2.2 17 3.5 25.1.1.8 1.9 1.8 3 2 3.4.8 6.9 1.3 10.9 2-.7-8.8-1.3-17.7-2-26.7zm-452.4 96.3-1.8-.6-29.9 69.8 1.5.7c1.9-3.9 3.6-7.9 5.7-11.6 7.7-12.9 15.6-25.7 23.3-38.6 3.8-6.4.8-13.2 1.2-19.7zm269.3-269.6c5.4-2.7 10.3-4.8 15-7.4s5.3-9.2 3.8-12.6a3.8 3.8 0 0 0 -1.6-1.5l-14.3-8.1a92.1 92.1 0 0 0 -2.9 29.6zm-123.7 340.7c-1 4.3-1.4 7.7-2.6 10.8-2.9 7.3-3.3 7.5 2.4 12.5 3.9 3.3 8.4 6 13.1 9.2 1-5.5 2-10.1 2.8-14.7.2-1.2.4-3-.2-3.6-4.8-4.6-9.8-9.1-15.5-14.2zm94-114.1c-3.6 8.5-6.9 16.4-10.2 24.4-.3.7-.4 2.2 0 2.5 2.4 1.7 4.9 3.1 7.2 4.6l17.5-23.5zm-91.4-8.7 8.7-18.6c.9-2 2.5-4.6-.7-5.7a46.8 46.8 0 0 0 -10.4-2.1 4.2 4.2 0 0 0 -3.6 2.1c-2.4 6.6-4.5 13.4-6.9 20.4zm211.8-145.4c1-9.1 1.9-17.5 2.8-26.4l-16.2.9c.5 8.8 1 17.2 1.5 25.5zm-163.4 106.5 16.7-23.5c-1.8-1.2-3.8-3.4-5.9-3.7-3.8-.5-7.7.2-11.6.4s-6.9 4.1-5.7 7.8c1.9 6.1 4.1 12.2 6.5 19zm-44.9-9.8c5.7 1.5 10.5 2.9 15.4 4a4.1 4.1 0 0 0 3.6-1.3c3.6-5.1 6.8-10.5.5-16l-.5-.8c-1.4-2.6-11.7-3.6-12.9-1-2.3 4.9-4.1 10-6.1 15.1zm56.4 72.2 9.3 5.8 13.4-24.4a33.8 33.8 0 0 1 -4.1-2.4c-6.6-4.9-9.5-3.9-12 3.6-1.9 5.7-4.2 11.2-6.6 17.4zm-53.2 69.5c-2 6-3.9 11.7-5.6 17.5a3.4 3.4 0 0 0 .7 2.9c3.7 2.8 7.6 5.4 11.4 8s3.1.6 3.5-1.8c.7-5.1 1.1-10.2 2.3-15.1s-.6-5.3-3.1-6.7-5.8-3-9.2-4.8zm21.5-61.3c-2.3 6.6-4.5 13-6.8 19.4-3 8.6-2.9 9 5.7 11.1a4.8 4.8 0 0 0 3.9-2.1c2.8-7.6 5.2-15.3 7.8-23.3zm31.1-38-3.3-1.2c-2.8-.9-5.9-2.8-8.3-2.2s-3 4.2-4.5 6.5c-.1.1-.3.1-.3.3l-6.7 15.6 11.2 5zm11.9-19.4c.8-1.5 1.1-2.8 1.9-3.5 4.1-3.8 6-7.6 2.2-12.8s-5.2-8.6-7.9-13.2l-5.5 11.4c-1.9 3.6-3.7 7.3-5.7 11.2zm-131.2-249-11.6 8.5c-3.7 2.8-5.9 6.3-4.5 11.1s2.2 7.2 3.5 11.1l14-9.8c-.5-7.3-1-13.8-1.4-20.9zm155.9 42.5c-4.9 2.8-8.6 5.3-12.6 7.2s-2.7 4-2.2 6.4c.7 4.1 1.6 8.1 2.5 12.1.3 1.3.8 2.5 1.1 3.6l11.2-2.4zm-286.3 266.4 1.2.6c1.4-9.8 6.5-18.4 6.5-28.8s1.7-20.2 2.7-30.3c-3.9 7.5-8.9 15-10 23.1-1.6 11.6-.4 23.6-.4 35.4zm537.1-110c-6.3-2.8-13.1-1.6-19.6-1.8.7 6.1 1.3 11.4 2 16.7.3 2.7 9.3 6.9 11.5 5.3a2.4 2.4 0 0 0 .9-1.5zm-194.2-65.3 1.7-.3a75.4 75.4 0 0 1 8.1-1.2c3.3-.2 4-2.1 3.7-4.9s-1-6.3-1.2-9.5 0-6.3 0-9.9l-14.9 1.8c.9 8.2 1.8 16.1 2.6 24zm57 84.1c.8 5.9 1.9 11.5 2 17.1s2.6 6.4 6.2 7.2 6.5.8 10.2 1.1c-1.4-5.4-2.8-10.1-3.8-14.8-2.2-11-.2-10.9-14.6-10.6zm-86 14.5c-1.7-4.4-3.5-9-5.5-13.5a2.1 2.1 0 0 0 -1.6-1.3l-19.9.6c.8 3.3 1 5.9 2.1 8s3.1 5.7 5 6c6.5.7 13.2.2 19.9.2zm-209.9-89.4c-8.9 2-10.7.3-13.2 11.8-1.4 6.4-3.5 12.6-5.4 18.9-.4 1.4-1.8 3-1.4 4 1 3.1 2.7 5.9 4.3 9.2zm348.2-13c3.1-7.6 3-7.9-3.6-12.3-1.1-.7-2-1.7-3-2.4l-12-8.4-1.2.9c.8 7.2 1.6 14.5 2.5 22.2zm-148.6 223c-2-1.3-4.3-2.6-6.5-4.1s-4.8-1.4-5.8 2.3a134.1 134.1 0 0 1 -5.4 15c-3.7 8-2.9 10.3 5.4 12.8zm-68.6-367.8-1.1-1c-4 2.9-8 5.7-11.8 8.8-1.6 1.2-4 2.8-4 4.2 0 6 .9 12.1 1.5 19.2l10.3-7.7a6.2 6.2 0 0 0 2.3-3.2c1.1-6.7 1.9-13.5 2.8-20.3zm152 369.2.6-1.2-38.4-29.6c0 1.7-.1 2.4.1 2.8 3.2 5.7 6.3 11.3 9.6 16.8 1.3 2.2 2.6 5.4 4.5 6 7.7 2.2 15.7 3.5 23.6 5.2zm-4.1-272.3c2.6-6.5 3-11.7-4.5-14.1-.2-.1-.3-.5-.6-.7l-11.9-7.5v23.6zm-25.4 70.1-12.4.7c1.9 7.3.3 15.6 9.6 18.3l-6.7-1.3c.3 3.4.5 6.4.7 9.2h13.1c-1.5-9.2-2.9-17.8-4.3-26.9zm-191.8-177.8c-5.8 4.1-11.3 8-16.9 11.7s-6.3 14.2-1.4 19.3c4.6-5 8.7-10.5 13.8-14.8s5.7-9.8 4.5-16.2zm-26.2-35.4c.8 10.3 1.5 19.9 2.2 29.4h1.3l18-20.2zm462.5 470.3a8.3 8.3 0 0 0 .3 2.2c2.8 9.1 5.9 18.2 8.6 27.4 1.5 4.8 7.9 10.5 13.3 11.1a24.7 24.7 0 0 0 -1.1-3.6c-3.9-9.6-8.2-19.1-11.5-29-1.7-5.1-4-7.8-9.6-8.1zm-437.5-39.7c.8-5.6.9-10 2.1-14s-.2-4.2-2-5c-4.3-2.1-8.9-3.7-13.3-5.5-.8 1.2-2 2.2-2.2 3.3-.6 3.5-2.4 8.6-.8 10.2 4.3 4.3 10.1 7.1 16.2 11zm104.3-341.1c5.3-2.7 10.3-5.4 15.4-7.9s4.9-8 1.6-10.4c-5.1-3.9-10.1-3.1-15.7.5-3.7 2.3-4 4.8-3.4 8.2s1.4 6.2 2.1 9.6zm136.3 149.2c-1.1-9.8-2.1-18.9-3.1-28.1l-10.2 1.6c.6 8.8 1.3 17.6 1.9 26.5zm192.8 158.1-1.1 1.2c1.4 6.1 2.8 12.2 4.1 18.3s5 9.5 11.5 10.1c-.7-8-1.4-15.9-2.2-23.9a3 3 0 0 0 -1.3-2zm-155.8-26.9c-2.4-5.1-3.3-11-6.4-12.5-6.4-3.1-13.9-3.9-21.5-5.8 3.1 16.7.1 12.9 14.8 15.6 4 .7 7.9 1.6 13.1 2.7zm-320.3-72.7c-1.4 4.8-2.8 8.6-3.6 12.6a48.9 48.9 0 0 0 -1 11.4c.1 4.1 3.6 2.8 6 3.1s3.5-.5 4-3.1c1.6-7.5 3.5-14.9 5.3-23zm50.3 8.1-9.5-1.6c-3-.5-4.7.5-5 3.7a15.8 15.8 0 0 1 -.9 3.1c-1.5 5.5-3 11-4.6 16.4 10.3 2.7 10.2 2.6 13.5-6.8 1.7-4.8 4.1-9.4 6.5-14.8zm-70.1-122.4 1 1 10.8-7.8c2.1-1.5 5-2.6 6.2-4.7 4.1-7-3-11.8-3.6-18.8-2.8 2.5-5.6 3.9-6.4 6-3 7.9-5.4 16.2-8 24.3zm209.5 61.8c-.8-3.3-1.4-6.2-2.3-9.2s-2.2-5.5-3-8.4c-1.9-6.6-5.4-8.7-12.9-7.3 2.7 9.1 5.4 18.1 8.1 26.9zm303.6 230.8a3.8 3.8 0 0 0 0 1.5c2.6 8.6 5.6 17 7.8 25.7 1.8 6.9 3 13.6 11.3 15.9-.3-1-.5-2.3-.9-3.6-3.1-10.6-6.8-21.1-9.2-32-1.3-5.6-4.2-7-9-7.5zm-59.9-89.4c1.5 6 3 12.1 4.6 18.1a1.2 1.2 0 0 0 .6.6l14.5 5.2c-1.2-6.1-2.4-11.7-3.2-17.3-.3-2.5-1.4-3.3-3.7-3.7-4.2-.7-8.2-1.8-12.8-2.9zm-175.5-220.2-8.1.6c-3.1 0-4.5 1.2-4.1 4.5.8 6.8 1.5 13.6 2.2 20.7l8.7-.4c.4-8.6.8-16.8 1.3-25.4zm-62.8 8.8c1.2 8.5 2.3 16.2 3.3 23.6l10.4-2.1c-.4-7.6-.7-15.1-1.1-23zm-17.2 481.5c.5 7.2-.5 13.9 1.5 19.5s7.2 11.6 11.1 17.5c3.4-14.3.4-26.6-12.6-37zm-129.1-456.4c-2.5-5.3-4.9-10.4-7.6-16.4-2.6 1.5-6.4 2.4-7.5 4.6-2.9 5.6-4.6 11.8-7 18.6zm436.7 183.8c0-5.8.2-11.5-.1-17.1a4.6 4.6 0 0 0 -2.8-3c-3.9-1-7.8-1.5-12.2-2.2.5 5.5.9 10.5 1.5 15.5a2.7 2.7 0 0 0 1.2 2.2c4.1 1.7 8.4 3.1 12.4 4.6zm-372.3 207.3c0-3.3.1-5.6 0-7.8s-.1-5.6-1.3-7.5a81.5 81.5 0 0 0 -9.1-11.1 66.4 66.4 0 0 0 -6.3-5.6c-.4 2.6-.5 4.6-1 6.5-.9 3.4-1.2 6.7 1.4 9.5s6.2 6.4 9.4 9.6zm83.1-295.4h14.8c-2.4-5.9-4.6-11.1-6.9-16.4a2.2 2.2 0 0 0 -1.6-1.2h-13.3zm11.3-162.2-15.3 6.2a2.6 2.6 0 0 0 -1 2.3c.1 4.2.5 8.3.8 12.3 4.3-.8 8.1-1.2 11.8-2.3 1.4-.4 3.4-2.1 3.5-3.3.4-4.7.2-9.5.2-15.2zm-237.8 15.4c6.3-4.3 11.7-7.9 17-11.7a3.5 3.5 0 0 0 1-2.9c-.8-4.4-1.8-8.8-2.8-13.3-8.2 3-10.7 6.2-11.9 13.8-.8 4.4-2 8.7-3.3 14.1zm472.9 272.9c3.7 16.8 10.8 25 20.3 24.6l-4.5-17a3.7 3.7 0 0 0 -1.5-2.2c-4.4-1.8-8.9-3.4-14.3-5.4zm-149.9-211.4c.4 4.5.6 8.7 1.2 12.8s1.6 8.3 2 12.5 2.6 3 4.9 3.1 3.7-1.5 3.4-4.1l-1.5-19.7c-.1-1.5-.1-2.9-.2-4.6zm-265.2 214.1c-1.2 4.6 6.9 35.1 9.9 37.4a5.8 5.8 0 0 0 .6-1.7c1.2-6.7 2.4-13.5 3.4-20.3a4.4 4.4 0 0 0 -1.1-3.6c-4.1-4-8.4-7.8-12.8-11.8zm145.3 241.8c2.3-14-2-25.1-12.5-33.2-1.7 6-3.8 11.5.9 17.2s7.4 10.1 11.6 16zm11.3-47.1c-3.7 13.8-1.3 21.2 10.4 31.5.4-6.8 2.4-13.3.7-18.6s-7-8.4-11.1-12.9zm-172.5-454.4 1.7.5c5.1-1.7 10.3-3.4 15.3-5.4.7-.3 1.4-2.2 1.2-3.2-1.5-6-3.3-11.9-9.4-16-3 8.1-5.9 16.1-8.8 24.1zm356 93c1.3 4.4 1.3 10 4 11.9s9.8 3.2 14.7 4.6v-16.5zm78.2 111.6c-.3-3.8-.4-7.8-1.1-11.7a5.2 5.2 0 0 0 -3.2-3.4c-4.7-1.2-9.5-1.9-14.6-2.9.4 3.5.9 6.8 1.1 10.2s1.6 3.9 4.2 4.4c4.3.9 8.5 2.1 13.6 3.4zm-160.9-48.7c1.1 4.5 2.1 9.2 3.3 13.8.2.4 1.3.8 2 .9l16.3 1.7c-.5-2.4-1-4.3-1.3-6.3-.8-4.6-2.9-7.6-8.2-8-3.8-.3-7.7-1.3-12.1-2.1zm-163.8 59.5a21.7 21.7 0 0 1 -1 3.3c-2.4 7-5 13.9-7.3 20.9-1.2 3.5 2 4.4 4.3 5s2.9-1.5 3.4-2.8c2.3-5.7 4.3-11.7 6.3-17.5s1.2-7.2-5.7-8.9zm193-169.7c.6 7.9.9 15.6 1.8 23.2.3 3 1.5 6.6 6.3 4.7.8-9.3 1.6-18.6 2.4-28.2h-8.1zm-258.5-79.9c-4.9 3.5-9.3 6.6-13.5 9.8a1.8 1.8 0 0 0 -.4 1.7c2.5 3.3 4.8 7 7.8 9.7 1.1 1 4.1.2 6.2-.3s2.5-1.5 4.1-2.4c-1.4-5.8-2.7-11.7-4.2-18.5zm23.4-14.3c-3.2 1.4-7.6 1-6.9 5.6 1.3 8.3 1.7 16.8 5.6 24.5a20 20 0 0 0 3.5-2.9c1.4-1.5 3.6-3.6 3.3-5-1.4-7.2-3.5-14.4-5.5-22.2zm-.1 424.5c-.4 2.9-.9 5.5-1.1 8s-1.2 5-.3 6.2c4.1 4.8 8.9 9 13.7 13.9 2.2-13.7-2.3-23.7-12.3-28.1zm22.6-296.1 16.3-1-18.6-21.7a2.3 2.3 0 0 0 -2-.5 3.8 3.8 0 0 0 -.9 2.7c1.6 6.6 3.3 13.2 5.2 20.5zm-27.7-196.8c6.6-.9 11.8-2.7 15-7.6 1.2-1.8 2-6 1.2-6.7-2.6-2-6.6-4.4-9.1-3.6a15.1 15.1 0 0 0 -8.1 7.8c-1.2 2.6.5 6.5 1 10.1zm-29.9 424c-.9 5.6-1.9 10-2.2 14.4s-1.3 10.6 4.9 13.5l2.7 1.7a15.4 15.4 0 0 0 1.5-3.5c.5-4 .2-8.1 1.2-11.9 2.2-7.4-3.8-9.4-8.1-14.2zm59-151.7a39 39 0 0 1 -6.7-1.8c-2.8-1.1-3.9-.5-4.9 2.5-2.1 6.6-4.9 12.9-7.3 19.4 6.8 3 6.9 3.1 10.3-3.1s5.5-10.9 8.6-17zm45.6 190.4c1.5-7.1 3.2-14.1 4.7-21.3 1.1-5.2-.4-7.3-6.1-8.8-1.3 5-2.2 10.1-4 14.9-2.4 6.5-2.1 11.6 4.6 15zm250-102.2-1.3 1.2c1.8 4.3 2.4 10 5.6 12.6s10.3 4.3 16.9 6.9c-2.5-6.1-3.5-12.2-7-15.6s-9.4-3.5-14.2-5.1zm-305.2 130.2c4.4-12.1 1-20.4-9.7-26.4-.6 5.3-2.9 11.2-1.3 15.8s7.1 7.1 11 10.6zm107 70.3c1.5-3.9 2.7-6.8 3.6-9.9a4.6 4.6 0 0 0 -.5-3.8c-3.8-4.4-7.9-8.6-12-12.9l-1.8.4c-.3 4.2-2.1 9.2-.5 12.6 2.4 5 7.2 9 11.2 13.6zm297.4-143.9c-1.4-6.7-3.1-12.6-3.7-18.6s-2-8.5-11.2-9.5c1.7 6.9 3.7 13.5 4.9 20.1s5.1 6.6 10 8zm-320.5-261.6-5.7-22.6-9.1 1.7 5.1 22.4zm27.1 512.7c.3-6-.1-11.5 1.1-16.6 1.8-7.7-2.9-12-7-17.5-3.6 12.3-4.1 23.5 5.9 34.1zm-59.2-472.5c-1.9-4.8-3.7-9.1-5.2-13.4-2.7-7.7-2.7-7.7-10.8-6.2l-1.7.8c2 5.5 3.8 11.1 6 16.5a4.2 4.2 0 0 0 3.1 2.2 61.5 61.5 0 0 0 8.6.1zm-78.9 28.3c-10.9-.7-11.2-.5-10 5.4-1.1-1.2-1.9-2.9-3.1-3.2s-4.9-.6-5.5.3c-1.9 2.9-2.8 6.3-4.4 10 5.1.4 9.4.8 13.7 1 1.1 0 2.8-.3 3.1-1 2.2-3.9 4-8 6.2-12.5zm78.3 303.1c-2.3 7.1-3 13.2 3 18.2 3 2.6 5.5 6 9.1 10 0-6.2 1.5-11.8-.4-15.6s-7.6-8.4-11.7-12.6zm208.2-286.7c1.5 8.9 2.9 17.4 4.4 25.9l7.9.8c-1.1-6.8-2.2-13-2.9-19.2s-.8-7.6-9.4-7.5zm94.6-11.5-1.3.5c.8 4.3 1.8 8.5 2.3 12.8.9 7.6 3 9.9 11.1 10.8l2.1-11.2zm-347.1 168.3c-1.6 5.7-3.2 11.1-4.5 16.6s.5 8.8 7.3 10.2c1-5.9 1.6-11.9 3-17.7s.3-7.5-5.8-9.1zm-52.3-44.4c1-2.8 2-5 2.7-7.4.2-.8.1-2.5-.4-2.8-4.4-2.5-9-4.7-13.8-7.2-1.8 5.2-3.2 9.7-4.7 14.2zm324.6 11.2c-3.2-8.8-6.6-15.7-16.7-15.5-1.9.1-3.7-1.4-6.8-2.8 1.2 3.4 2.1 5.8 3.1 8.2s1.1 4.4 2.4 4.9c5.6 2 11.5 3.4 18 5.2zm-216.9-208.6c-1.4-5.4-2.8-10.9-4.4-16.3-.1-.6-1.7-1.1-2.6-1.1-9.4.2-10.2 1.3-8.3 10.4a4.8 4.8 0 0 0 .5 1.8c.8 1 1.6 2.2 2.7 2.5 3.9 1.1 7.8 1.8 12.1 2.7zm62.5 484.3c1.3-4.3 2.5-8 3.6-11.7 2-6.7 2.9-13.1-5.1-17.6a24.8 24.8 0 0 0 -1.3 3.5c-.8 4.1-1.3 8.2-2.3 12.2-1.4 5.7 1.3 9.6 5.1 13.6zm-151.9-587c5.3.2 8.8-1.6 8.5-5.1-.4-6.1-1.6-12.1-2.6-19.1l-9.4 7.7zm45.3 454.9c3.6-11.3-.5-19.3-9.9-25.6-.7 4.5-1.5 9-2.1 13.5a3.1 3.1 0 0 0 .9 2zm-58.6-83.4c.8-2.4 1.6-4.5 2.3-6.6 3.3-10 2.4-14.2-5-20.3-1.2 5.9-2.2 11.3-3.2 16.6-1.4 6.9-1.1 7.5 5.9 10.3zm86-353c-10.9 3.2-14.5 10.1-10.1 19.6l11.6-2.9c-.4-3.4-.8-5.9-1-8.5s-.3-5.2-.5-8.2zm91.1 527.9c1-3.8 2-7.3 2.9-10.9.5-2.1 1.7-4.6 1.1-6.3s-3.3-3.7-5-5.6-1.7-1.9-2.3-2.6c-6.1 9.1-6.1 17.5 3.3 25.4zm-203.2-307.1c-2 9.3-3.8 18.2-5.8 27-.7 3.3 1.3 3.4 3.6 3.6 3.4-9.5 6.7-18.7 10-28.1zm288.8-33.1c-2-8.8-4-17.2-5.9-25.8h-6.7c1.5 8.4 3 16.4 4.5 24.5zm72.1 68.8c1.7 4.7 2.1 10 4.9 12.5s8.7 3.2 13.5 4.7c-2.6-14.4-4.5-16.1-18.4-17.2zm-412.8-323.3-1.1-.4c-4.3 5-8.8 10-12.9 15.1-1.5 1.8-3.2 4.2 0 6.2s5.3 2 7.7-.7c.9-1.1 2.3-1.9 3.1-3s2.8-3.8 3.1-5.8c.5-3.8.1-7.6.1-11.4zm21.6 414.9 1.5.7c1.8-3.2 4.2-6.3 5.2-9.7s1.4-8.9 2.1-13.3 1.5-8.7 2.2-13l-1.5-.5c-2.3 3.4-5.9 6.6-6.6 10.4-1.7 8.3-2 16.9-2.9 25.4zm263.6-3.7 2.4-1.7c-.4-2.1-.4-4.4-1.3-6.2-3-5.8-6.3-11.5-9.7-17.1a3.3 3.3 0 0 0 -3.1-.2 13.1 13.1 0 0 0 -2.7 3.5c-1.5 2.2-1.7 4.4.3 6.4s7 6.1 10.2 9.4c1.6 1.6 2.6 3.9 3.9 5.9zm-179.9-218.5c8.2-10.1.2-17.7-2.2-27.1l-7.8 4.4zm130.8 484.4a14.8 14.8 0 0 0 1.2-2.9c.8-5.8 1.2-11.7 2.2-17.5s-1.5-8.1-5.2-10.8a120.8 120.8 0 0 0 -2.9 12.3 28 28 0 0 0 -.1 10.4c.6 2.7 2.9 5.1 4.8 8.5zm-51.6-163.7 2.1-1.8c.3-2.4.1-5.1 1.2-7.2s.2-4.2-1.4-5.8l-9.4-8.9c-3.3 5.5-5.2 10.6 1.3 15.6 2.6 2 4.1 5.4 6.2 8.1zm-173.9-202.3 1.7 1.4c3.2-3.6 6.4-7.1 9.4-10.7.8-.9 1.6-2.5 1.3-3.4-1.9-5.2-4.1-10.2-6.3-15.3l-.8.2c-1.8 9.3-3.5 18.5-5.3 27.8zm345.2 26.1c.6 2.8 1.3 5.3 1.7 7.9s1.8 4.2 5 4.6 5.9 2 8.9 2.9a14.7 14.7 0 0 0 3.6.4c-1.9-10.7-5.4-14.6-19.2-15.8zm-235.2 116.7 1.4-.6a31.8 31.8 0 0 1 .7-6.2c3.2-9.7 2.7-11.2-6.8-16.1-1.2 4.4-3.9 9-3.2 13s5.1 6.6 7.9 9.9zm-18.8-147.4c-2.5 8.1-4.9 16-7.6 23.9-1.4 4.3.5 5.4 4.4 5.4 2.2-6.7 3.5-13.7 6.8-19.6s2.4-7.1-3.6-9.7zm30.5-353.3-17.8 16 13.2 6.4c1.6-7.5 2.9-14.2 4.6-22.4zm315.9 410.4c.8 4.1 1.3 7.5 2.2 10.9s1.7 4.5 3.3 5.5c3.1 1.9 6.7 2.8 10.8 4.5-4.2-8.2-3.6-19-16.3-20.9zm-173.2-202.8c1.2 9.1 2.4 17.8 3.6 26.8l4.9-.5c-.2-3.8-.4-7.1-.6-10.5s-.6-7.1-.8-10.6c-.2-6.4-.2-6.5-7.1-5.2zm-75.5 251.5c-.8 1.4-1.8 2.5-2 3.8s-.7 3.6.1 4.4c3.6 3.8 7.7 7.3 11.7 11 .8-1.7 1.6-3.9 2.7-6s1-4.8-2.5-6.3-6.5-4.5-10-6.9zm206.6-123.5c-.4 10.5 4.1 14.4 15.2 13.6-1.6-12.1-1.9-12.5-15.2-13.6zm-242.3 242c4.4-10.8-.4-17.1-8.7-23.1 2 5.2-3.9 8.9-.3 13.3s5.9 6.4 9 9.8zm-63.6-335.2c-3.2-5.5-6.1-10.4-9.5-16l-8.4 18.3zm97.8 375.3c3.6-9.1.3-20.6-6.1-23.1-5.5 9.5-.5 16.4 6.1 23.1zm210.9-219.5c1.7 13.9 2.2 14.5 15.9 16.6-1.6-4.1-2.3-8.7-4.9-11.4s-7.2-3.5-11-5.2zm-103.3-41.3 11.4 2.4c-1.6-4.8-3-9.4-4.6-13.9-.1-.4-1-.6-1.5-.7l-9.6-2.1c1.6 5.2 2.9 9.6 4.3 14.3zm-271 26.3-1.5-.3c-5.4 11.1-3.4 23.8-6.5 35.7 2.6-2.1 6.1-4.3 6.4-6.9 1.1-9.5 1.1-19 1.6-28.5zm262.1-88c-1.7-6.3-3.7-12.3-4.8-18.3-.7-4.2-2.3-5.2-6.3-3.8.8 5.5 1.6 11 2.5 16.5s1.1 6.2 8.6 5.6zm193.2-8.2c-1.8 9-1.2 10.6 5.7 13.9a11.8 11.8 0 0 0 1.8 1.3c4.2 2 8.5 3.8 12.7 5.7l.9-1.4zm-143.7 66.4c1.3 4.4 1.5 9.5 4.1 11.9s7.6 1.9 11.6 2.7c-1.1-10.6-4.8-14.2-15.7-14.6zm-182.9-281c-5.7 3.4-11 6.4-16 9.8-.9.5-.6 2.7-.9 4.6l8.6-.7 8.3-.7zm-80.5 342.1c-1.4 4.1-3 8.2-4.1 12.4-1.5 6-.1 7.8 6.3 8.5.8-4.6 1.2-9.2 2.4-13.6s1.3-6.1-4.6-7.3zm128.8-82.1 1-1-15.2-21.5c-1.5 4.3-3.1 7.2-3.3 10.2-.1 1.1 3.1 2.4 4.7 3.6s.5.8.8 1zm-183.8-50.9c11.8-.1 13.5-2.5 14.2-12-10.9-1.5-13.3.5-14.2 12zm30.9-175.2c5.6-1.7 10.9-3.1 16.1-4.9a3.2 3.2 0 0 0 1.7-2.7 63.4 63.4 0 0 0 -1-8.5c-5.3 1.9-16.6 12.8-16.8 16.1zm109.3 434.6c2.7-8.2 2-15.1-6.1-19.5-4.4 8.2-2.3 15.4 6.1 19.5zm198.2-182.5c1.2 10.7 5.9 15.2 14.2 13.8-2.3-11-5.9-14.5-14.2-13.8zm-255.3-179.4c2.3 3.9.3 9.6 5.7 10.6 2.2.4 7.2-1.9 7.2-2.9-.1-3.6-1.7-7.3-2.8-11.1zm365.6 127c-.7 6.9 3.3 26 5.9 27.5.4-7 .6-13.9 1-20.8.3-5.2-1-6.6-6.9-6.7zm-363.5-247.7c-2.9 2.3-5.1 3.9-7 5.7a3.2 3.2 0 0 0 -.9 2.6c1 4 2.2 7.9 3.5 11.7.4 1.3 1.5 2.3 2.3 3.4.7-1.2 1.9-2.5 2-3.7.2-6.2.1-12.3.1-19.7zm192.3 269.4c-1.5-12.8-3.9-16.7-10.9-15.1 1 13.7 1 13.7 10.6 15.4zm-138.7 56.9c-1.8 9.9-8.1 18.3-7.2 28.5 3.7-6.6 6-14 10.3-20s.9-6.2-3.1-8.5zm231.1-18.6c1.1 3.6 1.2 8 3.3 10.6s6.4 3.2 10.4 5.1c-3.7-15.1-3.7-15.1-13.7-15.7zm20.6-127.8 17.2 1.8-18.5-15.5a19.4 19.4 0 0 0 -.2 2.4c.5 3.6 1 7.3 1.5 11.3zm-248.9-83c-11 1.8-12.3 4-8.2 13.5l10.8-4.7zm180.3 179.7c-.5-12.1-1.5-13.3-11.1-13.4 1.7 15.3.9 12.4 11.1 13.4zm-208.2-294c.3 5.7.7 10.5 1.1 16.5l13.6-8.9zm-166.2 133.7-1-.3c-2.8 1.9-5.5 4.2-8.5 5.5s-3.1 4.2-1.6 6.9 3 5.2 5 8.5c2.1-7.2 4.1-13.9 6.1-20.6zm208.4-14.8 9-3.8c-.5-3.8-.9-7.1-1.3-10.4-10.7 3.3-10.7 3.3-7.7 14.2zm47.6 480.1c-.8 4.4-1.3 8.4-2.5 12.2-2 6.3-1.9 7.5 3.5 12.3 3.2-6.3 3-21.1-1-24.5zm-309.1-523.8 13.2-23.6c-3.6 3.4-7.7 7.1-11.8 10.8-6 5.3-6 5.3-1.4 12.8zm215.9 397.3c2.2-14.3 2.2-14.3-4.3-18.8a50.3 50.3 0 0 1 -1.6 6.7c-2.7 6.6-1.2 9.9 5.9 12.1zm-80.6-40.7-15.4 18.1a68.2 68.2 0 0 0 7.9-3.1c9.9-3.9 10.9-5.8 7.9-14.6 0-.1-.2-.2-.4-.4zm-73.8-224.9-.9.2-5.8 23.5.7.4 10.5-13.8zm45-145.6 11.9 10.4 1.7-1.2-4.3-15.7zm-25.1 168.6c1.7 4.9 3.1 9.2 4.8 13.3.2.5 3.1.6 3.1.4 1.2-4.5 2.2-9 3.3-13.7zm254.1 51.4c-3.8-16.3-4.4-17.5-11.5-20.7.9 3.2 1.6 6 2.5 8.7s2.7 5.5 3.3 8.4 2.3 4.3 5.7 3.6zm141.8 22.3c-1.8-11.3-3.1-12.8-11-12.8-.3 8.7 2.7 12.3 11 12.8zm-194.4-253.9c-6.9 2.4-7.1 2.7-6.5 9.4s1.2 10.7 1.9 16h1.1c1.1-8.5 2.3-16.9 3.5-25.4zm-217.9-46.9-.6-.3c-3.2 2.6-6.3 5.4-9.6 7.9-6.7 5.3-6.6 6.1 1.4 9.6.2.1.3 0 1 0zm-18.4 262.2c10.6-7.3 13.9-17.3 14.5-28.5h-.6zm103.6-231.5-.7-.7c-4.1 2.5-7.8 5.6-12.2 7.5s-6.2 4.7-3.6 11.6zm70.4 404c-.4-8.7 5-16.5 3.3-25.4a5.7 5.7 0 0 0 -2.3 3c-1.7 5.3-3.2 10.7-4.7 16.2-.7 2.8-1.3 5.9 3.7 6.2zm287.7-160h1.2c0-7.1-.3-14.2.1-21.2.2-4.4-1.4-5.4-5.9-4.8 1.6 8.8 3.1 17.4 4.6 26zm-183-27.7-8.4-20.1-2.7 1.9c1.3 4.6 2.2 8.5 3.5 12.3s1.7 7.5 7.6 5.9zm136.1-29.5v-9.6h-9.8c.2 2.7.4 5.1.5 7.9zm-236.9 283.6c-3.6 9-2.6 14.7 3.9 18.1-1-6.4 4-13.4-3.9-18.1zm351.1-118.2-1.6.4c.9 5.5 1.4 11.1 2.8 16.5.8 3 1.8 6.9 7.2 6.6zm-406.5-247.6-1.6.2-5 12.6 12.2-1.1zm49.6 115.3-9.6-15.5-3.9 11.1zm89.2-73.3c1.4 5.3 2.6 10.5 4.1 15.6a2.9 2.9 0 0 0 2.4 1.2 2.7 2.7 0 0 0 1.6-2.2 40.3 40.3 0 0 0 -1-9.1c-.9-3-1.5-7-7.1-5.5zm-191.3 223.4c9.9-7.3 10.7-10 6.6-21.4-2.3 7.5-4.4 14.1-6.6 21.4zm-40.9-283.3-.9-1c-2.3 2.2-5.8 3.9-6.8 6.5-2 5.6-2.6 11.7-3.8 17.6l.6.3zm442.7 215.3c1.4 13.8 1.5 16.5 8.2 16.3-1.6-10.2-3.6-14.3-8.2-16.3zm-30.7 33.3c-1.6-3.2-3.3-5.8-4.1-8.6s-3.1-5.5-7.1-4.9c3.7 13.1 2.6 12.8 11.2 13.5zm-318.7-373.2c-3.1 5.3-9.7 6.8-10.5 14.3l12.9-5.8c-.7-2.4-1.4-4.8-2.4-8.5zm44 64.5-7 1.8c.5 3.8 1 7.3 1.4 10.8 6.7-2 7.1-3 5.6-12.6zm-45.8-84.5a80.3 80.3 0 0 0 -8.5 5.2c-5 4-6.2 2.3-3.6 9.7 4.7-4.3 10-8.1 12.1-14.9zm260.7 261.6-1.8.4c1.5 8.1 3 16.2 4.7 24.2.1.6 1.8.9 3.6 1.6-2.4-9.5-4.5-17.8-6.5-26.2zm-207.8-101.4c6.6-.5 6.9-1.5 3.7-11.7-5.6.5-5.6.5-3.7 11.7zm215.9 148.3c.3 10 2.9 13.7 8.7 12.6-2-4.6-1.6-10.7-8.7-12.6zm28.6 37.1c1.1 11.2 1.7 12.3 8.9 14.4-3.9-4-1.2-11.7-8.9-14.4zm-318.8 134.8c1.2 6.8 2.3 12.7 3.4 18.6h1.4c.3-3.5.6-6.9 1-10.4s-1.5-6.1-5.8-8.1zm131.9 64.4-2.8 9.8 4.3 5c3.4-7.2 2.8-13.2-1.5-14.8zm63.5-25.7h.8l4.2-8c1.9-3.9 3.8-7.8 5.5-11.8.2-.6-.9-1.8-1.3-2.8-.8.5-2.1.9-2.3 1.6-2.4 6.9-4.6 14-6.9 21zm-112.4-25a49.8 49.8 0 0 1 -1.2 7.4c-1.8 5.3-1.9 5.3 3.2 8.4-2.5-5 5.1-10.6-2-15.8zm-33.6-345.8c-9.4.5-10 1.5-6 9.2l7.3-5.7zm108.2 313.2-4.9 14.8 1.6.7a23.5 23.5 0 0 0 2.3-3.2c1.1-2.4 1.5-5.3 3.2-7 3.3-3.6.8-4.1-2.2-5.3zm-19.1 60.4 1.9.5 6.6-25.5-1.4-.3c-2.3 8.4-4.7 16.9-7.1 25.3zm-146.8-24.3c5.8-1.9 6.4-4.7 2.6-14.2-.8 4.5-1.6 9-2.6 14.2zm120.3-66.3c-1 2.9 1.7 6.7 6.2 8.5 2.2-5.4 1.1-6.8-6.2-8.5zm-5.2-159.3c4.6-3.7 2.5-9.3-4-14 1.3 4.4 2.6 8.9 4 14zm-132.9 95.3 1.3.3a101 101 0 0 0 3.6-11c.3-1-.7-2.4-1.2-3.7-.7.9-1.8 1.8-2 2.8-.7 3.8-1.2 7.7-1.7 11.6zm40-201.3c3.3-2 4.5-4.7 3.9-9.2l-7.3 2.8zm185.8 68.9-.3-2.1c-4.5 1-9.4-1.3-13.7 1.5l.2 1.6zm-112.5 238.3 2.3.6c2-6 1.9-12.3 2.3-18.6-1.6 6-3.1 12-4.6 18zm-35.4-225.1-.9 1.3 3 7.5c3.1-1.7 4.4-4.2 3.1-6.8s-3.4-1.3-5.2-2zm-26.5 136 1.2-4.8a14.8 14.8 0 0 1 -2.9-1.2 15.6 15.6 0 0 1 -2-1.6c-3.1 6-3.1 6 3.7 7.6zm58.2-215.9-5.8 4.6 6.5 3.2a8.3 8.3 0 0 1 .8-1.2zm23.2 80c3 2 2.8 8 7.9 4.3 0-5.4-3.4-4.9-7.9-4.3zm201.6 65c.7 2.5 1.3 4.7 2.1 6.8s1.6 3.5 2.4 5.3c1.1-4.9-2-11.6-4.5-12.1zm-139.4-235.4-1.4.7 1.6 7.3 5.5-3.5zm62.8 42.7v-1.2l-7.5-4.3v6.2zm-64.3 78.8c-.3-2.4-.6-4.3-.9-6.8l-7.9 2.6zm92 328.2 1.5.4c3.7-3 3.7-6.4.5-10.6-.7 3.7-1.4 7-2 10.2zm-248.6-325.3-1.3-.9c-5.5 1.6-3.4 7.1-4.7 10.8zm282.7-37.6c-1.2 6.1.3 7.1 7.1 5.1zm-179.2 93.8 6.4 9.5c.5-5.1-2.5-9.6-6.4-9.5zm-156.1 59.2h1.3l1.1-7.5-4.7-.9zm511.5 5.3c3.4-5.4 1.9-7.8-2.6-9.5.8 3 1.5 5.7 2.6 9.5zm-498.4-201c-6.7 2.5-6.9 3-4.6 8.2zm198.2 480.6 1.4.2c1-4.4 2-8.9 2.9-13.3l-1.2-.2c-1 4.4-2.1 8.8-3.1 13.3zm-104.4-485.5.6 1.6 5.5-1c-.1-1.7-.2-2.9-.4-5.1zm70.5 226.2 5.8-6.7-1.5-1.4c-4.2.3-3.3 4.9-4.3 8.1zm-9.1-95.1h-7.2c.4 2.7.4 2.7 7.2 0z"/></g><g opacity=".2"><path d="m1794.5 312.7c-.4 2.3-.5 4.6-1.1 6.8-2.1 9.2-4.3 18.4-6.7 27.5a227.9 227.9 0 0 0 -6.3 34.9c-.8 8.6-2 17.3-3.2 25.9-2.6 19.6-2.7 39.4-2.5 59.2.1 11.7.5 23.4 1.3 35.1.7 10.2 2.1 20.3 3.3 30.4 0 .4.3.7 1.1 1.1s.2-2.1.2-3.2c-.6-27.7 0-55.5 2.1-83.2.6-7.4 1.7-14.8 2.8-22.2s1.9-13.9 3.2-20.7c2.2-11.5 4.4-22.9 7-34.2a209.1 209.1 0 0 1 6.1-20.9c4-11.6 8-23.2 12.8-34.4 3.7-8.5 8.5-16.4 13-24.5a15.3 15.3 0 0 1 4.8-5l-3.3 9.6c-2 6.2-4.2 12.3-5.9 18.5q-3.7 13.1-6.9 26.1c-2.5 9.8-4.7 19.6-7 29.5s-4.2 19.1-6.2 28.6q-1.8 7.8-3.3 15.6c-2.2 11.8-4.3 23.7-6.4 35.6-1.1 6.5-2.3 13-3.3 19.6-1.2 8.3-2.3 16.6-3.5 24.9l-2.7 18.4-3 19 .9.5 4.9-6.2a85.4 85.4 0 0 0 11.5-25.1c2.2-7.6 4.7-15.1 7-22.7s4.2-13.7 6.1-20.6c2.4-9.1 4.6-18.3 6.9-27.5s4.2-17.2 6.1-25.9 4.1-19.4 6.1-29 4-17.9 6.5-26.7c-.9 5.6-1.9 11.2-2.7 16.9s-1.1 12-2 18c-1.4 9.5-3.2 19-4.7 28.6-.8 4.6-1 9.2-1.8 13.8q-3 16.8-6.3 33.6a80.2 80.2 0 0 1 -2.3 8l.9.4c1.5-2.8 3.1-5.5 4.3-8.4q4-9.3 7.8-18.9c4.5-11.3 8.9-22.6 13.3-34 2.3-5.8 4.4-11.7 6.7-17.5s5.1-13 7.5-19.6c1.6-4.6 2.9-9.3 5-13.8-.5 2.5-.9 5-1.5 7.4s-1.4 4.2-2 6.3l-7.5 26.2c-2.1 7.2-4.2 14.4-6.5 21.5s-5.1 14.8-7.6 22.2c-1.8 5.3-3.1 10.8-5 16.1-2.6 7.1-5.4 14.1-8.2 21.1s-4.4 11-7.1 16.2c-3.4 7-7.2 13.7-11.1 20.4s-7.5 13.2-11.8 19.4-7.4 9.2-11.2 13.8c-.6.8-1.7 1.7-1.7 2.6a128 128 0 0 0 .6 17.5c33.7-47.3 69.9-92.4 105.2-138.3l.7.4c-1.9 4.1-3.7 8.3-5.9 12.3-3.9 7.2-8.1 14.3-12.3 21.4-2.5 4.2-5.1 8.4-7.9 12.4-4.9 7.1-10 14-15.1 20.9s-8.1 10.8-12.3 16-10.5 12.6-15.9 18.7c-6.8 7.9-13.8 15.6-20.9 23.3-3.7 4-7.8 7.7-11.5 11.7a74 74 0 0 0 -5.3 7.2h.1a137.1 137.1 0 0 1 -.3-14.3c.7-7.3-1.7-14-3.4-20.8s-4.2-15.6-5.9-23.5-3.7-17.9-4.8-26.9a208 208 0 0 1 -1.5-24.9c.1-15.5.5-31.1 1.4-46.7.4-8 2.1-15.9 3.4-23.8.8-5.2 1.8-10.5 3.1-15.6 2.3-9.1 4.9-18.1 7.5-27.2 1.1-3.9 2.2-7.9 3.6-11.8 2.4-7 4.9-14 7.4-20.9z"/><path d="m1444.4 824.2-1.2 1.3a35 35 0 0 0 -3.3-4.3c-9.2-8.8-18.5-17.4-27.6-26.3-6.1-6-11.8-12.3-17.7-18.5-3.6-3.8-7.5-7.4-11.1-11.3s-8.7-9.9-12.9-15c-6.5-7.8-13.1-15.5-19.3-23.5-4.8-6-9.1-12.4-13.5-18.6s-8.2-11.5-12.1-17.4c-2.8-4.2-5.3-8.6-7.7-12.9-3.9-7.2-7.9-14.4-11.4-21.8-2.3-4.9-3.8-10.2-5.7-15.3l1-.4 9.8 13.5 11.3 15.3c2.6 3.5 5.1 7.2 7.8 10.7l11.8 15.2c2.7 3.6 5.2 7.4 8 11s7.8 9.5 11.6 14.4 6.9 9.1 10.3 13.6 5.3 7.2 8.1 10.7 8 9.7 12 14.6l15.1 18.8c4.5 5.5 8.8 11.1 13.2 16.6a18.3 18.3 0 0 0 3.1 2.4l.4 1.5a7.5 7.5 0 0 0 .5 1.6z"/><path d="m1478.4 881.1 6.5 6.4c-5.6.2-11.2.7-16.8.6-9.1-.3-18.3-.1-27.2-1.6-11.7-1.9-23.2-5-34.7-7.9a157.3 157.3 0 0 1 -15.2-4.7c-7.1-2.6-14.2-5.6-21.3-8.4-2.9-1.2-5.9-2.2-8.7-3.5-5.9-2.8-11.7-5.8-17.5-8.7s-9.7-4.5-14.3-7.1c-9.1-5-18-10.3-27-15.5a36.5 36.5 0 0 1 -6.9-4.7c3.9 1.7 7.8 3.3 11.7 5.1 5.8 2.6 11.6 5.5 17.5 8.1 7.6 3.3 15.3 6.6 23.1 9.5 10.2 3.7 20.5 7.2 30.9 10.6 6.8 2.2 13.6 4.3 20.5 6.1 10 2.5 20.1 4.8 30.2 7 5.6 1.2 11.2 1.9 16.9 2.9l24.5 4.4z"/><path d="m1779.3 573-1.1.9c-2-5.5-4.1-11.1-5.9-16.7s-4-12.6-5.9-18.9c-1-3.6-2-7.1-2.8-10.8-2-8.7-3.8-17.4-5.6-26.2-1.2-5.8-2.1-11.8-3.5-17.6a258.1 258.1 0 0 1 -6.1-42.8c-.9-12.3-2.6-24.5-2.6-36.7-.1-18.9.6-37.7 1.4-56.6.3-7.1 2-14.2 2.6-18.7 0 7.3-.1 17.3.1 27.3s.3 18.4.8 27.6 1.6 19.7 2.6 29.5 2.3 20.5 3.5 30.7c1.1 8.5 2.1 17 3.5 25.5s3.3 18.9 5 28.3 2.8 17.4 4.4 26.1c2 10.4 4.1 20.8 6.1 31.2 1.2 6 2.3 11.9 3.5 17.9z"/><path d="m1771.9 580.5-3.2 3c-3.2-5.4-6.7-10.7-9.7-16.2s-5.7-11.8-8.3-17.8-3.5-9.7-5.1-14.6c-2.7-7.9-5.3-15.8-7.8-23.8a42.9 42.9 0 0 1 -1.3-6c-1.5-7.3-2.7-14.6-4.5-21.8-3.4-12.9-5.1-25.9-6.2-39.1s-2.4-26.2-3.4-39.3c-.7-8.4-1.1-16.9-1.5-25.4a20.5 20.5 0 0 1 .7-3.4l1.7.9c.2 3.3.5 6.6.8 9.8 1.3 11.8 2.3 23.7 4 35.5s4 23.8 6.1 35.6c1 5 2 10 3.3 14.9 2.3 9.2 4.9 18.3 7.4 27.5 1.6 6.3 3.1 12.5 5 18.7s5.1 14.9 7.8 22.3c1.5 4.3 2.8 8.6 4.5 12.8 2.9 7.2 6 14.4 8.9 21.6a19.3 19.3 0 0 1 .8 4.8z"/><path d="m1495.6 898 4.9 5.1a40.3 40.3 0 0 1 -4.9.3c-9.4-.3-18.7-.4-28-1.1s-19-1.7-28.4-2.8c-7.4-.9-14.8-2-22.1-3.3-11.4-2.1-22.6-4.3-33.9-6.8-7.2-1.7-14.3-3.6-21.4-6-10.3-3.4-20.5-7.3-30.8-11l-8.7-3.4-10-4.3.3-1c3.9 1.3 7.7 2.7 11.7 3.7 6.6 1.8 13.4 3.4 20.1 4.9 9.9 2.2 19.7 4.3 29.7 6.3 5 1.1 10.1 2 15.2 2.9 10.6 1.9 21.1 3.9 31.7 5.5s22.1 3 33.2 4.5l25.4 3.5c5.4.9 10.7 2 16 3z"/><path d="m1417.2 818.8a76 76 0 0 0 5.2 6.1c3.2 3.4 6.6 6.6 9.9 10-1-.1-2.2.2-3.1-.3-8.7-4.9-17.5-9.8-26.1-15.1-11.2-6.9-22.2-14.1-33.2-21.3-7.3-4.8-14.5-9.5-21.5-14.6s-11.9-9.6-17.9-14.4-9.7-7.2-14.2-11.1-10.1-9.6-15.2-14.5l-10.4-10a32.6 32.6 0 0 1 -2.9-3.6l.6-.7c1.2 1.1 2.4 2.2 3.7 3.2 5.1 4.1 10.1 8.3 15.3 12.3s11.4 8.7 17.2 12.9 10.6 7.1 15.9 10.8 11.3 8.1 17 12c3.5 2.3 7.2 4.4 10.8 6.7l23.7 15.4c5.8 3.8 11.9 7.3 17.8 11.1 2.5 1.6 4.9 3.4 7.4 5.1z"/><path d="m1492.5 616-3.8 3.6c-4.9-6.5-9.9-12.9-14.6-19.5-3.1-4.4-5.6-9.2-8.6-13.8l-11.5-17.7a5.6 5.6 0 0 1 -.9-3.5c4.5 6.1 8.8 12.4 13.6 18.3s11.8 14.2 17.8 21.3l7.9 9.8c.3.4.1 1 .1 1.5z"/><path d="m1454.1 654.4-2.8 2.7-20-21.1.5-.8a11.8 11.8 0 0 1 1.9 1.1l15.8 13.4c1.6 1.5 3.1 3.1 4.6 4.7z"/><path d="m1723.3 377-1.7-.9c-.2-.3-.5-.5-.5-.8-.1-8-.1-15.9-.1-23.9h1.1z"/><path d="m1794.5 312.7-3.1 2.2c1.5-4.3 2.8-8.5 4.5-12.7a34.8 34.8 0 0 1 5.4-9.1z"/><path d="m1417.2 818.8 15.4 9.5c4.3 2.6 8.6 5.2 12.8 7.9l17.6 11.3a28.2 28.2 0 0 0 6.8 3.2c-1.8-1.8-3.7-3.6-5.3-5.5-4.3-4.9-10.4-6.6-15.7-9.8s-9.6-4.6-13.3-8.1c-6.7-6.4-15.2-9.5-22.5-14.8q-13.8-10.1-27-20.7a186.1 186.1 0 0 1 -14.9-13.1c-5.2-5-10.1-10.4-15-15.7l-16.4-18c-1.8-2.1-3.5-4.2-5.2-6.4-6.2-8.4-12.6-16.7-18.6-25.2-4-5.6-7.4-11.6-11.1-17.4s-7.4-11.8-11-17.8a35.5 35.5 0 0 1 -4-9.4c1.8 2.5 3.7 4.9 5.5 7.3 4.7 6.5 9.3 13 14.1 19.4s7.5 9.8 11.4 14.6 9.9 11.6 14.8 17.4c2.6 3 5.1 6.2 7.8 9 6.3 6.6 12.8 13.1 19.1 19.7 3.5 3.7 6.8 7.6 10.5 11.2s7.2 6.7 10.9 10 8.7 7.5 13.1 11.2 11.6 10.2 17.5 15c9 7.3 18.1 14.2 27.1 21.3a4.4 4.4 0 0 0 1.6.6l1.2-1.3c-.5-4.8-1.1-9.6-1.7-14.4a3.2 3.2 0 0 0 -1.5-1.9l-12.3-6.8-4.5-2.6-.4-1.5 15.4 3.9c-3.4-6.8-6.4-13-9.6-19.2a77.7 77.7 0 0 0 -4.8-7.8 27.6 27.6 0 0 0 -3-2.9c-.6-.8-3-1.2-.7-2.8.2-.1-.2-1.2-.5-1.8-2.6-4.3-5.2-8.7-8-13s-5.3-8.4-8.1-12.5l-10.9-15c-2.5-3.5-5-7-7.6-10.4-4.9-6.4-9.6-12.7-14.6-19s-9.8-11.9-14.7-17.9a7 7 0 0 1 -1.2-2.8c24.9 25.6 48.5 52.2 69.8 81.1-1.9-4.7-3.6-9.4-5.6-13.9s-5-9.9-7.4-14.9c-3.5-6.9-6.8-13.9-10.4-20.8s-8.2-14.7-12.4-22-7.2-12.8-10.9-19.1c-1.4-2.3-3.1-4.4-4.5-6.6a5.8 5.8 0 0 1 -1.2-3.4c4.9 6.6 10 13.1 14.7 19.8s7.3 11.6 11 17.4c6 9.4 12.2 18.7 18.1 28.2 2.7 4.2 4.6 8.9 7.2 13.2a9.5 9.5 0 0 0 4.1 3.6c5.7 2.7 11.6 5.1 17.4 7.7 2.4 1 4.8 2.3 8.1 3.9-.6-4.2-1.1-7.4-1.7-10.7-.1-.6-.7-1.3-.6-1.8 1.5-10.2-6.9-12.8-13-17.3s-11.1-8.4-16.6-12.6l.5-.7 26.1 14 .8-.6c-.5-1.8-1-3.5-1.3-5.2-1.4-7.8-2.7-15.6-4.3-23.4-.3-1.4-1.8-2.6-3-3.7-3.5-3-7.1-5.9-10.7-8.8l.6-.9 11.7 7.2v-4.1h.8c1.6 5.5 5.9 8.1 10.8 10.4 6.9 3.2 13.4 7.2 20.2 10.7 2.9 1.6 6.1 2.8 9.1 4.1l26.5 11.3 22.4 9.4c8.7 3.7 17.4 7.4 26.1 10.9 6.4 2.5 13 4.7 19.4 7.2 4.7 1.9 9.3 4.1 14.1 6s8.1 2.7 12 4.2 6.4 2.6 9.5 4l.5-.8-1.9-2.8c7.6 7.3 17.6 9.4 26.8 13a43.6 43.6 0 0 0 8.7 2.6l-9.2-16.3c-.2-.4-.6-.8-.6-1.2-.9-5-4.2-5.7-8.7-5.6a106.5 106.5 0 0 1 -16-.7c-7.4-.9-14.9-1.7-22-3.5-10.3-2.6-20.5-5.8-30.5-9.4a175.4 175.4 0 0 1 -21.2-9.7c-6.3-3.3-12.3-7.2-18.4-11s-11.2-7.1-16.6-11-12.6-9.6-18.6-14.7c-8.3-6.9-16.4-14-24.3-21.2-3.5-3.2-6.6-6.9-9.8-10.3l2.8-2.7c2.9 2 5.8 4 8.6 6.1 4.9 3.7 9.6 7.4 14.5 11s7.6 5.7 11.5 8.3 7.8 5.2 11.8 7.7c8.2 5.1 16.4 10.2 24.6 15.1 2.4 1.5 5 2.5 7.5 3.8 8.3 4.3 16.6 8.8 25.1 12.8 6.4 3 13 5.3 19.5 8s12.4 5.3 18.8 7.7 12.2 3.8 18.3 5.7l15.2 4.5a19.7 19.7 0 0 0 3.5.4c-1.3-2.4-2.4-4.3-3.3-6.4-2.4-5.1-5.1-9.3-11.6-10.3-4.5-.7-8.8-3.2-13-5.2-8.7-4.4-17.5-8.7-25.7-13.7a179.1 179.1 0 0 1 -22.6-16.2c-9.2-7.8-18-16.2-26.6-24.7-7-7.1-13.4-14.8-20-22.2-4.8-5.5-9.5-11-14.1-16.6-2.7-3.4-4.9-7.1-7.4-10.6l3.8-3.6a59.5 59.5 0 0 1 5.4 4.6c4.5 4.8 8.7 9.9 13.3 14.7s9.9 9.7 14.8 14.6 7.3 7.6 11.1 11.3 7.4 6.8 11.2 10.2l7.7 6.7c5.1 4.3 10.2 8.6 15.4 12.7s13.1 10.3 19.8 15.4c3.2 2.5 6.6 4.7 10 7.1 5.7 3.9 11.4 8 17.2 11.9a30.7 30.7 0 0 0 4.5 2l.6-.6c-2.6-2.9-5.1-5.8-7.7-8.6s-7.8-8.4-11.8-12.5-9.8-9.7-14.7-14.6-7.5-7.8-11.3-11.6-7.3-6.7-10.7-10.2-9.5-10.1-14.1-15.2-10.2-11.3-15.1-17.1-7.7-9.7-11.5-14.6-7.6-9.7-11.3-14.7c-2.6-3.5-5-7.2-7.4-10.8-3.7-5.7-7.4-11.4-10.9-17.2s-5.8-10.2-8.7-15.4-5.5-10.1-8.1-15.2c-1.4-2.7-2.4-5.6-3.6-8.3a89.3 89.3 0 0 1 -4.5-13.2c3.4 6 6.6 12.1 10.3 17.9s8 11.5 12 17.2 6.7 9.6 10.3 14.3c4.6 6.2 9.5 12.3 14.2 18.5l8.1 10.4 12 14.6c3.5 4.4 7.1 8.8 10.7 13.1l13.7 16.2 9.5 11.5 10.9 12.9 13.7 15.7c4.1 4.8 8.3 9.5 12.5 14.3a11.9 11.9 0 0 0 3 2.9c-1.2-2.9-2.2-5.9-3.5-8.8s-3.2-6.6-5-9.8a27.3 27.3 0 0 0 -4-5.6c-5.4-5.2-11.2-10-16.6-15.3s-7.8-8.9-11.6-13.4-7.9-9.5-11.6-14.5a95.7 95.7 0 0 1 -7.1-10.8c-5.4-9.5-10.8-18.9-15.6-28.6a141.8 141.8 0 0 1 -8.1-19.8c-3.7-11.2-7.2-22.4-10.2-33.7-2.5-9.7-4.5-19.5-6.2-29.4s-2.5-17.4-3.6-26.2-1.7-15-2.5-22.4l1.1-.2c1.2 5.8 2.1 11.7 3.5 17.5 2.4 9.4 5 18.8 7.6 28.2 1.3 5 2.6 10.1 4.2 14.9 2.8 8.3 5.8 16.4 8.8 24.6 1.3 3.5 2.4 7.2 3.9 10.7q4.5 10.7 9.3 21.3c2.3 5.1 4.5 10.4 7 15.4 3.7 7.2 7.7 14.3 11.5 21.4 3 5.4 5.6 11 8.8 16.3s7.7 11.6 11.6 17.4 7.7 11.7 11.5 17.5a5.2 5.2 0 0 0 1.1 1 7.8 7.8 0 0 0 0-2.2c-3.2-6.4-6.3-12.7-9.5-19s-5.4-10-7.8-15.1-5.2-12.2-7.7-18.3-6.1-14.5-9-21.9c-1.5-3.8-2.8-7.8-4.1-11.7-2.6-7.4-5.3-14.8-7.8-22.2a50.7 50.7 0 0 1 -1.3-5.6c-2.7-10.9-5.3-21.8-8.1-32.6s-4.8-24.8-6.4-37.3a202.9 202.9 0 0 1 -1-35.7 40.2 40.2 0 0 1 2.4-9.8c1.3 5.8 2.4 11.7 3.7 17.5 2.3 10.1 4.5 20.1 6.9 30.2 1.7 7.1 3.8 14.1 5.6 21.1l7.1 27.5c2 7.4 4.1 14.7 6.2 22.1s4.7 17.1 7.1 25.7c1.9 6.8 4 13.5 5.9 20.3 3.3 11.4 6.5 22.9 9.8 34.3 2.2 7.9 4.5 15.7 6.8 23.6.6 2.1 1.4 4.1 2.3 6.9l2.5-6.4c5.9-15.2 3.9-30.9 3-46.4-.6-10.1-1.9-20.1-3.5-30.1-1.8-11.6-4-23.1-6.5-34.6-1.9-8.9-4.2-17.8-6.7-26.6s-5.4-15.2-7.3-23a91.8 91.8 0 0 0 -6.2-18.3c-.2-.3.1-.8.4-1.7l3.6 8.4c3.1 7.2 6.4 14.4 9.3 21.8 2.1 5.3 3.7 10.8 5.6 16.2 2.5 7.1 5.3 14 7.5 21.1s3.8 13.2 5.5 19.9 3.9 15.8 5.9 23.7c.1.5.6.9 1.2 1.7a11.2 11.2 0 0 0 .4-2.1c0-19.6.2-39.3-.2-59-.2-10.9-1.4-21.7-2.5-32.6-.9-8.4-2.3-16.8-3.5-25.2a33.6 33.6 0 0 0 -1.3-4.8l1.1-.3c1.3 6.2 2.8 12.4 4.1 18.6 1.9 9.6 3.9 19.1 5.6 28.8 1 6.1 1.5 12.4 2.3 18.6.9 8.7 1.7 17.6 3 26.3a41 41 0 0 0 3.1 11.9c1.3 3 4.1 5.4 6.3 8l14 17.2c1.6-4.5 3.1-8.5 4.2-12.7.3-1.3-.5-3.1-1.2-4.4-2.7-4.5-5.6-8.8-8.2-13.3-4-6.6-7.8-13.3-11.6-20.1a62.1 62.1 0 0 1 -3.1-7c-1.6-4-3.1-8-4.7-12.1l.8-.4 5.8 8.7c2.4 3.4 4.8 6.9 7.3 10.3 3.7 5 7.5 9.8 11.3 14.7l6.6 8.3c1.3 1.6 2.1.8 2.6-.8 1.3-4.3 2.9-8.5 3.8-12.9.3-1.9-.5-4.3-1.4-6.2-2.2-4.7-4.8-9.2-7.1-13.9-3.1-6.2-6-12.4-8.8-18.7a88.8 88.8 0 0 1 -3.6-9 112.5 112.5 0 0 1 -3.8-12.9c7.9 16.8 17.7 32.5 28.5 48.9 1.5-5.6 3.3-10.2 3.7-14.9s-1-6.8-2.2-10c-2.6-6.5-5.8-12.7-8.5-19.2s-5.4-13.4-7.9-20.3a81.8 81.8 0 0 1 -3.9-15.5c2 4.8 3.9 9.7 6.1 14.5s5.6 10.9 8.4 16.3l7.2 13.5a53 53 0 0 0 3.3 5.7c.4.5 1.5.5 2.5.7-.1 7.4 5.8 12.1 9.1 18.2a78.7 78.7 0 0 0 8 12.3c3.1 3.9 4.2 9.3 9 11.8a1.1 1.1 0 0 1 .4.9c1.1 5.6 5.8 9 8.4 13.7s5.5 8 8.3 11.9 7 9.5 10.5 14.1 5.6 7.2 8.4 10.7l15 18.9c2.8 3.5 5.4 7.1 8.2 10.5a14.5 14.5 0 0 0 1.8 2.1c.5-3.5.9-6.4 1.3-9.6.2.5.3.6.3.8-2.9 9.6 3.3 15.6 8.7 21.9a25.6 25.6 0 0 1 2.2 2.6c.5-3 .9-5.5 1.2-8h.3a23.6 23.6 0 0 1 0 4.6c-.8 4.6 1.6 7.4 4.5 10.4s7.9 9.4 11.8 14.1c.5.7.4 1.7.6 2.6l1.3-1.3c-1-8.5-2.1-17-3.2-25.5a3.3 3.3 0 0 0 -.8-1.9c-5.7-5.7-11.6-11.2-17.2-17-3.6-3.8-7-7.9-10.4-11.9s-7.7-8.6-11.4-13.1-7.7-9.7-11.5-14.7-7.6-9.9-11.3-15-5.1-7.8-7.6-11.7c-3.7-5.6-7.4-11.2-10.9-17s-5.7-9.6-8.4-14.4-5.6-10.1-8.3-15.2c-1.3-2.5-2.5-5-3.7-7.5-2.6-6.1-5.3-12.1-7.8-18.2s-6.2-14.6-8.8-22-4.9-16-7.4-24.1c-.5-1.8-1.2-3.5-1.8-5.3l.8-.4a3.2 3.2 0 0 1 1 1c2.6 6.6 5 13.2 7.9 19.6s7.4 15.1 11.1 22.6 6.9 13.8 10.7 20.5 7.7 12.5 11.4 18.8c2.6 4.4 5 8.9 7.7 13.3 3.8 6.1 7.8 12 11.7 18 2.4 3.7 4.6 7.6 7.1 11.2l18.8 27.3c3.8 5.4 7.4 11 11.3 16.3 5.7 7.9 11.6 15.6 17.4 23.4 2.5 3.4 4.9 7 7.4 10.5a30.5 30.5 0 0 0 2.3 2.6c0-2 .1-3.3 0-4.6-.8-6.9-2.1-13.7-2.4-20.5-.1-3.8-1.9-5.6-4.4-7.4-6.6-5-13.6-9.4-19.5-15s-12.1-13.1-17.7-20-9.7-12.9-14.1-19.6a116 116 0 0 1 -8-14.7c-5.2-10.7-10.1-21.5-15-32.4a103.6 103.6 0 0 1 -3.8-11.1c-2.7-8.6-5.5-17.3-7.9-26.1s-4.8-17.9-6.8-27-4.2-21-6.2-31.5c-1.2-6.2-2.2-12.5-3.2-18.8h.9c1.5 6.7 2.7 13.4 4.5 20 2.6 9.6 5.5 19.2 8.5 28.6s6.7 20.7 10.5 30.9c2.7 7.6 5.9 15.1 9.2 22.4s7.6 15.8 11.5 23.7c2.3 4.7 4.4 9.5 7 14 6.2 10.3 12.5 20.6 18.9 30.8 3.6 5.8 7.2 11.5 11.2 16.9s7.7 9.7 11.7 14.4a134.2 134.2 0 0 0 11.3 12.5c-.3-5.4-.2-11-1.3-16.3-.6-2.8-3.5-5-5.1-7.6s-5.1-8.2-7.7-12.2l3.2-3c1.9 3.2 3.8 6.3 5.5 9.5s2.4 4.9 4 8.2c.3-8.4-.1-15.5-3-22.4a11.1 11.1 0 0 1 -.2-1.9l1.1-.9 1.6-1.7h-.1a6.8 6.8 0 0 1 1.1 2.5c.4 5.6.6 11.3 1.3 17.1 36.4-42.7 68.9-87.9 96.4-136.7l.9.4-10.8 21.4c-3.8 7.5-7.4 15.1-11.3 22.5s-7.7 14.5-11.6 21.8l.8.5c6.7-10 13.8-19.7 20.1-29.9s12-21.2 18.4-31.7c-2.2 5.8-4.4 11.6-6.7 17.4l-3.7 8.8c-2.6 6-5 12-7.8 17.8s-5.2 9.2-7.8 13.8-5 9.2-7.8 13.5c-5 7.7-10 15.2-15.3 22.6s-10.8 14.8-16.6 22-10.6 12.7-16.2 18.9-11.7 12.6-17.8 18.7c-2.5 2.6-1 5.4-.8 7.9.3 4.8 1.4 9.6 2.2 15.1 5.7-6.2 11.2-11.9 16.6-17.8s8.2-9 12-13.7 7.4-10 11-15.1 6.6-9.6 9.9-14.4 5-6.8 7.1-10.5c4.9-8 9.6-16.2 14.2-24.4s8.3-14.9 12.2-22.5c2.9-5.5 5.4-11.1 8-16.7a210.9 210.9 0 0 1 9.8-18.9l-5.4 16c-.4 1-1 2-1.4 3l-8.9 23.1c-1.5 3.8-2.8 7.8-4.4 11.5-2.7 6.2-5.7 12.3-8.6 18.5-1.4 3.1-2.6 6.4-4.2 9.5-4 7.5-8.1 15-12.2 22.4-2.5 4.5-5.2 8.8-7.7 13.2l-17.3 19.9c-8.3 9.5-19 15.7-30.9 21 1.3 9.4 2.7 18.8 4 28.4.7-.4 1.4-.6 1.7-1l10.2-17c3.8-6.2 7.6-12.5 11.5-18.7s8.4-12.8 12.7-19.1c1.1-1.7 2.6-3.2 3.6-4.9s3.2-5.6 4.8-8.3c3-4.2 6.1-8.4 9-12.7 4.2-6.2 8.4-12.5 12.4-18.8 2.8-4.3 5.1-8.9 7.7-13.3 3.6-6.3 7.5-12.5 11.1-18.8 1.9-3.4 3.5-7 5.2-10.5a46.1 46.1 0 0 1 4.6-7.7c-.8 3.1-1.4 6.3-2.4 9.4-1.7 4.9-3.5 9.9-5.5 14.7-2.7 6.4-5.7 12.7-8.6 19.1s-4.6 9.9-7.2 14.7c-4 7.4-8.1 14.7-12.5 21.9s-8.3 13.2-12.8 19.6c-6.7 9.4-13.4 18.9-20.6 27.9-5.6 7.1-12 13.6-18.1 20.3-2.8 3.1-5.8 5.9-5 10.9s1.4 12.1 2.1 18.6c5.5-4.6 7.1-10.2 8.2-16.2v5.8a696.7 696.7 0 0 0 41.9-61c12.7-21 24.7-42.4 37.2-63.8-2.2 5.3-4.2 10.6-6.4 15.8-1.1 2.6-2.6 5.1-3.7 7.7-2.7 6.3-5.1 12.9-8.1 19.1-4.7 9.6-9.6 19-14.6 28.4a175 175 0 0 1 -10.3 17.8c-6.5 9.7-13 19.4-21.4 27.6-4.6 4.5-8.6 9.5-13.3 13.9-3 2.8-1.8 6.4-2.9 9.5s-.6 7.1-.2 11.1l2.6-3c6.6-8.2 13.3-16.2 19.6-24.6 4.7-6.2 8.8-12.8 12.9-19.4 5.5-8.7 10.7-17.5 15.9-26.5 3.5-6 6.7-12.2 9.9-18.4 4.8-9.1 9.6-18.1 14.2-27.2 2.7-5.4 5.1-10.9 7.6-16.3s4.1-8.6 6.2-12.9l1.1.4-32.3 79.2c14.8-25.6 26.3-52.9 37.2-80.5l.9.3c-1.8 6-3.7 11.9-5.4 17.9-.6 1.9-.8 3.8-1.4 5.6l-8.4 25.1c-1.3 3.7-2.5 7.5-3.8 11.2-2.6 6.8-4.9 13.8-8 20.4-5 10.9-10.2 21.9-16.2 32.4a146.2 146.2 0 0 1 -15.7 22.5c-6.4 7.5-13.8 14.3-21.1 20.9-3.9 3.6-8.7 6.2-12.9 9.5a4.7 4.7 0 0 0 -1.3 3.6 174.8 174.8 0 0 0 4.4 18.7c5.3-9.3 14.1-16.5 16-28.1l1.2 2.6c1.4-2.1 2.8-3.9 3.9-5.7 6-9.6 12-19.1 17.8-28.8s12.8-21.6 19.1-32.4c4.8-8.4 9.7-16.8 14.3-25.4s7.6-15.3 11.5-23 7.9-15.5 11.9-23.3a19.6 19.6 0 0 1 3.4-5.7c-1.5 4-2.8 8.1-4.3 12.1s-3.3 7.5-4.8 11.3c-3.6 9-7 18.2-10.6 27.2s-6.7 15.6-10.3 23.3-7.3 15-11.1 22.4-6.7 13.1-10.6 19.3-9.6 14.6-14.6 21.7c-3.1 4.5-6.7 8.8-10 13.2a1.4 1.4 0 0 0 -.3 1.2c-.2 4.2-.4 8.4-.4 12.7-.1.5.3 1.1.8 2.3 1.7-2.6 3.2-4.7 4.6-7 3.4-5.8 6.7-11.8 10.2-17.6s7.9-12.4 11.7-18.7c1.9-3.2 3.5-6.6 5.3-9.8l11.5-20.6c2.5-4.5 4.8-9.1 7.2-13.6 4.1-7.7 8.2-15.4 12.2-23.2 1.3-2.5 2.3-5.2 3.5-7.8q5.7-12.5 11.4-24.6a15.6 15.6 0 0 1 2.7-4 39.6 39.6 0 0 1 -1.3 4.6c-2.2 6.2-4.6 12.4-6.9 18.5-3.2 8.4-6.2 16.7-9.6 25-5.2 12.6-10.6 25.2-16.3 37.7-3.7 8.3-7.8 16.6-12.3 24.5s-9.2 14.7-13.9 21.9c-3.7 5.6-7.6 11.2-11.6 16.6-2.6 3.5-5.6 6.8-8.4 10.2a5 5 0 0 0 -.9 2.4c-.1 5.2 0 10.4.4 15.9 4.5-7.9 12.7-13.5 13.8-24.1l.9 3.1a49.4 49.4 0 0 0 3.6-4.4c4.8-7.7 9.5-15.4 14.2-23.1s8.5-13.7 12.6-20.6c5.1-8.5 10.2-17.1 15.2-25.7 4.1-7 8-14.1 11.9-21.2 2.8-5.3 5.4-10.6 8.1-15.9l9.3-18.1v2.7c-.9 2-2 3.9-2.8 5.9-1.7 4.1-3.2 8.4-4.9 12.5-2.8 6.8-5.7 13.6-8.6 20.3s-6.7 15.6-10.1 23.3c-1.3 2.9-2.6 5.8-4 8.6q-5.6 10.9-11.4 21.9c-2.4 4.7-4.7 9.5-7.5 13.9-3.8 6-8 11.7-12.1 17.4s-8.1 10.2-12 15.5a10.5 10.5 0 0 0 -1.8 4.2c-.6 3.8-.9 7.7-1.3 11.5 0 .8.3 1.6.5 3.4l2.5-3.9c2.3-3.9 4.6-7.9 7-11.7s6.3-9.5 9.2-14.4 6.8-12.2 10.2-18.3 7.8-13.6 11.6-20.4c2.5-4.7 4.8-9.5 7.3-14.3 4.1-7.7 8.3-15.4 12.3-23.2s6.4-12.9 9.6-19.3l6.3-12.4v5.5c-1.8 4.3-3.8 8.5-5.5 12.9-3.2 8.2-6.2 16.5-9.5 24.6-4.9 12-9.9 24-14.9 35.9-1 2.3-2 4.5-3.1 6.7-3 5.4-5.9 10.9-9 16.3s-5.7 9.4-8.5 14.1c-1.4 2.5-3.6 5-3.9 7.6-.6 5.9-.2 12-.2 18.3l2.3-3.1c3-5.1 6-10.1 8.9-15.2 1.4-2.3 3-4.7 3.6-7.3s1-7.8 1.4-11.7h-.2c.1 2.5.3 4.9.4 7.5.9-.1 1.5 0 1.7-.3l10.5-17.7c2.5-4.3 4.8-8.7 7.4-13 4.3-7.4 8.6-14.7 13.1-22 1.6-2.7 3.7-5.2 5.5-7.8v15.1a46.1 46.1 0 0 0 -2.2 5.1c-1.9 6.4-3.5 12.8-5.4 19.2-1.1 3.5-2.7 6.8-3.8 10.3s-2.2 7.7-3.3 11.6c3-5.8 5.5-11.7 7.9-17.7s4.6-11.3 6.8-16.9v17.1a35.9 35.9 0 0 0 -2.4 5.3c-1.8 5.8-3.3 11.7-5 17.5a10.1 10.1 0 0 1 -.7 1.5c-1.1 3.5-3.1 6.9-3.2 10.4s1.5 9 2.5 13.7a37.2 37.2 0 0 0 1.9-3.4l6.9-17.7v19c-3.9 5.7-2 11.4 0 17.1v145.6c-2.1 4.1-4.3 8.2-6.5 12.2s-3.2 6.1-5 9-2.5 7.2.1 10.9a37.8 37.8 0 0 0 2.2 3.3l4.3 5.7 4.9-11.1v28.7a11.4 11.4 0 0 0 -2.5 1.8l-15 22.4c-1.8 2.6-3.7 4.9-5.6 7.4l.8.8c.6-.4 1.4-.5 1.8-1 3.6-4.6 7-9.3 10.6-13.9l9.9-12.7v8.2l-13 23.5a2.6 2.6 0 0 0 .3 2.3c4.2 2.7 8.5 5.1 12.7 7.7v5.4c-2.7-1.1-5.4-2.2-8.1-3.5s-5.7-3.3-8.9-5.1c-2.6 3.5-5.3 7.4-8.2 11s-5.9 7.1-8.9 10.6h-14.4a13 13 0 0 1 1.4-2.6c6.2-7.4 12.2-15 18.9-21.8 3.4-3.4 1.1-3.6-1.1-4.8l-9.6-6.2c-3.5 7.7-6.6 14.9-10.1 21.9-2.2 4.7-5.1 9-7.7 13.5h-10.9l8.9-12.2 10.2-14.3c1.1-1.7 2-3.6 3-5.3-1.5.6-2.2 1.8-3.2 2.7-7.9 6.9-15.9 13.6-23.7 20.6-2.5 2.2-7 3.5-5.4 8.5h-66.3l5.9-6.5c-1.2-.3-1.6-.6-1.8-.5l-15 4.9c-.6.3-.9 1.4-1.4 2.1h-26.7l8.2-17.3-1.7.5c-4.4 3-8.6 6.2-13.1 9s-7.1 3.3-7.7 7.8h-26.7c4.6-3.1 9.2-6 13.7-9.3s7-5 9.8-8.2 4.9-7.1 7.1-10.8 1.7-6-2.7-6.9c-1.3-.3-3.1.4-4.4 1.1-3.5 1.9-6.8 4.2-10.3 6s-7.9 5-8.4 10.3a6.4 6.4 0 0 1 -.8 1.9c-2.7 5.3-5.4 10.6-8 15.9h-17.1c1.8-2.4 3.6-4.7 5.3-7.1s3.7-5.3 6-8.4a13.6 13.6 0 0 0 -2.9.6l-17.5 9-10.7 5.9h-25.3a4.9 4.9 0 0 1 .8-1.8l12.1-10.4 21.7-18.8 19.8-17.9-.4-.8c-5.4 2.2-11.2 3.7-16.2 6.7s-8.1 7.1-12.4 10.3c-7.4 5.4-14.8 11-22.7 15.6s-16.2 7.7-24.4 11.5l-13.2 5.6h-53.9c4.9-1.3 9.8-2.5 14.6-4 8.9-2.8 17.7-5.6 26.5-8.7s18.7-6.8 27.9-10.5c5.9-2.5 11.6-5.6 17.3-8.4.2-.1.3-.3.7-.9-6.4 1.2-12.3 2.5-18.3 3.4-12.5 1.7-25 3.3-37.5 4.6s-22.3 1.6-33.5 2.7-19.8 2-29.7 3.6c-18.7 2.9-37.6 2.1-56.4 2.6-11 .3-22.1.1-33.9.1 6.9-.6 13-.9 19.1-1.5q15.9-1.6 31.8-3.6c5.6-.7 11.1-1.7 16.7-2.7 11.8-2.2 23.7-4.4 35.5-6.9 8.3-1.7 16.6-3.9 24.8-6s16.1-4.3 24.2-6.6c3.6-1 7.1-2.3 10.7-3.4l-.3-1c-5.5 1.3-11 3-16.7 3.9a157.5 157.5 0 0 1 -18.3 1.9 135.4 135.4 0 0 1 -18-.6c7.3-2.4 14.7-4.6 21.9-7.2s15.4-5.8 23.1-8.7l29.7-11.6c4.7-1.8 9.5-3.4 14.2-5.3l19.8-8.4c1.7-.8 3.6-1.3 5.6-2-2.2-2.9-4.6-3.6-7.8-2.2-7.1 3.2-14.3 6.3-21.6 9.4-2.9 1.2-5.8 2.2-8.8 3.3l-12.7 4.3c-7.6 2.6-15.1 5.5-22.6 8.1-4.4 1.5-8.9 2.7-13.3 3.8-6.7 1.6-13.5 2.9-20.2 4.6a237.8 237.8 0 0 1 -39.3 6.9l-29.8 2.7c-8.2.6-16.5 1.4-24.7 1.1a296.1 296.1 0 0 1 -34.1-3.5l2.8-.4c12.9-.7 25.9-1.2 38.8-2.2 7.6-.7 15.2-2.2 22.8-3.4 4.9-.8 9.8-1.8 14.6-2.7l17.3-3.3 31.9-6.9a32.1 32.1 0 0 0 6.7-2.6l-15.5 1.7a29.7 29.7 0 0 1 -4.3.8c-13 .1-26.1.4-39.2-.1-8.7-.3-17.4-1.5-26.1-2.6q-10.2-1.4-20.4-3.3c-10.3-1.9-20.6-3.9-30.8-6.3-8.5-1.9-16.9-4.4-25.3-6.7a13.8 13.8 0 0 1 -4.2-2.1l7.8.8 21.1 3.2c27.6 4 55.5 4.1 83.3 3.4 12.1-.2 24.1-1 36.1-2.1 8-.7 16-2.1 23.9-3.3 5.2-.9 10.4-1.8 15.5-3.1 11.2-2.7 22.4-5.6 33.5-8.8 6.4-1.8 12.7-4.2 19.8-6.7-1.8-.8-2.8-1.7-3.8-1.7-12.2-.1-24.3-.5-36.5.1-8.5.4-17 2.2-25.5 3.3l-21.5 2.8c-33.7 4.3-67.6 3.7-101.5 2.5-7-.2-14.1-.7-21.1-1.6-10.4-1.5-20.9-3.4-31.2-5.6a216.2 216.2 0 0 1 -21.9-6.1c61.2 1.3 122.3.4 183.3-.4.1-.3.1-.6.2-.9-4.4-.8-8.8-1.4-13.1-2.3-6.5-1.4-12.9-3-19.4-4.5a6.9 6.9 0 0 0 -2-.1l-54.2 1.4h-1c-17.7-1.3-35.4-2.1-53-3.9-11.3-1.2-22.5-3.7-33.6-6.1-6.7-1.5-13.1-4-19.5-6.1a4.8 4.8 0 0 1 -1.7-1c21.1.8 42.9 1.8 64.7 2.4q50.7 1.4 101.6 2.1c23.7.4 47.5.4 71.3.6h4.8c-2.3-2.2-4-4-5.8-5.5a90.5 90.5 0 0 0 -8.7-6.6 8.1 8.1 0 0 0 -5-1.2c-16.2 1.3-32.3 3.3-48.5 4a583.1 583.1 0 0 1 -83.6-1.3c-10.5-.9-21-2.1-31.3-3.8s-19.9-3.8-29.8-6.1c-7-1.7-14-3.8-21-6a205.5 205.5 0 0 1 -21.5-8 7 7 0 0 1 2.5-.1c4.6 1 9.1 2.4 13.7 3.2 7.9 1.3 15.8 2.4 23.8 3.6s13.4 2 20.1 2.6c14.4 1.3 28.9 2.7 43.4 3.5 24.1 1.4 48.3 2.3 72.5 3.5l37.7 1.9a12.9 12.9 0 0 0 4.8-.6c-6.9-1.1-13.8-1.9-20.7-3.1s-16.7-3.4-25.1-5a31.5 31.5 0 0 0 -4.4-.3c-13.9-.5-27.8-.6-41.6-1.5-11.3-.6-22.6-2-33.8-3.4-7-.8-13.9-1.9-20.8-3.2-9.7-1.9-19.4-3.9-29-6.3a215.7 215.7 0 0 1 -21.8-6.3c-10.6-3.6-21-7.7-31.5-11.7l.3-1.1 6.3 1.5c2.7.7 5.4 1.7 8.1 2.3 7.6 1.6 15.3 2.7 22.9 4.5a318.5 318.5 0 0 0 40.1 6.3c9.4.9 18.8 2.3 28.2 3.4s16.4 1.9 24.6 2.6c13.2 1.3 26.3 2.3 39.4 3.5l36.8 3.4 19.3 2h3.5l-7.2-6.3c-3.2-2.8-6.3-5.8-9.7-8.4a8.3 8.3 0 0 0 -4.7-1.3c-7-.1-13.9 0-20.9 0a29.1 29.1 0 0 1 -4-.5l-4.9-5.1a78.1 78.1 0 0 1 8.3.4l18.3 2.7 3.5.5c-3.5-3.3-5.8-6.5-10.4-7.2-8.7-1.3-17.3-3.1-25.9-4.8-1.6-.3-3-1.4-4.5-2.1l-6.5-6.4 10.9-.3h13.4c-5.9-4-8.9-10.3-17.1-10.7s-15.1-2.9-22.7-4.6a152.9 152.9 0 0 1 -16.5-4.1c-7.4-2.4-14.5-5.4-21.7-8.2l-7.3-3.2c-7.1-3.4-14.2-6.7-21.3-10.3-5.3-2.7-10.5-5.7-15.6-8.7s-8.6-4.9-12.7-7.5c-7.8-5-15.6-10.1-23.3-15.3q-8.1-5.2-15.9-10.8l-19.8-15-14.6-11.3c-2.2-1.7-4.2-3.6-6.3-5.4l.6-.7c4.4 3 8.7 6.1 13.2 9.1l12 7.8 16.1 10.4c6.4 4.1 12.9 8 19.4 11.8 8.3 5 16.7 10 25.2 14.8 4.6 2.6 9.5 4.9 14.2 7.3 7.8 4 15.5 8.2 23.4 11.9 6 2.9 12.1 5.3 18.2 7.9l19.9 8.6 7.5 2.9 23.5 8c2.1.7 4.1 1.6 6.4 2.5a102.7 102.7 0 0 0 -8.4-8.8c-1.7-1.5-4.1-2.3-6.2-3.3-7.3-3.4-14.6-6.6-21.8-10.3s-12.5-7.1-18.8-10.7c-3.3-3.4-6.7-6.6-9.9-10a76 76 0 0 1 -5.2-6.1zm292.2 23.4c-.5-.6-.8-1.5-1.4-1.8s-2.3-.4-2.7 0a33.3 33.3 0 0 0 -3.6 5.6 2.6 2.6 0 0 0 .2 2.4c3 4.3 6.2 8.4 9.2 12.5a7.3 7.3 0 0 0 1.8-8.7c-1.2-2.9-2.1-5.9-3.2-8.8l6.6 8.9c.4-2.7 1.7-5.9.9-6.5s-5.2-2.5-7.8-3.6zm-104.9-49.4c2.2 5.3 7.5 5.1 11.9 6.8-.5-2.6-1-5-1.6-7.5 1.1 2.2 2 4.5 3.1 6.6a4.3 4.3 0 0 0 2 1.8c6.2 1.9 12.4 3.8 18.6 5.5 8 2.2 16.1 4.3 24.1 6.3 2 .6 4 .9 6 1.3l.4-.8c-3.1-2.4-6.7-4.3-9.1-7.2a29.4 29.4 0 0 0 -17.8-10.4l-25.3-4.6c-1.4-.2-2.3-.2-1.9 1.6-2.7-3.3-6.6-3.3-10.7-4.3l.5 2.8c-.8-2.7-2.7-3.8-5.4-3.8-.5-.1-1-.6-1.5-.8l-15.4-3.7-.8.5c1.7 2.8 2.8 6.6 5.3 8.2s7.4 2.3 11.2 3.4l7.3 2.2zm129.9-154.4c.3.5 1 1 1 1.4-.5 3.7 1.1 6.3 4.2 8.2 1.5-7.3 1.2-8.4-3.6-13.8-.5 1.4-1 2.8-1.6 4.2a6.5 6.5 0 0 1 -.4-2c1-4.5-1.6-7.2-4.4-10.2-4.4-4.7-8.2-10-12.3-15l-5.7-7.3a90.2 90.2 0 0 0 .1 9.2 8.5 8.5 0 0 0 1.5 4.1c3.1 4.1 6.3 8.1 9.6 12.1s6.6 7.5 9.9 11.2zm-91.9 152.4c0-.3.1-.5.1-.7a61.2 61.2 0 0 0 -4.1-4.8c-3.8-3.8-7.9-7.4-11.4-11.5s-4.9-5.4-9.1-5.9a71.6 71.6 0 0 1 -12.7-3.2c-10.4-3-20.8-6.2-31.1-9.3-4.6-1.4-9.1-2.7-13.5-4.3-7.2-2.7-14.3-5.6-21.4-8.4-3.8-1.5-7.7-2.7-11.4-4.4-6.6-2.9-13.1-5.9-19.6-9-3.3-1.6-6.4-3.4-9.7-5.1l-13.9-7.2a10.7 10.7 0 0 0 .8 2.7c2.9 5.8 6.7 11.2 8.7 17.2s8.8 4.8 12.8 7.7c-.8-2.3-1.7-4.6-2.6-6.9 3.3 4 5.4 8.8 11 10.6 9 2.8 17.7 6.1 26.6 9.2 7.3 2.5 14.6 5.1 22 7.4 11.6 3.8 23.3 7.4 34.9 11.1l1 .2 24.3 8.4 5.7 1.9zm-75.4 258.8a9.3 9.3 0 0 1 .4 1.3 50.1 50.1 0 0 1 5.5-1.7l27.7-6.8c5.7-1.4 11.3-2.9 16.9-4.8 10.3-3.5 20.5-7.3 30.7-11.1 6.6-2.4 13.1-5 19.6-7.7 2.9-1.2 5.7-2.9 8.9-4.5l-14.8-9.8c-4.5 3.2-8.9 6.4-13.4 9.3s-7.5 4.8-11.4 7c-8.6 4.8-17.1 9.6-25.9 14a127 127 0 0 1 -15.4 6.2c-8 2.7-16 5.1-24 7.5a37.2 37.2 0 0 1 -4.8 1.1zm55.4-239c1.3 3.2 2.7 5.8 3.4 8.5s2.4 3.5 4.8 3.9 4.5.8 6.7 1.3l11.2 2.7.2-3.7c1.4 2.9 2.5 5.7 7 5.1l-3-6.3a7.9 7.9 0 0 1 3.1 4.3c.5 2.4 2 3 4 3.4l15.1 3.4 10.8 2.7a8.8 8.8 0 0 0 -.7-2.3c-2.5-4.1-4.6-8.5-7.7-12.1-1.4-1.5-1.6-4.4-5.1-4.6-10.8-.9-21.6-2.3-32.3-3.7-5.6-.6-11.1-1.6-17.5-2.6zm-.2-189.4c-1.3 6.1-2.4 11.7-3.6 17.2-1.7 8.4-3.6 16.8-5.1 25.2a6.7 6.7 0 0 0 1.3 4.6 81.4 81.4 0 0 0 6.1 7.1c2.2-6.5 4-11.9 6-17.4s3.4-9.2 5-13.8c.8-2.2 1.3-4.2-.2-6.5s-3.6-6.1-5.4-9.2zm77.8 237.2.9-.8-12.6-18.5a3 3 0 0 0 -2.1-.8c-6.8-.7-13.6-1.4-20.3-1.9a49.1 49.1 0 0 0 -5.4-.1c1.9 4.4 3.9 8.4 5.3 12.5a5.3 5.3 0 0 0 4.7 3.7c3 .3 5.9.8 8.9 1.3l-.8-4.7c1.6 2.3 2.6 5.3 4.3 5.8 5.5 1.6 11.4 2.4 17.1 3.5zm-242.2-78.8c-.7-5.7-1.8-10.5-1.7-15.2s-3-8.7-7.6-11.2c-7.1-4-14-8.3-22-13a65.3 65.3 0 0 1 3.9 6.5c3.6 7.9 6.9 15.9 10.5 23.8.9 1.8 1.8 4.3 3.4 4.9 4 1.8 8.4 2.7 13.5 4.2zm382.9 55.7.4.3 4.3-7.6c2.8-5.1 6-10 8.5-15.3s5.6-8.2 5.5-13.6c-.1-2.2.9-4.5 1.3-6.8.6-4.8 1.2-9.5 1.8-14.8l-1.4 1-17.5 22.1a2.8 2.8 0 0 0 -.4 1.3c-.8 11.1-1.7 22.3-2.5 33.4zm-216.9-248.2h-1.1v27.9a3.3 3.3 0 0 0 .6 1.9l8.5 12.6 3.1 4.5c1.9-5.6 3.3-10.5 5.2-15.3a7.9 7.9 0 0 0 -.9-7.3c-.5-.8-1.5-1.3-2-2.1zm266.9 395.8-.9-.5c-3.1 3.5-6 7.3-9.3 10.6-6.7 7-13.7 13.7-20.5 20.6a2.8 2.8 0 0 0 .1 2.9c2.9 2.7 6 5.1 9.1 7.6 1.2 1 2.5 2.1 3.8-.2s2.9-3.8 3.8-6c3-7 5.7-14.1 8.5-21.1zm-240.3-239.5c3.4-7.1 6.6-13.5 9.6-20.1a3.8 3.8 0 0 0 -.7-3.4c-2.8-3-6-5.5-8.8-8.4s-2.3-1.7-3.4.6-3.8 6.2-5.5 9.5-3.5 7.2-5.2 10.8zm244 299c3.5-7.7 6.7-15 10.1-22.3 1.6-3.6 3.4-7.1 5-10.6s2.7-4.7 2.4-6.7-2.7-4.3-4.5-6.8c-1.7 3.2-2.9 5.9-4.2 8.4s-4.2 7.8-6.7 11.5c-3.7 5.5-7.8 10.9-11.6 16.4-.6.8-.9 2.6-.6 2.9 3.2 2.4 6.5 4.6 10.1 7.2zm15.8-134.4-1.1-.2c-4.1 6.4-8.1 12.9-12.3 19.3a121.3 121.3 0 0 1 -10.4 14.3c-2.5 2.8-1.9 4.7-.4 7.2l1.5 2.1c2.1 3.7 4.3 7.3 6.9 11.8zm-341.7 95v.4l2-.2c5.9-1.7 11.8-3.5 17.7-5s9.7-2.4 14.6-3.5l20.5-4.6 11.6-2.9a15.9 15.9 0 0 0 -2-2.4c-3.4-2.4-6.8-5-10.4-7.1a5.7 5.7 0 0 0 -4.6.1q-5.8 3.5-11.4 7.5c-7.5 5.5-16 9-24.6 12.3-4.4 1.7-8.9 3.6-13.4 5.4zm54.5-282.6.6-.6c2.9-6.5 5.9-12.9 8.5-19.5 1.1-2.7 3-5.6.2-8.5l-8.8-9.4-3.5 6.7c-1.7 3-3.5 5.9-5.1 8.8s-2.2 4.5-.6 7.3c2.7 4.6 5 9.6 7.4 14.3a2.8 2.8 0 0 0 1.3.9zm257.9 140.8.8.3c2.1-4.5 4.3-9 6.3-13.5s4.3-11.8 7.4-17.2c4.2-7.1 5.4-14.8 7.3-22.5 1.4-5.9 2.3-11.9 3.4-17.9a18.2 18.2 0 0 0 0-3.3l-1 .4c-3.7 9.5-7.2 19.1-11 28.5-1.6 3.8-3.7 7.3-5.5 11s-4 6.7-4.6 10.3c-1.5 7.9-2.1 15.9-3.1 23.9zm-242.6-211.6c-1.2 3.3-1.8 5.9-2.9 8.3-3 6.3-6.1 12.5-9.2 18.7-1.1 2.4.2 3.8 1.8 5.2s3.8 3.6 5.8 5.2a24 24 0 0 0 2.7 1.6c1.3-3.3 2.5-6 3.7-8.8s3.4-8 4.7-12c.7-2 1.4-4.7.7-6.4-1.8-3.9-4.5-7.4-7.3-11.8zm246.1 310.3c-2.1 1.9-3.9 3.2-5.3 5a31.3 31.3 0 0 0 -4.7 7.1c-1.3 2.7-2 5.7-3.1 8.5s-2.8 6.6-4.2 9.8-1.6 3.6-2.4 5.4l.9.5 27.6-21.6zm-215.7-191.1c-2.9 4.7-5.8 9.1-8.4 13.7a5.6 5.6 0 0 0 .1 4.4c1.8 3.1 3.8 6.2 5.9 9.2s2.7 3.5 4.3 5.5l1-1.2c3-6.6 6-13.1 8.9-19.7a3.1 3.1 0 0 0 -.8-2.7c-3.5-3.1-7.2-6.1-11-9.2zm203.4 154.8h1.6c2.1-4.6 5-9.1 6.3-13.9 3.2-12.1 5.6-24.4 8.3-36.6.5-2 1.2-4 1.7-6-1.1 0-1.5.3-1.8.7-2 3.3-4 6.7-6.1 9.9s-5.5 8.9-6.6 14.1c-1.6 7.9-3.3 15.9-4.6 23.9-.3 2.5.8 5.2 1.2 7.9zm-189.1-184.3-9.7 20.3 10.5 7.5c1.5 1 2.5.7 3.2-1.3 1.6-5.2 3-10.5 5.5-15.1s.7-4-1.7-5.5-5.2-3.9-7.8-5.9zm134.2 331.5a24.3 24.3 0 0 0 2.2-2.1c3.2-3.4 6.4-6.8 9.4-10.4s8.1-7.3 6.2-13.7c-.7-2.2-1.1-4.4-1.8-7-3.1 2-6.2 3.9-9 5.9s-3.8 2.6-4 4.2c-1.3 7.3-2 14.7-3 23.1zm-151.9-358.8c2-4.4 3.8-8.6 5.6-12.7.2-.6.5-1.6.2-2l-10.4-13.8a6.9 6.9 0 0 0 -1.1 1.3c-2.2 4.8-4.5 9.6-6.5 14.5-.4 1.1-.5 3.3.2 3.9 3.7 3.1 7.8 5.8 12 8.8zm-164 148.8c-2.1 9.2-1.9 17.4 7.2 22.4a64.9 64.9 0 0 0 6.4 2.7c.6-5.9 1.1-10.8 1.7-15.7.3-2.1-.4-3.8-2.3-4.6-4.3-1.7-8.6-3.2-13-4.8zm170.2-206.3a25.9 25.9 0 0 0 -1.7 3.3c-1.2 3.1-2.4 6.3-3.3 9.4s-2.4 4.7-.4 7 6.2 6.6 9.6 10.3c1.7-5 3.5-9.5 4.7-14.1.6-2 1-4.9-.1-6.3-2.4-3.5-5.8-6.4-8.8-9.6zm-155.7 199.6c-.4-6.1-.7-12.2-1.2-18.2 0-.5-1-1.1-1.6-1.3l-12-3.8c0 5.4.1 10.8-.1 16.2 0 2.7 1 3.9 3.6 4.4s7.1 1.7 11.3 2.7zm300-289 .4.5c-3 2.5-6.1 5-9 7.6-7.2 6.3-14.3 12.6-21.3 19-.9.8-2.2 2-2.2 3 0 5 .5 10 .9 16l15.9-23.4zm-132 244.6c3.4-6.2 6.6-12.2 9.8-18.2 1-1.7 1.3-3.1-1.1-4-.8-.2-1.2-1.6-1.9-1.7s-3.4-4.4-5.8-.7c-3.7 5.5-7.5 10.9-11.1 16.4-.3.4.2 1.8.8 2.2 2.9 2 5.9 3.8 9.3 6zm-39.1-49.5 13.3 22.1c2.2-6.3 4.1-11.6 6.1-17.1-4-3.8-8-7.7-12.2-11.5-.3-.3-1.7 0-2.1.4-1.8 1.9-3.3 3.9-5.1 6.1zm232.2 32h-.5c-3.8 5.3-7.7 10.5-11.1 16-1.3 2.1-1.6 4.8-2.1 7.3s-.4 4.2-.5 6.4l-.9 12.9c4.6-6.4 9.4-12.6 11.8-19.7s2.3-15.3 3.3-22.9zm-227 196.3c5.6-2.2 10.4-4.2 15.3-6s3.5-3.6 3-6.6a41.8 41.8 0 0 1 -.5-6.1c-.1-2-1-2.6-2.9-2.4l-10.1 1.4c-.7.2-1.8.9-1.9 1.5-1 5.7-1.8 11.5-2.9 18.2zm-109.3-90.7c0 4.4-.6 8.2.2 11.6s3.5 3.1 5.3 4.7c.2.2.3.6.5.8l9.3 6.8v-21.7zm314.8-73.5-.8-.3a35.8 35.8 0 0 0 -2.6 2.9c-3.8 4.9-7.5 9.8-11.2 14.8a8.2 8.2 0 0 0 -1.5 3.3c-1.3 6 2.7 10.5 4.4 16.1 2-2.8 4.2-4.8 5.1-7.3 1.5-4.2 2.2-8.7 3.2-13.1s2.2-10.9 3.4-16.4zm-243.1-123.9c2.6-7.4 5.1-14.4 7.5-21.4a2.8 2.8 0 0 0 -.1-2c-2.3-3.1-4.8-6.1-7.5-9.7-.5 1.5-.7 2.4-1.1 3.3-1.6 3.4-2.8 7.1-4.9 10.2s-2.1 4.3-1 6.7 2.2 4.4 3.4 6.5 2.3 4.1 3.7 6.4zm228.7 74.6-2.8 3.2c-3.4 4.7-9.8 7.1-9.8 14.5s-1.4 13.5-2.1 20.2c9.1-12.8 14.5-13.7 14.7-37.9zm-54-74.8c1.1-4.1 2.2-7.5 2.8-11 .2-1.1-.7-2.8-1.6-3.7s-4.8-4.5-7.3-6.7l-9.2-8c-.3 4.1-.6 7.4-.7 10.7a4.4 4.4 0 0 0 .9 2.7c4.9 5.3 9.9 10.5 15.1 16zm-303.6 144.3c-.5-6.3-.8-12-1.3-17.8a3.5 3.5 0 0 0 -1.4-2.5c-3.6-1.4-7.3-2.4-11.4-3.8 0 6.2 0 12.1.1 18a2.2 2.2 0 0 0 1.2 1.6zm409.4 74.1.7.4c2.2-4.8 4.5-9.5 6.6-14.2 2.8-6.3 4.9-13.1 8.3-19 4.5-7.6 5.9-15.9 7.2-24.3a19.4 19.4 0 0 0 -.2-2.4 18 18 0 0 0 -2.4 4.2c-2.3 5.1-4.6 10.1-7.1 15.1s-5.6 8.9-6.1 14.3a22 22 0 0 1 -.7 3.7zm-290.6 18c-.7 5.9-1.4 11.7-1.9 17.4-.2 2 .7 3.7 3 3.6s6.7-.4 10.6-.7c-.6-7-1.1-13.6-1.7-20.3zm-134.4-229.2c1.5 2.9 2.9 5.3 4 7.8 2.7 6.1 5.3 12.2 7.9 18.4a3.1 3.1 0 0 0 1.2 1.4l9.8 3.6a4.8 4.8 0 0 0 0-1.7c-1.8-4.7-3.6-9.3-5.5-13.9-1.2-2.8-2-6.4-4.2-8.1s-8.3-4.8-13.2-7.5zm302-16c-.3 4.5-.7 8.4-.9 12.3a3.9 3.9 0 0 0 1.1 2.7l11.6 13.1c1.3-2 2-2.8 2.2-3.6 1-3.3 1.9-6.5 2.6-9.7a2.3 2.3 0 0 0 -.7-1.9zm-174.9 266.5c-4.9-4.5-8.5-8-15.2-6.6-9.3 2-18.8 2.6-28.2 3.9l-10.2 1.6a4.1 4.1 0 0 1 .1 1.1zm-32.8-57.4-3.1 21.7c3.4 0 6.2-.2 8.9 0s3.3-1 3.3-3.1.1-7.1.1-10.6c-.1-8.5-.1-8.5-9.2-8zm90.4-51.7c-.9-4.7-1.6-8.7-2.5-12.8-.1-.4-.9-.9-1.4-1q-4.5-.9-9-1.5c-2.8-.3-5.7-.4-8.6-.6 1.2 3.8 2.2 7.2 3.3 10.5.3.7.9 1.6 1.4 1.7 5.3 1.3 10.7 2.4 16.8 3.7zm181.1 61.8-.8-.4a89.3 89.3 0 0 1 -9.8 6.1c-3.3 1.7-6.1 3.4-6.9 7.4-.2 1.2-1.4 2.5-1.2 3.5a30.7 30.7 0 0 0 3.1 6.3 1.9 1.9 0 0 0 2 .7c3.5-1.6 8.2-2.1 7.8-7.7 0-.2.4-.3.5-.5 1.7-5.1 3.5-10.3 5.3-15.4zm-36.5-110.1-10.2-3.6-3.1 10.2-3.4 9.8 9.5 3.9c2.4-6.9 4.7-13.4 7.2-20.3zm64.8 182.1a21.5 21.5 0 0 0 -3.2 1.7c-2.5 2.2-5 4.4-7.3 6.8s-5.5 6.2-8.1 9.4a2.3 2.3 0 0 0 0 2.5c1.4 1.3 3.2 2.2 4.7 3.5s2.6.9 4.2 0c3.6-1.9 5.9-4.6 6.4-8.9s2.1-9.5 3.3-15zm-42.3-98.7c-2.3.5-3.8.9-5.4 1.1a7.2 7.2 0 0 0 -6.1 4.5 105.9 105.9 0 0 0 -4.7 12.2c-1.2 3.8 1.6 6.1 5.4 5.3s5.2-2.1 5.4-5.7c.1-1.3 1.2-2.6 1.6-3.9 1.2-4.3 2.4-8.7 3.8-13.5zm23.8-7.9c-3.1.9-5.6 1.6-8.1 2.6s-2.8 1.4-3.2 2.5c-2.2 5.8-4 11.8-5.9 17.7a14.8 14.8 0 0 0 .1 2.1c2.5-1.2 4.5-2.7 6.7-3 4.5-.8 5.9-3.6 6.7-7.6s2.4-9.4 3.7-14.3zm-200-3.3 9.7.8c1.9.2 2.8-.5 2.5-2.5s-.4-6.6-1.1-9.9a4.5 4.5 0 0 0 -2.7-3.1c-4.1-.6-8.3-.7-12.9-1 1.5 5.5 3 10.4 4.5 15.7zm-19.1-150.3 9.5 8c2.6-8.4 4.6-16 7.4-23.2 1.2-3.1.7-4.8-1.8-6.9-5 7.2-9.9 14.4-15.1 22.1zm51 325.6.5.6 29-17.6c-4-2.3-7.3-4.3-10.8-6-.6-.3-2.3.5-2.9 1.3s-3.1 4.6-4.7 6.8zm-4.7-318.3-13.8 16.9c-.3.4-.3 1.4 0 1.6l10.6 7.3c2-6.6 3.8-12.8 5.8-18.8 1.5-4.4 1.3-5-2.6-7zm34.3-16.3c1.6-4.2 3.2-7.9 4.3-11.9s2.7-6.8-1.4-9.6a68 68 0 0 1 -5.9-5l-5.8 18.2zm165.8 234.2c-11.9 6.7-15.1 18.2-18.6 30.8l4.5-3.3c4-2.7 9-4.1 9.7-10.4s2.8-11.2 4.4-17.1zm-170.4-51.1 3.5 9.4c1.2 3.1 2.3 6.2 3.3 8.9l10.9-1.5-4.8-16.1zm-233.8-57.7c-.6-4.9-1-9.3-1.6-13.7-.9-7.1-3.5-9.7-10.7-10.7.3 6.4.6 12.9 1 19.3a1.7 1.7 0 0 0 1.2 1.4zm182-213-7.1 17.6 8 10.1c2-5.1 3.8-9.5 5.2-14 .6-1.9.9-4.5.1-6.1s-3.6-4.6-6.2-7.6zm-186.3 181.3c-.9-5.6-1.6-10.5-2.4-15.3a1.2 1.2 0 0 0 -.7-1.1l-12.9-6.1 3.7 18a2.6 2.6 0 0 0 1.2 1.5zm89.7 55.3c-.8-6.5-1.6-12.5-2.5-18.5-.1-.6-1.4-1.2-2.3-1.4-2.5-.6-5.1-1-8-1.5.5 6.5 1 13 1.4 19.7zm332.9-70.8 1.3.4c7.3-17.1 14.7-34.2 22-51.4l-1.1-.5c-1.4 2.9-2.6 5.8-4.2 8.6-5.7 9.5-11.5 18.9-17.1 28.4-2.9 4.7-.6 9.7-.9 14.5zm-198.1 198.4c-4.1 1.9-7.7 3.5-11.1 5.3s-3.9 6.9-2.8 9.4a2.9 2.9 0 0 0 1.2 1l10.5 6a66.2 66.2 0 0 0 2.1-21.7zm91-250.7c.7-3.2 1-5.7 1.9-8 2.1-5.4 2.4-5.5-1.8-9.2s-6.2-4.4-9.6-6.8c-.8 4.1-1.5 7.5-2.1 10.9-.1.8-.3 2.1.1 2.6 3.6 3.4 7.3 6.7 11.5 10.5zm-69.2 83.9 7.5-17.9c.2-.6.3-1.7-.1-1.9l-5.2-3.4-12.9 17.4zm67.2 6.4c-2.3 4.9-4.3 9.3-6.3 13.7-.7 1.5-1.9 3.4.5 4.2a32 32 0 0 0 7.6 1.5 3.1 3.1 0 0 0 2.6-1.5c1.8-4.9 3.4-9.9 5.1-15.1zm-155.8 107c-.7 6.7-1.4 12.9-2.1 19.4l12-.6c-.4-6.5-.8-12.7-1.1-18.8zm120.2-78.4-12.2 17.3c1.3.9 2.7 2.5 4.3 2.7s5.6-.1 8.5-.3a4.5 4.5 0 0 0 4.2-5.7c-1.4-4.5-3-9-4.8-14zm33.1 7.2c-4.2-1.1-7.8-2.1-11.4-2.9a3.2 3.2 0 0 0 -2.6.9c-2.7 3.8-5 7.8-.4 11.9a.9.9 0 0 1 .3.5c1.1 1.9 8.7 2.7 9.6.8 1.6-3.6 3-7.4 4.5-11.2zm-41.6-53.1-6.8-4.3-9.9 18a14.9 14.9 0 0 1 3 1.8c4.9 3.5 7 2.9 8.9-2.7s3.1-8.2 4.8-12.8zm39.2-51.1c1.4-4.4 2.8-8.6 4.1-12.9a2.3 2.3 0 0 0 -.5-2.1c-2.7-2.1-5.6-4-8.4-5.9s-2.3-.4-2.5 1.3a98.8 98.8 0 0 1 -1.8 11.1c-.6 2.6.5 3.9 2.3 4.9s4.3 2.3 6.8 3.6zm-15.8 45.1 4.9-14.3c2.3-6.3 2.2-6.6-4.1-8.1a3.3 3.3 0 0 0 -2.9 1.5c-2 5.6-3.8 11.3-5.7 17.1zm-22.9 28 2.5.8c2 .7 4.3 2.1 6.1 1.7s2.2-3.1 3.2-4.8l.3-.2c1.6-3.9 3.2-7.7 4.9-11.5l-8.2-3.8zm-8.7 14.2a9.9 9.9 0 0 1 -1.5 2.6c-3 2.8-4.4 5.6-1.6 9.4s3.8 6.4 5.8 9.7l4.1-8.3 4.1-8.3zm96.5 183.2 8.5-6.3c2.8-2 4.3-4.6 3.3-8.1s-1.6-5.3-2.5-8.2l-10.3 7.2c.3 5.4.6 10.2 1 15.4zm-114.8-31.3c3.6-2 6.4-3.8 9.3-5.2s2-3 1.7-4.8-1.3-5.9-1.9-8.8a17.3 17.3 0 0 0 -.8-2.7l-8.3 1.8zm210.7-196-.9-.4c-1 7.2-4.7 13.5-4.8 21.2s-1.2 14.8-2 22.3c2.9-5.5 6.6-11.1 7.4-17 1.2-8.5.3-17.4.3-26.1zm-395.2 81c4.7 2 9.7 1.1 14.5 1.3-.6-4.5-1-8.4-1.5-12.3-.3-2-6.9-5-8.5-3.9a2.4 2.4 0 0 0 -.6 1.1c-1.3 4.5-2.5 9-3.9 13.8zm142.9 48-1.3.2a55.8 55.8 0 0 1 -5.9.9c-2.4.2-3 1.5-2.7 3.6s.7 4.7.9 7 0 4.7 0 7.3l10.9-1.3c-.7-6.1-1.3-11.9-1.9-17.7zm-41.9-61.8a115.3 115.3 0 0 1 -1.5-12.7c-.1-3.2-1.9-4.7-4.5-5.3a57.9 57.9 0 0 0 -7.5-.7c1 3.9 2 7.4 2.7 10.9 1.7 8 .2 8 10.8 7.8zm63.2-10.8c1.3 3.3 2.7 6.7 4.1 10a1.5 1.5 0 0 0 1.2 1l14.7-.5c-.7-2.4-.8-4.3-1.6-5.9s-2.3-4.2-3.7-4.3c-4.8-.6-9.7-.3-14.7-.3zm154.5 65.8c6.6-1.4 7.8-.2 9.7-8.6 1-4.7 2.6-9.3 4-14 .3-1 1.3-2.1 1-2.9a57.9 57.9 0 0 0 -3.2-6.8zm-256.2 9.6c-2.3 5.6-2.2 5.8 2.6 9l2.3 1.9 8.8 6.1.8-.6c-.5-5.4-1.1-10.7-1.8-16.4zm109.3-164.1c1.5 1 3.2 1.9 4.8 3s3.5 1.1 4.3-1.6a79.9 79.9 0 0 1 4-11c2.7-6 2.1-7.7-4-9.5-3 6.3-5.9 12.6-9.1 19.1zm50.5 270.6.8.8c2.9-2.2 5.9-4.2 8.7-6.5 1.2-.8 3-2 3-3.1-.1-4.4-.7-8.9-1.2-14.1-2.9 2.2-5.3 3.9-7.5 5.7a4 4 0 0 0 -1.7 2.3c-.8 5-1.4 10-2.1 14.9zm-111.8-271.6-.4.9 28.2 21.8c0-1.3.1-1.8-.1-2.1-2.3-4.2-4.6-8.3-7.1-12.4-.9-1.6-1.9-3.9-3.3-4.3-5.6-1.6-11.5-2.6-17.3-3.9zm3 200.4c-1.9 4.7-2.2 8.6 3.3 10.3.1.1.2.4.4.5l8.8 5.6v-17.4zm18.7-51.6 9.1-.5c-1.4-5.4-.2-11.5-7.1-13.5l4.9 1c-.1-2.5-.3-4.8-.5-6.8h-9.6c1.1 6.8 2.1 13.1 3.2 19.8zm141.1 130.8c4.3-3 8.3-5.9 12.5-8.6s4.6-10.5.9-14.2c-3.3 3.7-6.3 7.7-10.1 10.9s-4.2 7.2-3.3 11.9zm19.2 26c-.5-7.6-1-14.6-1.6-21.6h-.9l-13.2 14.9zm-340.2-346a8.8 8.8 0 0 0 -.2-1.6c-2.1-6.7-4.3-13.4-6.4-20.1-1.1-3.6-5.8-7.8-9.8-8.2.3.9.5 1.8.8 2.6 2.9 7.1 6.1 14.1 8.5 21.3 1.3 3.8 3 5.8 7.1 6zm321.9 29.2c-.6 4.1-.7 7.4-1.6 10.4s.2 3 1.5 3.6c3.2 1.5 6.5 2.7 9.8 4.1.6-.9 1.5-1.6 1.6-2.5.4-2.5 1.8-6.3.6-7.5-3.2-3.1-7.4-5.2-11.9-8.1zm-76.8 251c-3.8 2-7.5 4-11.3 5.8s-3.6 5.9-1.2 7.7 7.5 2.3 11.6-.4 3-3.6 2.5-6.1-1-4.5-1.6-7zm-100.2-109.7c.8 7.1 1.5 13.9 2.2 20.6l7.5-1.2c-.4-6.5-.9-13-1.3-19.4zm-141.9-116.4.8-.9-3-13.4c-.9-4.4-3.7-7-8.4-7.5.5 5.9 1 11.8 1.6 17.6a2 2 0 0 0 .9 1.5zm114.6 19.8c1.8 3.7 2.5 8.1 4.7 9.2 4.7 2.3 10.3 2.9 15.9 4.3-2.3-12.3-.1-9.5-10.9-11.5zm235.7 53.5c1-3.5 2.1-6.4 2.7-9.3a47.6 47.6 0 0 0 .7-8.4c-.1-3-2.6-2-4.4-2.3s-2.6.4-3 2.3c-1.2 5.5-2.5 11-3.9 16.9zm-37-6 7 1.2c2.2.4 3.5-.4 3.7-2.7a8.6 8.6 0 0 1 .6-2.3c1.1-4.1 2.3-8.1 3.4-12.1-7.6-1.9-7.5-1.9-9.9 5.1-1.3 3.5-3 6.8-4.8 10.8zm51.6 90.1-.7-.8-8 5.7c-1.6 1.2-3.7 2-4.6 3.5-3 5.2 2.2 8.7 2.7 13.8 2-1.8 4.1-2.8 4.7-4.3 2.2-5.9 3.9-11.9 5.9-17.9zm-154.2-45.5c.6 2.4 1.1 4.6 1.7 6.7s1.6 4.1 2.2 6.3c1.4 4.8 4 6.4 9.5 5.3-2-6.6-4-13.3-6-19.8zm-223.3-169.8v-1.1c-2-6.3-4.2-12.5-5.8-18.9s-2.2-10.1-8.3-11.7c.2.7.4 1.7.6 2.6 2.4 7.8 5.1 15.6 6.9 23.6.9 4.1 3 5.1 6.6 5.5zm44 65.8c-1.1-4.4-2.2-8.9-3.4-13.4a.8.8 0 0 0 -.4-.4l-10.7-3.8c.9 4.5 1.8 8.6 2.4 12.8.2 1.8 1 2.3 2.7 2.6s6 1.4 9.4 2.2zm129.2 162c2.2-.2 4.1-.4 5.9-.4s3.3-1 3-3.4c-.6-4.9-1.1-9.9-1.6-15.2l-6.4.3c-.3 6.4-.6 12.4-.9 18.7zm46.1-6.5c-.8-6.2-1.6-11.9-2.4-17.3l-7.6 1.5c.3 5.6.5 11.1.8 16.9zm12.7-354.3c-.3-5.3.4-10.2-1.1-14.3s-5.3-8.5-8.2-12.9c-2.4 10.6-.3 19.6 9.3 27.2zm95 335.9c1.8 3.9 3.6 7.6 5.6 12 1.9-1.1 4.7-1.7 5.5-3.4 2.1-4.1 3.4-8.7 5.2-13.7zm-321.3-135.3c0 4.3-.1 8.5.1 12.6 0 .8 1.2 2 2.1 2.2 2.8.7 5.7 1.1 8.9 1.6-.3-4-.7-7.7-1.1-11.4a1.9 1.9 0 0 0 -.9-1.6zm273.9-152.5c0 2.4-.1 4.1 0 5.7s.1 4.1 1 5.6a57.7 57.7 0 0 0 6.7 8.1 45.8 45.8 0 0 0 4.6 4.2c.3-2 .4-3.5.7-4.9s.9-4.9-1-6.9-4.6-4.8-6.9-7.1zm-61.1 217.4h-10.9c1.7 4.2 3.3 8.1 5 12a1.8 1.8 0 0 0 1.3.9c3.1.1 6.3 0 9.7 0-1.8-4.7-3.4-8.7-5.1-12.9zm-8.3 119.2 11.2-4.5a2.1 2.1 0 0 0 .8-1.7c-.1-3-.4-6.1-.6-9a67.1 67.1 0 0 0 -8.7 1.7c-1.1.3-2.5 1.5-2.6 2.4-.3 3.5-.1 7-.1 11.1zm174.9-11.3-12.5 8.7a2.3 2.3 0 0 0 -.7 2.1c.5 3.2 1.3 6.5 2 9.8 6-2.2 7.9-4.6 8.8-10.2.5-3.2 1.5-6.4 2.4-10.4zm-347.9-200.8c-2.8-12.3-8-18.3-15-18.1 1.1 4.2 2.2 8.4 3.4 12.6a2.7 2.7 0 0 0 1 1.6zm110.3 155.6c-.3-3.4-.5-6.4-.9-9.4s-1.2-6.1-1.5-9.2-1.9-2.3-3.6-2.3-2.7 1.1-2.5 3c.4 4.8.7 9.7 1.1 14.5.1 1.1.1 2.2.1 3.4zm195.1-157.6c.8-3.3-5.1-25.8-7.3-27.4a5.6 5.6 0 0 0 -.4 1.2c-.9 5-1.8 9.9-2.6 14.9a3.8 3.8 0 0 0 .8 2.7zm-106.9-177.8c-1.7 10.3 1.5 18.4 9.2 24.4 1.2-4.5 2.8-8.5-.7-12.7s-5.4-7.4-8.5-11.7zm-8.3 34.6c2.7-10.2.9-15.5-7.7-23.2-.3 5-1.7 9.8-.5 13.7s5.2 6.2 8.2 9.5zm126.9 334.3-1.2-.4-11.3 4c-.6.2-1 1.7-.9 2.4 1.1 4.4 2.4 8.7 6.9 11.8 2.2-6 4.3-11.9 6.5-17.8zm-261.9-68.4c-1-3.3-1-7.3-3-8.8s-7.2-2.3-10.8-3.3v12.1zm-57.6-82.1a83.3 83.3 0 0 0 .8 8.6 3.8 3.8 0 0 0 2.4 2.5c3.4.9 7 1.4 10.8 2.1-.3-2.5-.7-5-.9-7.5s-1.1-2.8-3.1-3.2-6.2-1.6-10-2.5zm118.4 35.9c-.8-3.4-1.6-6.8-2.5-10.2 0-.3-.9-.6-1.4-.7l-12-1.3 1 4.7c.6 3.4 2.1 5.6 6 5.9a89.2 89.2 0 0 1 8.9 1.6zm120.5-43.8.7-2.5c1.8-5.1 3.8-10.2 5.5-15.3.8-2.7-1.5-3.3-3.3-3.7s-2.1 1.1-2.4 2c-1.7 4.3-3.2 8.6-4.7 12.9s-.9 5.3 4.2 6.6zm-142 124.8c-.4-5.8-.6-11.4-1.3-17-.3-2.3-1.1-4.9-4.6-3.5-.6 6.8-1.2 13.7-1.8 20.8h5.9l1.8-.2zm190.2 58.8 10-7.2a1.2 1.2 0 0 0 .2-1.3c-1.8-2.4-3.5-5.1-5.7-7.1s-3-.1-4.5.2a11.9 11.9 0 0 0 -3 1.8c.9 4.3 1.9 8.6 3 13.6zm-17.2 10.5c2.4-1 5.6-.7 5.1-4.1-1-6.1-1.3-12.3-4.1-18a13.9 13.9 0 0 0 -2.7 2.1c-.9 1.1-2.6 2.6-2.4 3.7 1.1 5.3 2.6 10.6 4.1 16.3zm.1-312.3c.3-2.1.6-4 .8-5.9s.9-3.7.2-4.5c-3-3.6-6.5-6.7-10.1-10.3-1.6 10.1 1.7 17.5 9.1 20.7zm-16.7 217.9-11.9.7 13.6 16c.3.3 1.4.5 1.5.3a2.7 2.7 0 0 0 .7-2c-1.2-4.8-2.5-9.7-3.9-15zm20.4 144.8c-4.8.6-8.7 2-11 5.5-.9 1.4-1.5 4.5-.9 5s4.9 3.2 6.7 2.6a11.5 11.5 0 0 0 6-5.7c.8-1.9-.4-4.8-.8-7.4zm22-312c.7-4.2 1.4-7.4 1.7-10.6s.9-7.8-3.6-9.9l-2.1-1.3a11.7 11.7 0 0 0 -1 2.6c-.4 2.9-.2 6-1 8.8-1.5 5.4 2.9 6.9 6 10.4zm-43.4 111.6a27.2 27.2 0 0 1 4.9 1.3c2.1.9 2.9.4 3.6-1.8 1.6-4.8 3.6-9.5 5.4-14.3-5-2.2-5.1-2.3-7.6 2.3s-4 8-6.3 12.5zm-33.5-140.1c-1.2 5.2-2.4 10.4-3.5 15.7s.3 5.3 4.5 6.4c1-3.6 1.6-7.4 2.9-10.9s1.5-8.5-3.3-11.1zm-183.9 75.2.9-.9c-1.3-3.2-1.8-7.3-4.1-9.2s-7.6-3.2-12.5-5.1c1.9 4.5 2.6 9 5.2 11.4s6.9 2.6 10.5 3.8zm224.5-95.8c-3.2 8.9-.7 15.1 7.1 19.4.4-3.8 2.1-8.2 1-11.6s-5.3-5.2-8.1-7.8zm-78.8-51.7c-1 2.9-2 5-2.6 7.3a3.5 3.5 0 0 0 .3 2.8c2.9 3.2 5.9 6.3 8.9 9.4l1.3-.2c.2-3.1 1.6-6.8.4-9.3s-5.3-6.6-8.3-10zm-218.8 105.9c1.1 4.9 2.3 9.2 2.7 13.7s1.6 6.2 8.3 7c-1.3-5.1-2.7-10-3.6-14.9s-3.7-4.8-7.4-5.8zm235.9 192.5 4.1 16.6 6.7-1.3-3.7-16.5zm-20-377.3c-.2 4.5.1 8.5-.8 12.2-1.3 5.7 2.2 8.9 5.1 12.9 2.7-9 3.1-17.3-4.3-25.1zm43.6 347.6c1.3 3.6 2.7 6.7 3.8 9.9 2 5.7 2 5.7 8 4.6l1.2-.6c-1.5-4.1-2.8-8.2-4.4-12.2a3.5 3.5 0 0 0 -2.3-1.6c-2.1-.1-4.2-.2-6.3-.1zm58-20.7c8.1.5 8.3.3 7.4-4 .8.9 1.4 2.1 2.3 2.3s3.6.5 4-.2 2.1-4.7 3.2-7.4l-10-.7c-.8 0-2.1.2-2.4.7-1.5 2.9-2.9 5.9-4.5 9.3zm-57.6-223.1c1.7-5.2 2.2-9.6-2.2-13.4-2.2-1.9-4-4.4-6.7-7.3 0 4.6-1.1 8.6.3 11.5s5.6 6.1 8.6 9.2zm-153.1 211c-1.2-6.6-2.2-12.8-3.3-19.1l-5.8-.5c.8 4.9 1.6 9.5 2.1 14s.6 5.7 7 5.6zm-69.7 8.4 1-.4c-.6-3.1-1.4-6.2-1.7-9.4-.7-5.6-2.2-7.2-8.2-7.9l-1.5 8.2zm255.4-123.8c1.1-4.2 2.4-8.2 3.3-12.2s-.4-6.5-5.3-7.5c-.8 4.3-1.3 8.7-2.3 13s-.2 5.5 4.3 6.7zm38.5 32.7c-.8 2-1.5 3.7-2 5.4s-.1 1.9.3 2.1c3.2 1.8 6.6 3.4 10.2 5.3 1.2-3.9 2.3-7.2 3.4-10.5zm-238.8-8.3c2.3 6.5 4.8 11.6 12.3 11.4 1.3 0 2.7 1.1 5 2.1-1-2.5-1.6-4.3-2.3-6s-.9-3.3-1.8-3.6c-4.1-1.5-8.4-2.5-13.2-3.9zm159.5 153.5c1.1 4 2.1 8.1 3.3 12 .1.5 1.2.8 1.9.8 6.9-.2 7.5-1 6.1-7.7a3.3 3.3 0 0 0 -.4-1.3c-.5-.7-1.2-1.6-1.9-1.8-2.9-.8-5.8-1.3-9-2zm-45.9-356.3c-1 3.1-1.9 5.9-2.7 8.6-1.5 4.9-2.2 9.7 3.7 12.9a13 13 0 0 0 1-2.5c.6-3 1-6.1 1.7-9s-.9-7-3.7-10zm111.7 431.9c-3.9-.2-6.5 1.2-6.3 3.7.4 4.5 1.2 8.9 2 14.1l6.9-5.7zm-33.3-334.7c-2.7 8.3.4 14.2 7.3 18.8.5-3.3 1.1-6.6 1.5-9.9a2.1 2.1 0 0 0 -.7-1.5zm43.1 61.3-1.7 4.9c-2.4 7.3-1.8 10.4 3.7 14.9.8-4.3 1.6-8.2 2.4-12.2s.7-5.5-4.4-7.6zm-63.3 259.8c8-2.4 10.7-7.5 7.5-14.4l-8.5 2.1c.2 2.5.5 4.4.7 6.3s.2 3.8.3 6zm-67-388.4c-.7 2.8-1.5 5.4-2.1 8s-1.3 3.4-.8 4.6 2.4 2.8 3.6 4.1l1.7 1.9c4.5-6.6 4.5-12.8-2.4-18.6zm149.5 225.9c1.5-6.9 2.8-13.4 4.3-19.8.5-2.5-1-2.5-2.7-2.7l-7.4 20.7zm-212.5 24.3c1.5 6.6 2.9 12.7 4.4 19.1h4.9c-1.1-6.2-2.2-12.1-3.3-18.1zm-53.1-50.5c-1.2-3.5-1.5-7.4-3.6-9.3s-6.3-2.3-9.8-3.4c1.8 10.6 3.3 11.9 13.4 12.7zm303.8 237.8.8.3c3.2-3.7 6.5-7.3 9.5-11.1 1.1-1.3 2.3-3.1 0-4.6s-3.9-1.5-5.6.6-1.8 1.3-2.4 2.2-2 2.7-2.2 4.2a58.9 58.9 0 0 0 -.1 8.4zm-15.9-305.3-1.1-.5c-1.3 2.4-3.1 4.7-3.8 7.2s-1 6.5-1.6 9.8-1.1 6.3-1.6 9.5l1.1.4c1.7-2.5 4.3-4.9 4.9-7.6 1.2-6.2 1.5-12.5 2.1-18.8zm-193.9 2.8-1.8 1.2c.3 1.6.3 3.2 1 4.6 2.2 4.3 4.6 8.4 7.1 12.6.2.4 1.7.5 2.2.1a9.6 9.6 0 0 0 2-2.5c1.2-1.6 1.3-3.3-.2-4.8s-5.1-4.4-7.5-6.9a31.8 31.8 0 0 1 -2.8-4.3zm132.3 160.8c-6 7.3-.2 12.9 1.6 19.9l5.8-3.3zm-96.3-356.5a14.3 14.3 0 0 0 -.8 2.2c-.6 4.3-.9 8.6-1.6 12.8s1.1 6 3.8 8c.8-3.2 1.7-6.1 2.2-9a24.9 24.9 0 0 0 0-7.7c-.4-2-2.1-3.8-3.6-6.3zm38.1 120.5-1.6 1.3c-.3 1.8-.1 3.8-.9 5.3s-.2 3.1 1 4.2 4.6 4.4 6.9 6.6c2.5-4 3.9-7.8-.9-11.5-1.9-1.4-3-3.9-4.5-5.9zm127.9 148.8-1.3-1c-2.3 2.6-4.7 5.2-6.9 7.9-.5.6-1.2 1.8-.9 2.4 1.4 3.9 3 7.6 4.6 11.4l.6-.2zm-254-19.2a46.2 46.2 0 0 1 -1.2-5.8c-.3-2.2-1.4-3.1-3.7-3.4s-4.4-1.4-6.6-2.1a10.9 10.9 0 0 0 -2.6-.3c1.4 7.8 4 10.8 14.1 11.6zm173-85.8-1 .4a18 18 0 0 1 -.5 4.6c-2.3 7.1-1.9 8.2 5 11.8.9-3.2 2.9-6.6 2.4-9.5s-3.8-4.9-5.9-7.3zm13.9 108.4c1.8-5.9 3.6-11.8 5.6-17.5 1-3.2-.4-4.1-3.2-4.1-1.7 5-2.6 10.1-5 14.4s-1.8 5.3 2.6 7.2zm-22.5 259.9 13.2-11.7-9.8-4.7c-1.1 5.4-2.1 10.4-3.4 16.4zm-232.4-301.9c-.6-3-.9-5.6-1.6-8s-1.2-3.3-2.4-4.1a75.4 75.4 0 0 0 -7.9-3.3c3 6.1 2.6 14 11.9 15.4zm127.5 149.2c-.9-6.7-1.8-13.1-2.7-19.7l-3.6.4c.2 2.7.3 5.2.5 7.7s.4 5.2.5 7.8c.2 4.7.2 4.7 5.3 3.8zm55.5-185a13 13 0 0 0 1.5-2.8c.2-1.1.5-2.6-.1-3.2-2.7-2.9-5.6-5.4-8.6-8.2-.6 1.3-1.2 2.9-2 4.5s-.7 3.5 1.8 4.6 4.8 3.3 7.4 5.1zm-152 90.8c.3-7.7-3-10.5-11.2-10 1.2 8.9 1.4 9.2 11.2 10zm178.3-178c-3.2 7.9.3 12.5 6.4 17-1.5-3.8 2.8-6.6.2-9.8s-4.3-4.7-6.6-7.2zm46.7 246.6 7.1 11.8 6.1-13.5zm-71.9-276.1c-2.6 6.7-.2 15.1 4.5 16.9 4-6.9.3-12-4.5-16.9zm-155.1 161.5c-1.3-10.3-1.7-10.7-11.8-12.2 1.2 3 1.7 6.4 3.7 8.4s5.2 2.5 8.1 3.8zm76 30.4-8.5-1.8 3.4 10.2c.1.3.7.5 1.2.6l7 1.5zm199.4-19.4 1.1.3c3.9-8.3 2.4-17.6 4.7-26.3-1.9 1.5-4.4 3.1-4.7 5.1-.8 6.9-.8 13.9-1.1 20.9zm-192.9 64.7c1.3 4.7 2.7 9.1 3.5 13.5s1.7 3.9 4.6 2.8c-.6-4.1-1.1-8.1-1.7-12.1s-.9-4.6-6.4-4.2zm-142.1 6.1c1.3-6.7.8-7.8-4.2-10.3-.5-.2-.9-.7-1.4-.9l-9.3-4.2a6.1 6.1 0 0 1 -.7 1zm105.7-48.9c-1-3.2-1.1-7-3-8.7s-5.6-1.4-8.6-2c.8 7.8 3.5 10.4 11.6 10.7zm134.5 206.8c4.3-2.6 8.1-4.7 11.8-7.2.7-.4.5-2 .7-3.4l-6.4.5-6.1.5zm59.3-251.7c1-3 2.2-6.1 3-9.2s.1-5.7-4.6-6.2c-.6 3.4-1 6.8-1.8 10s-1 4.5 3.4 5.4zm-94.8 60.4-.7.7 11.2 15.9c1.1-3.2 2.2-5.3 2.4-7.6 0-.7-2.3-1.7-3.5-2.6s-.3-.6-.6-.8zm135.3 37.4c-8.7.1-10 1.9-10.5 8.8 8 1.2 9.8-.3 10.5-8.8zm-22.8 128.9c-4.1 1.3-8 2.3-11.8 3.6a2.5 2.5 0 0 0 -1.3 2 45 45 0 0 0 .7 6.3c3.9-1.4 12.3-9.4 12.4-11.9zm-80.4-319.7c-2 6-1.5 11.1 4.5 14.3 3.2-6 1.6-11.3-4.5-14.3zm-145.8 134.2c-.9-7.8-4.3-11.2-10.5-10.1 1.7 8.1 4.4 10.7 10.5 10.1zm187.8 132.1c-1.7-2.9-.2-7.1-4.2-7.9-1.6-.3-5.3 1.4-5.3 2.2 0 2.7 1.3 5.3 2.1 8.2zm-269-93.5c.5-5.1-2.5-19.1-4.4-20.2-.2 5.1-.4 10.2-.7 15.3s.7 4.8 5.1 4.9zm267.5 182.3c2.1-1.8 3.7-2.9 5.1-4.2a2.5 2.5 0 0 0 .6-2 84.7 84.7 0 0 0 -2.5-8.6 10.1 10.1 0 0 0 -1.7-2.5c-.5.9-1.4 1.8-1.5 2.8-.1 4.5 0 9 0 14.5zm-141.5-198.3c1 9.5 2.8 12.3 8 11.2-.8-10.2-.8-10.2-7.8-11.4zm102-41.8c1.3-7.3 5.9-13.5 5.3-21-2.7 4.9-4.4 10.3-7.5 14.7s-.8 4.6 2.2 6.3zm-170.1 13.6c-.7-2.6-.8-5.8-2.4-7.7s-4.6-2.4-7.6-3.8c2.8 11.1 2.8 11.1 10 11.5zm-15.1 94.1-12.7-1.3 13.7 11.4a10.9 10.9 0 0 0 .1-1.8c-.3-2.7-.7-5.3-1.1-8.3zm183.2 61.1c8-1.3 9-3 6-10l-8 3.5zm-132.7-132.2c.3 8.8 1.1 9.7 8.2 9.8-1.3-11.3-.7-9.1-8.2-9.8zm153.2 216.3c-.3-4.2-.5-7.8-.8-12.2l-10 6.5zm122.2-98.4.8.2c2.1-1.4 4-3.1 6.3-4s2.3-3.1 1.1-5.1l-3.6-6.3zm-153.2 10.9-6.7 2.7c.4 2.9.7 5.3 1 7.8 7.9-2.5 7.9-2.5 5.7-10.5zm-35.1-353.2a71.6 71.6 0 0 1 1.8-9c1.5-4.7 1.4-5.5-2.5-9.1-2.4 4.7-2.2 15.6.7 18.1zm227.4 385.3-9.7 17.4 8.7-7.9c4.4-3.9 4.4-3.9 1-9.5zm-158.8-292.3c-1.6 10.5-1.6 10.5 3.1 13.8a43.7 43.7 0 0 1 1.2-4.9c2-4.9.9-7.3-4.3-8.9zm59.3 29.9 11.3-13.2a40.7 40.7 0 0 0 -5.8 2.2c-7.3 2.9-8 4.3-5.8 10.8zm54.3 165.5h.7l4.2-17.3-.5-.3-7.7 10.1zm-33.1 107.1-8.8-7.6-1.2.9 3.1 11.6zm18.5-124c-1.3-3.6-2.3-6.7-3.6-9.8-.1-.3-2.2-.4-2.3-.3-.9 3.3-1.6 6.7-2.4 10.1zm-187-37.8c2.7 12 3.2 12.8 8.5 15.2-.7-2.3-1.2-4.4-1.9-6.4s-2-4-2.4-6.1-1.7-3.2-4.2-2.7zm-104.4-16.4c1.4 8.3 2.4 9.4 8.1 9.4.3-6.4-1.9-9-8.1-9.4zm143.1 186.8c5-1.8 5.2-2 4.8-6.9s-.9-7.9-1.4-11.8h-.8c-.9 6.3-1.7 12.5-2.6 18.7zm160.3 34.5.5.2 7-5.8c4.9-3.9 4.9-4.5-1-7.1h-.8zm13.5-192.9c-7.8 5.4-10.2 12.7-10.6 20.9h.4zm-76.2 170.3.6.5c2.9-1.8 5.7-4.1 8.9-5.5s4.6-3.4 2.7-8.6zm-51.7-297.2c.2 6.4-3.8 12.1-2.5 18.7a4.6 4.6 0 0 0 1.7-2.2c1.2-4 2.4-8 3.4-11.9.6-2.2 1-4.4-2.6-4.6zm-211.7 117.7h-.9c0 5.2.2 10.4-.1 15.6-.2 3.2 1 4 4.3 3.5-1.1-6.5-2.2-12.8-3.3-19.1zm134.6 20.3 6.2 14.9 1.9-1.5c-.9-3.3-1.5-6.2-2.5-9s-1.3-5.5-5.6-4.4zm-100.1 21.8v7.1h7.1c-.1-2.1-.2-3.8-.3-5.9zm174.2-208.7c2.7-6.6 2-10.8-2.8-13.3.7 4.7-3 9.8 2.8 13.3zm-258.3 87 1.2-.3a100.3 100.3 0 0 0 -2.1-12.2c-.6-2.2-1.3-5.1-5.3-4.8 2.1 5.7 4.2 11.5 6.2 17.3zm299.1 182.2 1.2-.2 3.7-9.3-9 .8zm-36.4-84.9 7 11.5 2.8-8.2zm-65.7 54c-1-4-1.9-7.8-3-11.5a2.1 2.1 0 0 0 -1.8-.9 2.2 2.2 0 0 0 -1.2 1.6 30.7 30.7 0 0 0 .8 6.7c.6 2.2 1 5.2 5.2 4.1zm140.7-164.4c-7.2 5.4-7.9 7.3-4.8 15.7zm30.1 208.4.7.7c1.7-1.5 4.3-2.8 5-4.7 1.4-4.2 1.9-8.6 2.8-13l-.5-.2zm-325.7-158.4c-1-10.1-1.1-12.1-6-12 1.1 7.5 2.7 10.5 6 12zm22.6-24.5c1.2 2.4 2.5 4.2 3 6.3s2.3 4.1 5.3 3.6c-2.8-9.6-2-9.4-8.3-9.9zm234.5 274.6c2.3-3.9 7.2-5 7.7-10.5l-9.4 4.3c.5 1.7 1 3.5 1.7 6.2zm-32.4-47.4 5.1-1.4c-.3-2.8-.6-5.4-1-8-4.9 1.6-5.2 2.3-4.1 9.4zm33.7 62.1a50.2 50.2 0 0 0 6.3-3.8c3.7-2.9 4.5-1.7 2.6-7.1-3.5 3.1-7.4 5.9-8.9 10.9zm-191.8-192.5 1.4-.3c-1.2-5.9-2.3-11.9-3.5-17.8-.1-.4-1.4-.6-2.6-1.2zm152.9 74.6c-4.8.4-5.1 1.2-2.7 8.7 4.1-.4 4.1-.4 2.7-8.7zm-158.8-109.1c-.3-7.3-2.2-10.1-6.5-9.2 1.5 3.3 1.2 7.8 6.5 9.2zm-21.1-27.3c-.8-8.2-1.3-9-6.5-10.5 2.8 2.9.8 8.6 6.5 10.5zm234.6-99.2c-.9-4.9-1.7-9.3-2.6-13.7l-1 .2c-.2 2.5-.4 5-.7 7.6s1.1 4.5 4.3 5.9zm-97.1-47.3q1.1-3.4 2.1-7.2l-3.2-3.7c-2.5 5.3-2 9.7 1.1 10.9zm-46.7 18.9h-.6l-3.1 5.9c-1.4 2.8-2.8 5.7-4 8.6-.2.5.6 1.4.9 2.1s1.5-.6 1.7-1.1c1.8-5.2 3.4-10.4 5.1-15.5zm82.7 18.4a30.1 30.1 0 0 1 .9-5.5c1.3-3.9 1.4-3.9-2.4-6.2 1.9 3.7-3.8 7.8 1.5 11.7zm24.7 254.4c6.9-.4 7.4-1.1 4.4-6.8l-5.4 4.2zm-79.6-230.5c1.3-3.7 2.4-7.3 3.6-10.8l-1.2-.6-1.6 2.4c-.9 1.7-1.2 3.9-2.4 5.2s-.6 3 1.6 3.8zm14-44.4-1.4-.3-4.8 18.7 1 .2c1.7-6.2 3.5-12.4 5.2-18.6zm108.1 17.9c-4.3 1.4-4.8 3.5-2 10.4.6-3.3 1.2-6.6 2-10.4zm-88.5 48.8c.7-2.2-1.3-4.9-4.6-6.3-1.6 4-.8 5 4.6 6.3zm3.7 117.2c-3.3 2.7-1.8 6.8 3 10.3-.9-3.2-1.9-6.6-3-10.3zm97.9-70.1-1-.3c-.9 2.7-1.9 5.4-2.6 8.1-.2.8.5 1.8.8 2.8.5-.7 1.4-1.4 1.5-2.1.6-2.8.9-5.7 1.3-8.5zm-29.5 148c-2.4 1.6-3.2 3.5-2.9 6.8l5.4-2zm-136.7-50.6.2 1.5c3.3-.7 6.9 1 10.1-1.1v-1.1zm82.8-175.4-1.7-.4c-1.5 4.4-1.4 9.1-1.7 13.7 1.2-4.4 2.3-8.9 3.4-13.3zm26 165.6.7-.9-2.2-5.5c-2.3 1.2-3.2 3.1-2.3 5s2.5 1 3.8 1.4zm19.5-100-.8 3.5 2.1.9 1.5 1.2c2.2-4.4 2.2-4.4-2.8-5.6zm-42.8 158.9 4.3-3.4-4.8-2.4a4.1 4.1 0 0 0 -.5.9zm-17-58.9c-2.2-1.5-2.1-5.9-5.9-3.2 0 4 2.6 3.6 5.9 3.2zm-148.4-47.8a43 43 0 0 0 -1.5-5c-.5-1.3-1.2-2.6-1.8-3.9-.8 3.6 1.5 8.5 3.4 8.9zm102.6 173.2 1-.6c-.3-1.6-.7-3.3-1.1-5.3l-4.1 2.6zm-46.2-31.4v.9l5.5 3.1v-4.6zm47.3-58.1c.2 1.8.4 3.2.7 5.1l5.7-2zm-67.7-241.4-1.1-.3c-2.7 2.2-2.8 4.7-.4 7.8.6-2.7 1.1-5.1 1.5-7.5zm182.9 239.3 1 .7c4-1.2 2.5-5.2 3.5-7.9zm-208 27.7c.9-4.5-.2-5.2-5.2-3.8zm131.8-69-4.7-7c-.3 3.7 1.9 7.1 4.7 7zm114.9-43.5h-.9l-.8 5.6 3.4.6zm-376.3-3.9c-2.6 3.9-1.4 5.7 1.9 7-.6-2.3-1.1-4.3-1.9-7zm366.7 147.8c4.9-1.9 5.1-2.2 3.4-6-1.2 2-2.1 3.7-3.4 6zm-145.8-353.6h-1.1l-2.1 9.8h.9c.7-3.2 1.5-6.5 2.3-9.8zm76.8 357.2-.5-1.1-4.1.7c.2 1.3.2 2.1.4 3.7zm-51.9-166.4-4.3 5 1.1.9c3.1-.1 2.5-3.5 3.2-5.9zm6.7 70h5.3c-.3-2-.3-2-5.3 0z"/></g></g></svg>